M48
; DRILL file {KiCad (6.0.7-1)-1} date Monday, December 12, 2022 at 12:26:36 AM
; FORMAT={-:-/ absolute / inch / decimal}
; #@! TF.CreationDate,2022-12-12T00:26:36-05:00
; #@! TF.GenerationSoftware,Kicad,Pcbnew,(6.0.7-1)-1
; #@! TF.FileFunction,Plated,1,2,PTH
FMAT,2
INCH
; #@! TA.AperFunction,Plated,PTH,ViaDrill
T1C0.0157
; #@! TA.AperFunction,Plated,PTH,ComponentDrill
T2C0.0394
; #@! TA.AperFunction,Plated,PTH,ComponentDrill
T3C0.0402
; #@! TA.AperFunction,Plated,PTH,ComponentDrill
T4C0.0413
%
G90
G05
T1
X3.4449Y-3.3465
X3.7362Y-3.7008
X3.7402Y-3.3465
X4.0354Y-2.7559
X4.0512Y-3.3425
X4.1445Y-3.4055
X4.2429Y-3.7481
X4.2429Y-3.8977
X4.2429Y-4.0945
X4.2638Y-3.4134
X4.2677Y-3.3307
X4.3307Y-2.7559
X4.3307Y-3.0512
X4.3307Y-4.626
X4.626Y-2.7559
X4.626Y-3.0512
X4.626Y-3.3465
X4.626Y-3.6417
X4.626Y-4.0354
X4.626Y-4.626
X4.9213Y-2.7559
X4.9213Y-3.0512
X4.9213Y-3.3465
X4.9213Y-3.6417
X4.9213Y-3.937
X4.9213Y-4.5276
X5.2165Y-2.7559
X5.2165Y-3.3465
X5.2165Y-3.6417
X5.2165Y-3.937
X5.2165Y-4.2323
X5.2165Y-4.5276
X5.5Y-3.5669
X5.5118Y-2.7559
X5.5118Y-4.5276
X5.8071Y-2.7559
X5.8071Y-3.6417
X5.8071Y-4.2323
X5.8071Y-4.5276
X6.1024Y-3.6417
X6.1024Y-4.2323
X6.2008Y-3.3937
X6.2008Y-3.8504
X6.3976Y-2.7559
X6.3976Y-3.3465
X6.3976Y-3.6417
X6.3976Y-4.2323
X6.3976Y-4.5276
X6.6929Y-2.7559
X6.6929Y-3.0512
X6.6929Y-3.3465
X6.6929Y-3.6417
X6.6929Y-3.937
X6.6929Y-4.2323
X6.6929Y-4.5276
X6.9882Y-2.7559
X6.9882Y-3.0512
X6.9882Y-3.3465
X6.9882Y-3.6417
X6.9882Y-3.937
X6.9882Y-4.2323
X6.9882Y-4.5276
X7.2835Y-2.7559
X7.2835Y-3.0512
X7.2835Y-3.3465
X7.2835Y-3.6417
X7.2835Y-3.937
X7.2835Y-4.2323
X7.2835Y-4.5276
X7.5787Y-2.7559
X7.5787Y-3.0512
X7.5787Y-3.3465
X7.5787Y-3.6417
X7.5787Y-3.937
X7.5787Y-4.2323
X7.5787Y-4.5276
X7.874Y-2.7559
X7.874Y-3.0512
X7.874Y-3.3465
X7.874Y-3.6417
X7.874Y-3.937
X7.874Y-4.2323
X7.874Y-4.5276
X8.1693Y-2.7559
X8.1693Y-3.0512
X8.1693Y-3.3465
X8.1693Y-3.6417
X8.1693Y-3.937
X8.1693Y-4.2323
X8.1693Y-4.5276
X8.4606Y-3.8189
X8.4646Y-3.6417
T2
X3.8512Y-4.0965
X4.0992Y-3.9272
X5.8622Y-3.3189
X5.8642Y-3.8957
T3
X8.3268Y-3.2717
X8.3268Y-3.3898
X8.3268Y-3.5079
X8.3268Y-3.626
X8.3268Y-3.7441
X8.3268Y-3.8622
X8.3268Y-3.9803
X8.3268Y-4.0984
T4
X3.3663Y-3.6939
X3.4844Y-3.6939
T0
M30
