%TF.GenerationSoftware,KiCad,Pcbnew,(6.0.7-1)-1*%
%TF.CreationDate,2022-12-12T00:26:39-05:00*%
%TF.ProjectId,HVPCB,48565043-422e-46b6-9963-61645f706362,rev?*%
%TF.SameCoordinates,Original*%
%TF.FileFunction,Drillmap*%
%TF.FilePolarity,Positive*%
%FSLAX45Y45*%
G04 Gerber Fmt 4.5, Leading zero omitted, Abs format (unit mm)*
G04 Created by KiCad (PCBNEW (6.0.7-1)-1) date 2022-12-12 00:26:39*
%MOMM*%
%LPD*%
G01*
G04 APERTURE LIST*
%ADD10C,0.100000*%
%ADD11C,0.200000*%
%ADD12C,0.040000*%
%ADD13C,0.102000*%
%ADD14C,0.104998*%
G04 APERTURE END LIST*
D10*
X21900000Y-6850000D02*
X21900000Y-11850000D01*
X8400000Y-6350000D02*
X21400000Y-6350000D01*
X7900000Y-11850000D02*
G75*
G03*
X8400000Y-12350000I500000J0D01*
G01*
X8400000Y-6350000D02*
G75*
G03*
X7900000Y-6850000I0J-500000D01*
G01*
X7900000Y-11850000D02*
X7900000Y-6850000D01*
X21400000Y-12350000D02*
G75*
G03*
X21900000Y-11850000I0J500000D01*
G01*
X21900000Y-6850000D02*
G75*
G03*
X21400000Y-6350000I-500000J0D01*
G01*
X21400000Y-12350000D02*
X8400000Y-12350000D01*
D11*
D12*
X8730000Y-8480000D02*
X8770000Y-8520000D01*
X8770000Y-8480000D02*
X8730000Y-8520000D01*
X9470000Y-9380000D02*
X9510000Y-9420000D01*
X9510000Y-9380000D02*
X9470000Y-9420000D01*
X9480000Y-8480000D02*
X9520000Y-8520000D01*
X9520000Y-8480000D02*
X9480000Y-8520000D01*
X10230000Y-6980000D02*
X10270000Y-7020000D01*
X10270000Y-6980000D02*
X10230000Y-7020000D01*
X10270000Y-8470000D02*
X10310000Y-8510000D01*
X10310000Y-8470000D02*
X10270000Y-8510000D01*
X10506979Y-8630048D02*
X10546979Y-8670048D01*
X10546979Y-8630048D02*
X10506979Y-8670048D01*
X10756979Y-9500048D02*
X10796979Y-9540048D01*
X10796979Y-9500048D02*
X10756979Y-9540048D01*
X10756979Y-9880048D02*
X10796979Y-9920048D01*
X10796979Y-9880048D02*
X10756979Y-9920048D01*
X10756979Y-10380048D02*
X10796979Y-10420048D01*
X10796979Y-10380048D02*
X10756979Y-10420048D01*
X10810000Y-8650000D02*
X10850000Y-8690000D01*
X10850000Y-8650000D02*
X10810000Y-8690000D01*
X10820000Y-8440000D02*
X10860000Y-8480000D01*
X10860000Y-8440000D02*
X10820000Y-8480000D01*
X10980000Y-6980000D02*
X11020000Y-7020000D01*
X11020000Y-6980000D02*
X10980000Y-7020000D01*
X10980000Y-7730000D02*
X11020000Y-7770000D01*
X11020000Y-7730000D02*
X10980000Y-7770000D01*
X10980000Y-11730000D02*
X11020000Y-11770000D01*
X11020000Y-11730000D02*
X10980000Y-11770000D01*
X11730000Y-6980000D02*
X11770000Y-7020000D01*
X11770000Y-6980000D02*
X11730000Y-7020000D01*
X11730000Y-7730000D02*
X11770000Y-7770000D01*
X11770000Y-7730000D02*
X11730000Y-7770000D01*
X11730000Y-8480000D02*
X11770000Y-8520000D01*
X11770000Y-8480000D02*
X11730000Y-8520000D01*
X11730000Y-9230000D02*
X11770000Y-9270000D01*
X11770000Y-9230000D02*
X11730000Y-9270000D01*
X11730000Y-10230000D02*
X11770000Y-10270000D01*
X11770000Y-10230000D02*
X11730000Y-10270000D01*
X11730000Y-11730000D02*
X11770000Y-11770000D01*
X11770000Y-11730000D02*
X11730000Y-11770000D01*
X12480000Y-6980000D02*
X12520000Y-7020000D01*
X12520000Y-6980000D02*
X12480000Y-7020000D01*
X12480000Y-7730000D02*
X12520000Y-7770000D01*
X12520000Y-7730000D02*
X12480000Y-7770000D01*
X12480000Y-8480000D02*
X12520000Y-8520000D01*
X12520000Y-8480000D02*
X12480000Y-8520000D01*
X12480000Y-9230000D02*
X12520000Y-9270000D01*
X12520000Y-9230000D02*
X12480000Y-9270000D01*
X12480000Y-9980000D02*
X12520000Y-10020000D01*
X12520000Y-9980000D02*
X12480000Y-10020000D01*
X12480000Y-11480000D02*
X12520000Y-11520000D01*
X12520000Y-11480000D02*
X12480000Y-11520000D01*
X13230000Y-6980000D02*
X13270000Y-7020000D01*
X13270000Y-6980000D02*
X13230000Y-7020000D01*
X13230000Y-8480000D02*
X13270000Y-8520000D01*
X13270000Y-8480000D02*
X13230000Y-8520000D01*
X13230000Y-9230000D02*
X13270000Y-9270000D01*
X13270000Y-9230000D02*
X13230000Y-9270000D01*
X13230000Y-9980000D02*
X13270000Y-10020000D01*
X13270000Y-9980000D02*
X13230000Y-10020000D01*
X13230000Y-10730000D02*
X13270000Y-10770000D01*
X13270000Y-10730000D02*
X13230000Y-10770000D01*
X13230000Y-11480000D02*
X13270000Y-11520000D01*
X13270000Y-11480000D02*
X13230000Y-11520000D01*
X13950000Y-9040000D02*
X13990000Y-9080000D01*
X13990000Y-9040000D02*
X13950000Y-9080000D01*
X13980000Y-6980000D02*
X14020000Y-7020000D01*
X14020000Y-6980000D02*
X13980000Y-7020000D01*
X13980000Y-11480000D02*
X14020000Y-11520000D01*
X14020000Y-11480000D02*
X13980000Y-11520000D01*
X14730000Y-6980000D02*
X14770000Y-7020000D01*
X14770000Y-6980000D02*
X14730000Y-7020000D01*
X14730000Y-9230000D02*
X14770000Y-9270000D01*
X14770000Y-9230000D02*
X14730000Y-9270000D01*
X14730000Y-10730000D02*
X14770000Y-10770000D01*
X14770000Y-10730000D02*
X14730000Y-10770000D01*
X14730000Y-11480000D02*
X14770000Y-11520000D01*
X14770000Y-11480000D02*
X14730000Y-11520000D01*
X15480000Y-9230000D02*
X15520000Y-9270000D01*
X15520000Y-9230000D02*
X15480000Y-9270000D01*
X15480000Y-10730000D02*
X15520000Y-10770000D01*
X15520000Y-10730000D02*
X15480000Y-10770000D01*
X15730000Y-8600000D02*
X15770000Y-8640000D01*
X15770000Y-8600000D02*
X15730000Y-8640000D01*
X15730000Y-9760000D02*
X15770000Y-9800000D01*
X15770000Y-9760000D02*
X15730000Y-9800000D01*
X16230000Y-6980000D02*
X16270000Y-7020000D01*
X16270000Y-6980000D02*
X16230000Y-7020000D01*
X16230000Y-8480000D02*
X16270000Y-8520000D01*
X16270000Y-8480000D02*
X16230000Y-8520000D01*
X16230000Y-9230000D02*
X16270000Y-9270000D01*
X16270000Y-9230000D02*
X16230000Y-9270000D01*
X16230000Y-10730000D02*
X16270000Y-10770000D01*
X16270000Y-10730000D02*
X16230000Y-10770000D01*
X16230000Y-11480000D02*
X16270000Y-11520000D01*
X16270000Y-11480000D02*
X16230000Y-11520000D01*
X16980000Y-6980000D02*
X17020000Y-7020000D01*
X17020000Y-6980000D02*
X16980000Y-7020000D01*
X16980000Y-7730000D02*
X17020000Y-7770000D01*
X17020000Y-7730000D02*
X16980000Y-7770000D01*
X16980000Y-8480000D02*
X17020000Y-8520000D01*
X17020000Y-8480000D02*
X16980000Y-8520000D01*
X16980000Y-9230000D02*
X17020000Y-9270000D01*
X17020000Y-9230000D02*
X16980000Y-9270000D01*
X16980000Y-9980000D02*
X17020000Y-10020000D01*
X17020000Y-9980000D02*
X16980000Y-10020000D01*
X16980000Y-10730000D02*
X17020000Y-10770000D01*
X17020000Y-10730000D02*
X16980000Y-10770000D01*
X16980000Y-11480000D02*
X17020000Y-11520000D01*
X17020000Y-11480000D02*
X16980000Y-11520000D01*
X17730000Y-6980000D02*
X17770000Y-7020000D01*
X17770000Y-6980000D02*
X17730000Y-7020000D01*
X17730000Y-7730000D02*
X17770000Y-7770000D01*
X17770000Y-7730000D02*
X17730000Y-7770000D01*
X17730000Y-8480000D02*
X17770000Y-8520000D01*
X17770000Y-8480000D02*
X17730000Y-8520000D01*
X17730000Y-9230000D02*
X17770000Y-9270000D01*
X17770000Y-9230000D02*
X17730000Y-9270000D01*
X17730000Y-9980000D02*
X17770000Y-10020000D01*
X17770000Y-9980000D02*
X17730000Y-10020000D01*
X17730000Y-10730000D02*
X17770000Y-10770000D01*
X17770000Y-10730000D02*
X17730000Y-10770000D01*
X17730000Y-11480000D02*
X17770000Y-11520000D01*
X17770000Y-11480000D02*
X17730000Y-11520000D01*
X18480000Y-6980000D02*
X18520000Y-7020000D01*
X18520000Y-6980000D02*
X18480000Y-7020000D01*
X18480000Y-7730000D02*
X18520000Y-7770000D01*
X18520000Y-7730000D02*
X18480000Y-7770000D01*
X18480000Y-8480000D02*
X18520000Y-8520000D01*
X18520000Y-8480000D02*
X18480000Y-8520000D01*
X18480000Y-9230000D02*
X18520000Y-9270000D01*
X18520000Y-9230000D02*
X18480000Y-9270000D01*
X18480000Y-9980000D02*
X18520000Y-10020000D01*
X18520000Y-9980000D02*
X18480000Y-10020000D01*
X18480000Y-10730000D02*
X18520000Y-10770000D01*
X18520000Y-10730000D02*
X18480000Y-10770000D01*
X18480000Y-11480000D02*
X18520000Y-11520000D01*
X18520000Y-11480000D02*
X18480000Y-11520000D01*
X19230000Y-6980000D02*
X19270000Y-7020000D01*
X19270000Y-6980000D02*
X19230000Y-7020000D01*
X19230000Y-7730000D02*
X19270000Y-7770000D01*
X19270000Y-7730000D02*
X19230000Y-7770000D01*
X19230000Y-8480000D02*
X19270000Y-8520000D01*
X19270000Y-8480000D02*
X19230000Y-8520000D01*
X19230000Y-9230000D02*
X19270000Y-9270000D01*
X19270000Y-9230000D02*
X19230000Y-9270000D01*
X19230000Y-9980000D02*
X19270000Y-10020000D01*
X19270000Y-9980000D02*
X19230000Y-10020000D01*
X19230000Y-10730000D02*
X19270000Y-10770000D01*
X19270000Y-10730000D02*
X19230000Y-10770000D01*
X19230000Y-11480000D02*
X19270000Y-11520000D01*
X19270000Y-11480000D02*
X19230000Y-11520000D01*
X19980000Y-6980000D02*
X20020000Y-7020000D01*
X20020000Y-6980000D02*
X19980000Y-7020000D01*
X19980000Y-7730000D02*
X20020000Y-7770000D01*
X20020000Y-7730000D02*
X19980000Y-7770000D01*
X19980000Y-8480000D02*
X20020000Y-8520000D01*
X20020000Y-8480000D02*
X19980000Y-8520000D01*
X19980000Y-9230000D02*
X20020000Y-9270000D01*
X20020000Y-9230000D02*
X19980000Y-9270000D01*
X19980000Y-9980000D02*
X20020000Y-10020000D01*
X20020000Y-9980000D02*
X19980000Y-10020000D01*
X19980000Y-10730000D02*
X20020000Y-10770000D01*
X20020000Y-10730000D02*
X19980000Y-10770000D01*
X19980000Y-11480000D02*
X20020000Y-11520000D01*
X20020000Y-11480000D02*
X19980000Y-11520000D01*
X20730000Y-6980000D02*
X20770000Y-7020000D01*
X20770000Y-6980000D02*
X20730000Y-7020000D01*
X20730000Y-7730000D02*
X20770000Y-7770000D01*
X20770000Y-7730000D02*
X20730000Y-7770000D01*
X20730000Y-8480000D02*
X20770000Y-8520000D01*
X20770000Y-8480000D02*
X20730000Y-8520000D01*
X20730000Y-9230000D02*
X20770000Y-9270000D01*
X20770000Y-9230000D02*
X20730000Y-9270000D01*
X20730000Y-9980000D02*
X20770000Y-10020000D01*
X20770000Y-9980000D02*
X20730000Y-10020000D01*
X20730000Y-10730000D02*
X20770000Y-10770000D01*
X20770000Y-10730000D02*
X20730000Y-10770000D01*
X20730000Y-11480000D02*
X20770000Y-11520000D01*
X20770000Y-11480000D02*
X20730000Y-11520000D01*
X21470000Y-9680000D02*
X21510000Y-9720000D01*
X21510000Y-9680000D02*
X21470000Y-9720000D01*
X21480000Y-9230000D02*
X21520000Y-9270000D01*
X21520000Y-9230000D02*
X21480000Y-9270000D01*
D10*
X9831979Y-10405048D02*
G75*
G03*
X9831979Y-10405048I-50000J0D01*
G01*
X10461979Y-9975048D02*
G75*
G03*
X10461979Y-9975048I-50000J0D01*
G01*
X14940000Y-8430000D02*
G75*
G03*
X14940000Y-8430000I-50000J0D01*
G01*
X14945000Y-9895000D02*
G75*
G03*
X14945000Y-9895000I-50000J0D01*
G01*
D13*
X21150000Y-8259000D02*
X21150000Y-8361000D01*
X21099000Y-8310000D02*
X21201000Y-8310000D01*
X21150000Y-8559000D02*
X21150000Y-8661000D01*
X21099000Y-8610000D02*
X21201000Y-8610000D01*
X21150000Y-8859000D02*
X21150000Y-8961000D01*
X21099000Y-8910000D02*
X21201000Y-8910000D01*
X21150000Y-9159000D02*
X21150000Y-9261000D01*
X21099000Y-9210000D02*
X21201000Y-9210000D01*
X21150000Y-9459000D02*
X21150000Y-9561000D01*
X21099000Y-9510000D02*
X21201000Y-9510000D01*
X21150000Y-9759000D02*
X21150000Y-9861000D01*
X21099000Y-9810000D02*
X21201000Y-9810000D01*
X21150000Y-10059000D02*
X21150000Y-10161000D01*
X21099000Y-10110000D02*
X21201000Y-10110000D01*
X21150000Y-10359000D02*
X21150000Y-10461000D01*
X21099000Y-10410000D02*
X21201000Y-10410000D01*
D14*
X8587524Y-9419676D02*
X8587524Y-9345430D01*
X8513278Y-9345430D01*
X8513278Y-9419676D01*
X8587524Y-9419676D01*
X8887524Y-9419676D02*
X8887524Y-9345430D01*
X8813278Y-9345430D01*
X8813278Y-9419676D01*
X8887524Y-9419676D01*
D11*
X8152619Y-12665476D02*
X8152619Y-12465476D01*
X8200238Y-12465476D01*
X8228809Y-12475000D01*
X8247857Y-12494048D01*
X8257381Y-12513095D01*
X8266905Y-12551190D01*
X8266905Y-12579762D01*
X8257381Y-12617857D01*
X8247857Y-12636905D01*
X8228809Y-12655952D01*
X8200238Y-12665476D01*
X8152619Y-12665476D01*
X8352619Y-12665476D02*
X8352619Y-12532143D01*
X8352619Y-12570238D02*
X8362143Y-12551190D01*
X8371667Y-12541667D01*
X8390714Y-12532143D01*
X8409762Y-12532143D01*
X8476429Y-12665476D02*
X8476429Y-12532143D01*
X8476429Y-12465476D02*
X8466905Y-12475000D01*
X8476429Y-12484524D01*
X8485952Y-12475000D01*
X8476429Y-12465476D01*
X8476429Y-12484524D01*
X8600238Y-12665476D02*
X8581190Y-12655952D01*
X8571667Y-12636905D01*
X8571667Y-12465476D01*
X8705000Y-12665476D02*
X8685952Y-12655952D01*
X8676429Y-12636905D01*
X8676429Y-12465476D01*
X8933571Y-12665476D02*
X8933571Y-12465476D01*
X9000238Y-12608333D01*
X9066905Y-12465476D01*
X9066905Y-12665476D01*
X9247857Y-12665476D02*
X9247857Y-12560714D01*
X9238333Y-12541667D01*
X9219286Y-12532143D01*
X9181190Y-12532143D01*
X9162143Y-12541667D01*
X9247857Y-12655952D02*
X9228810Y-12665476D01*
X9181190Y-12665476D01*
X9162143Y-12655952D01*
X9152619Y-12636905D01*
X9152619Y-12617857D01*
X9162143Y-12598809D01*
X9181190Y-12589286D01*
X9228810Y-12589286D01*
X9247857Y-12579762D01*
X9343095Y-12532143D02*
X9343095Y-12732143D01*
X9343095Y-12541667D02*
X9362143Y-12532143D01*
X9400238Y-12532143D01*
X9419286Y-12541667D01*
X9428810Y-12551190D01*
X9438333Y-12570238D01*
X9438333Y-12627381D01*
X9428810Y-12646428D01*
X9419286Y-12655952D01*
X9400238Y-12665476D01*
X9362143Y-12665476D01*
X9343095Y-12655952D01*
X9524048Y-12646428D02*
X9533571Y-12655952D01*
X9524048Y-12665476D01*
X9514524Y-12655952D01*
X9524048Y-12646428D01*
X9524048Y-12665476D01*
X9524048Y-12541667D02*
X9533571Y-12551190D01*
X9524048Y-12560714D01*
X9514524Y-12551190D01*
X9524048Y-12541667D01*
X9524048Y-12560714D01*
D12*
X7855000Y-12975000D02*
X7895000Y-13015000D01*
X7895000Y-12975000D02*
X7855000Y-13015000D01*
D11*
X8190714Y-12885476D02*
X8209762Y-12885476D01*
X8228809Y-12895000D01*
X8238333Y-12904524D01*
X8247857Y-12923571D01*
X8257381Y-12961667D01*
X8257381Y-13009286D01*
X8247857Y-13047381D01*
X8238333Y-13066428D01*
X8228809Y-13075952D01*
X8209762Y-13085476D01*
X8190714Y-13085476D01*
X8171667Y-13075952D01*
X8162143Y-13066428D01*
X8152619Y-13047381D01*
X8143095Y-13009286D01*
X8143095Y-12961667D01*
X8152619Y-12923571D01*
X8162143Y-12904524D01*
X8171667Y-12895000D01*
X8190714Y-12885476D01*
X8343095Y-13066428D02*
X8352619Y-13075952D01*
X8343095Y-13085476D01*
X8333571Y-13075952D01*
X8343095Y-13066428D01*
X8343095Y-13085476D01*
X8524048Y-12952143D02*
X8524048Y-13085476D01*
X8476429Y-12875952D02*
X8428810Y-13018809D01*
X8552619Y-13018809D01*
X8666905Y-12885476D02*
X8685952Y-12885476D01*
X8705000Y-12895000D01*
X8714524Y-12904524D01*
X8724048Y-12923571D01*
X8733571Y-12961667D01*
X8733571Y-13009286D01*
X8724048Y-13047381D01*
X8714524Y-13066428D01*
X8705000Y-13075952D01*
X8685952Y-13085476D01*
X8666905Y-13085476D01*
X8647857Y-13075952D01*
X8638333Y-13066428D01*
X8628810Y-13047381D01*
X8619286Y-13009286D01*
X8619286Y-12961667D01*
X8628810Y-12923571D01*
X8638333Y-12904524D01*
X8647857Y-12895000D01*
X8666905Y-12885476D01*
X8857381Y-12885476D02*
X8876429Y-12885476D01*
X8895476Y-12895000D01*
X8905000Y-12904524D01*
X8914524Y-12923571D01*
X8924048Y-12961667D01*
X8924048Y-13009286D01*
X8914524Y-13047381D01*
X8905000Y-13066428D01*
X8895476Y-13075952D01*
X8876429Y-13085476D01*
X8857381Y-13085476D01*
X8838333Y-13075952D01*
X8828810Y-13066428D01*
X8819286Y-13047381D01*
X8809762Y-13009286D01*
X8809762Y-12961667D01*
X8819286Y-12923571D01*
X8828810Y-12904524D01*
X8838333Y-12895000D01*
X8857381Y-12885476D01*
X9009762Y-13085476D02*
X9009762Y-12952143D01*
X9009762Y-12971190D02*
X9019286Y-12961667D01*
X9038333Y-12952143D01*
X9066905Y-12952143D01*
X9085952Y-12961667D01*
X9095476Y-12980714D01*
X9095476Y-13085476D01*
X9095476Y-12980714D02*
X9105000Y-12961667D01*
X9124048Y-12952143D01*
X9152619Y-12952143D01*
X9171667Y-12961667D01*
X9181190Y-12980714D01*
X9181190Y-13085476D01*
X9276429Y-13085476D02*
X9276429Y-12952143D01*
X9276429Y-12971190D02*
X9285952Y-12961667D01*
X9305000Y-12952143D01*
X9333571Y-12952143D01*
X9352619Y-12961667D01*
X9362143Y-12980714D01*
X9362143Y-13085476D01*
X9362143Y-12980714D02*
X9371667Y-12961667D01*
X9390714Y-12952143D01*
X9419286Y-12952143D01*
X9438333Y-12961667D01*
X9447857Y-12980714D01*
X9447857Y-13085476D01*
X9838333Y-12875952D02*
X9666905Y-13133095D01*
X10095476Y-12885476D02*
X10114524Y-12885476D01*
X10133571Y-12895000D01*
X10143095Y-12904524D01*
X10152619Y-12923571D01*
X10162143Y-12961667D01*
X10162143Y-13009286D01*
X10152619Y-13047381D01*
X10143095Y-13066428D01*
X10133571Y-13075952D01*
X10114524Y-13085476D01*
X10095476Y-13085476D01*
X10076429Y-13075952D01*
X10066905Y-13066428D01*
X10057381Y-13047381D01*
X10047857Y-13009286D01*
X10047857Y-12961667D01*
X10057381Y-12923571D01*
X10066905Y-12904524D01*
X10076429Y-12895000D01*
X10095476Y-12885476D01*
X10247857Y-13066428D02*
X10257381Y-13075952D01*
X10247857Y-13085476D01*
X10238333Y-13075952D01*
X10247857Y-13066428D01*
X10247857Y-13085476D01*
X10381190Y-12885476D02*
X10400238Y-12885476D01*
X10419286Y-12895000D01*
X10428810Y-12904524D01*
X10438333Y-12923571D01*
X10447857Y-12961667D01*
X10447857Y-13009286D01*
X10438333Y-13047381D01*
X10428810Y-13066428D01*
X10419286Y-13075952D01*
X10400238Y-13085476D01*
X10381190Y-13085476D01*
X10362143Y-13075952D01*
X10352619Y-13066428D01*
X10343095Y-13047381D01*
X10333571Y-13009286D01*
X10333571Y-12961667D01*
X10343095Y-12923571D01*
X10352619Y-12904524D01*
X10362143Y-12895000D01*
X10381190Y-12885476D01*
X10638333Y-13085476D02*
X10524048Y-13085476D01*
X10581190Y-13085476D02*
X10581190Y-12885476D01*
X10562143Y-12914048D01*
X10543095Y-12933095D01*
X10524048Y-12942619D01*
X10819286Y-12885476D02*
X10724048Y-12885476D01*
X10714524Y-12980714D01*
X10724048Y-12971190D01*
X10743095Y-12961667D01*
X10790714Y-12961667D01*
X10809762Y-12971190D01*
X10819286Y-12980714D01*
X10828810Y-12999762D01*
X10828810Y-13047381D01*
X10819286Y-13066428D01*
X10809762Y-13075952D01*
X10790714Y-13085476D01*
X10743095Y-13085476D01*
X10724048Y-13075952D01*
X10714524Y-13066428D01*
X10895476Y-12885476D02*
X11028810Y-12885476D01*
X10943095Y-13085476D01*
X11095476Y-12885476D02*
X11095476Y-12923571D01*
X11171667Y-12885476D02*
X11171667Y-12923571D01*
X11466905Y-13161667D02*
X11457381Y-13152143D01*
X11438333Y-13123571D01*
X11428809Y-13104524D01*
X11419286Y-13075952D01*
X11409762Y-13028333D01*
X11409762Y-12990238D01*
X11419286Y-12942619D01*
X11428809Y-12914048D01*
X11438333Y-12895000D01*
X11457381Y-12866428D01*
X11466905Y-12856905D01*
X11552619Y-13085476D02*
X11590714Y-13085476D01*
X11609762Y-13075952D01*
X11619286Y-13066428D01*
X11638333Y-13037857D01*
X11647857Y-12999762D01*
X11647857Y-12923571D01*
X11638333Y-12904524D01*
X11628809Y-12895000D01*
X11609762Y-12885476D01*
X11571667Y-12885476D01*
X11552619Y-12895000D01*
X11543095Y-12904524D01*
X11533571Y-12923571D01*
X11533571Y-12971190D01*
X11543095Y-12990238D01*
X11552619Y-12999762D01*
X11571667Y-13009286D01*
X11609762Y-13009286D01*
X11628809Y-12999762D01*
X11638333Y-12990238D01*
X11647857Y-12971190D01*
X11724048Y-12904524D02*
X11733571Y-12895000D01*
X11752619Y-12885476D01*
X11800238Y-12885476D01*
X11819286Y-12895000D01*
X11828809Y-12904524D01*
X11838333Y-12923571D01*
X11838333Y-12942619D01*
X11828809Y-12971190D01*
X11714524Y-13085476D01*
X11838333Y-13085476D01*
X12076428Y-13085476D02*
X12076428Y-12885476D01*
X12162143Y-13085476D02*
X12162143Y-12980714D01*
X12152619Y-12961667D01*
X12133571Y-12952143D01*
X12105000Y-12952143D01*
X12085952Y-12961667D01*
X12076428Y-12971190D01*
X12285952Y-13085476D02*
X12266905Y-13075952D01*
X12257381Y-13066428D01*
X12247857Y-13047381D01*
X12247857Y-12990238D01*
X12257381Y-12971190D01*
X12266905Y-12961667D01*
X12285952Y-12952143D01*
X12314524Y-12952143D01*
X12333571Y-12961667D01*
X12343095Y-12971190D01*
X12352619Y-12990238D01*
X12352619Y-13047381D01*
X12343095Y-13066428D01*
X12333571Y-13075952D01*
X12314524Y-13085476D01*
X12285952Y-13085476D01*
X12466905Y-13085476D02*
X12447857Y-13075952D01*
X12438333Y-13056905D01*
X12438333Y-12885476D01*
X12619286Y-13075952D02*
X12600238Y-13085476D01*
X12562143Y-13085476D01*
X12543095Y-13075952D01*
X12533571Y-13056905D01*
X12533571Y-12980714D01*
X12543095Y-12961667D01*
X12562143Y-12952143D01*
X12600238Y-12952143D01*
X12619286Y-12961667D01*
X12628809Y-12980714D01*
X12628809Y-12999762D01*
X12533571Y-13018809D01*
X12705000Y-13075952D02*
X12724048Y-13085476D01*
X12762143Y-13085476D01*
X12781190Y-13075952D01*
X12790714Y-13056905D01*
X12790714Y-13047381D01*
X12781190Y-13028333D01*
X12762143Y-13018809D01*
X12733571Y-13018809D01*
X12714524Y-13009286D01*
X12705000Y-12990238D01*
X12705000Y-12980714D01*
X12714524Y-12961667D01*
X12733571Y-12952143D01*
X12762143Y-12952143D01*
X12781190Y-12961667D01*
X12857381Y-13161667D02*
X12866905Y-13152143D01*
X12885952Y-13123571D01*
X12895476Y-13104524D01*
X12905000Y-13075952D01*
X12914524Y-13028333D01*
X12914524Y-12990238D01*
X12905000Y-12942619D01*
X12895476Y-12914048D01*
X12885952Y-12895000D01*
X12866905Y-12866428D01*
X12857381Y-12856905D01*
D10*
X7895000Y-13259000D02*
G75*
G03*
X7895000Y-13259000I-50000J0D01*
G01*
D11*
X8257381Y-13349476D02*
X8143095Y-13349476D01*
X8200238Y-13349476D02*
X8200238Y-13149476D01*
X8181190Y-13178048D01*
X8162143Y-13197095D01*
X8143095Y-13206619D01*
X8343095Y-13330428D02*
X8352619Y-13339952D01*
X8343095Y-13349476D01*
X8333571Y-13339952D01*
X8343095Y-13330428D01*
X8343095Y-13349476D01*
X8476429Y-13149476D02*
X8495476Y-13149476D01*
X8514524Y-13159000D01*
X8524048Y-13168524D01*
X8533571Y-13187571D01*
X8543095Y-13225667D01*
X8543095Y-13273286D01*
X8533571Y-13311381D01*
X8524048Y-13330428D01*
X8514524Y-13339952D01*
X8495476Y-13349476D01*
X8476429Y-13349476D01*
X8457381Y-13339952D01*
X8447857Y-13330428D01*
X8438333Y-13311381D01*
X8428810Y-13273286D01*
X8428810Y-13225667D01*
X8438333Y-13187571D01*
X8447857Y-13168524D01*
X8457381Y-13159000D01*
X8476429Y-13149476D01*
X8666905Y-13149476D02*
X8685952Y-13149476D01*
X8705000Y-13159000D01*
X8714524Y-13168524D01*
X8724048Y-13187571D01*
X8733571Y-13225667D01*
X8733571Y-13273286D01*
X8724048Y-13311381D01*
X8714524Y-13330428D01*
X8705000Y-13339952D01*
X8685952Y-13349476D01*
X8666905Y-13349476D01*
X8647857Y-13339952D01*
X8638333Y-13330428D01*
X8628810Y-13311381D01*
X8619286Y-13273286D01*
X8619286Y-13225667D01*
X8628810Y-13187571D01*
X8638333Y-13168524D01*
X8647857Y-13159000D01*
X8666905Y-13149476D01*
X8857381Y-13149476D02*
X8876429Y-13149476D01*
X8895476Y-13159000D01*
X8905000Y-13168524D01*
X8914524Y-13187571D01*
X8924048Y-13225667D01*
X8924048Y-13273286D01*
X8914524Y-13311381D01*
X8905000Y-13330428D01*
X8895476Y-13339952D01*
X8876429Y-13349476D01*
X8857381Y-13349476D01*
X8838333Y-13339952D01*
X8828810Y-13330428D01*
X8819286Y-13311381D01*
X8809762Y-13273286D01*
X8809762Y-13225667D01*
X8819286Y-13187571D01*
X8828810Y-13168524D01*
X8838333Y-13159000D01*
X8857381Y-13149476D01*
X9009762Y-13349476D02*
X9009762Y-13216143D01*
X9009762Y-13235190D02*
X9019286Y-13225667D01*
X9038333Y-13216143D01*
X9066905Y-13216143D01*
X9085952Y-13225667D01*
X9095476Y-13244714D01*
X9095476Y-13349476D01*
X9095476Y-13244714D02*
X9105000Y-13225667D01*
X9124048Y-13216143D01*
X9152619Y-13216143D01*
X9171667Y-13225667D01*
X9181190Y-13244714D01*
X9181190Y-13349476D01*
X9276429Y-13349476D02*
X9276429Y-13216143D01*
X9276429Y-13235190D02*
X9285952Y-13225667D01*
X9305000Y-13216143D01*
X9333571Y-13216143D01*
X9352619Y-13225667D01*
X9362143Y-13244714D01*
X9362143Y-13349476D01*
X9362143Y-13244714D02*
X9371667Y-13225667D01*
X9390714Y-13216143D01*
X9419286Y-13216143D01*
X9438333Y-13225667D01*
X9447857Y-13244714D01*
X9447857Y-13349476D01*
X9838333Y-13139952D02*
X9666905Y-13397095D01*
X10095476Y-13149476D02*
X10114524Y-13149476D01*
X10133571Y-13159000D01*
X10143095Y-13168524D01*
X10152619Y-13187571D01*
X10162143Y-13225667D01*
X10162143Y-13273286D01*
X10152619Y-13311381D01*
X10143095Y-13330428D01*
X10133571Y-13339952D01*
X10114524Y-13349476D01*
X10095476Y-13349476D01*
X10076429Y-13339952D01*
X10066905Y-13330428D01*
X10057381Y-13311381D01*
X10047857Y-13273286D01*
X10047857Y-13225667D01*
X10057381Y-13187571D01*
X10066905Y-13168524D01*
X10076429Y-13159000D01*
X10095476Y-13149476D01*
X10247857Y-13330428D02*
X10257381Y-13339952D01*
X10247857Y-13349476D01*
X10238333Y-13339952D01*
X10247857Y-13330428D01*
X10247857Y-13349476D01*
X10381190Y-13149476D02*
X10400238Y-13149476D01*
X10419286Y-13159000D01*
X10428810Y-13168524D01*
X10438333Y-13187571D01*
X10447857Y-13225667D01*
X10447857Y-13273286D01*
X10438333Y-13311381D01*
X10428810Y-13330428D01*
X10419286Y-13339952D01*
X10400238Y-13349476D01*
X10381190Y-13349476D01*
X10362143Y-13339952D01*
X10352619Y-13330428D01*
X10343095Y-13311381D01*
X10333571Y-13273286D01*
X10333571Y-13225667D01*
X10343095Y-13187571D01*
X10352619Y-13168524D01*
X10362143Y-13159000D01*
X10381190Y-13149476D01*
X10514524Y-13149476D02*
X10638333Y-13149476D01*
X10571667Y-13225667D01*
X10600238Y-13225667D01*
X10619286Y-13235190D01*
X10628810Y-13244714D01*
X10638333Y-13263762D01*
X10638333Y-13311381D01*
X10628810Y-13330428D01*
X10619286Y-13339952D01*
X10600238Y-13349476D01*
X10543095Y-13349476D01*
X10524048Y-13339952D01*
X10514524Y-13330428D01*
X10733571Y-13349476D02*
X10771667Y-13349476D01*
X10790714Y-13339952D01*
X10800238Y-13330428D01*
X10819286Y-13301857D01*
X10828810Y-13263762D01*
X10828810Y-13187571D01*
X10819286Y-13168524D01*
X10809762Y-13159000D01*
X10790714Y-13149476D01*
X10752619Y-13149476D01*
X10733571Y-13159000D01*
X10724048Y-13168524D01*
X10714524Y-13187571D01*
X10714524Y-13235190D01*
X10724048Y-13254238D01*
X10733571Y-13263762D01*
X10752619Y-13273286D01*
X10790714Y-13273286D01*
X10809762Y-13263762D01*
X10819286Y-13254238D01*
X10828810Y-13235190D01*
X11000238Y-13216143D02*
X11000238Y-13349476D01*
X10952619Y-13139952D02*
X10905000Y-13282809D01*
X11028810Y-13282809D01*
X11095476Y-13149476D02*
X11095476Y-13187571D01*
X11171667Y-13149476D02*
X11171667Y-13187571D01*
X11466905Y-13425667D02*
X11457381Y-13416143D01*
X11438333Y-13387571D01*
X11428809Y-13368524D01*
X11419286Y-13339952D01*
X11409762Y-13292333D01*
X11409762Y-13254238D01*
X11419286Y-13206619D01*
X11428809Y-13178048D01*
X11438333Y-13159000D01*
X11457381Y-13130428D01*
X11466905Y-13120905D01*
X11628809Y-13216143D02*
X11628809Y-13349476D01*
X11581190Y-13139952D02*
X11533571Y-13282809D01*
X11657381Y-13282809D01*
X11885952Y-13349476D02*
X11885952Y-13149476D01*
X11971667Y-13349476D02*
X11971667Y-13244714D01*
X11962143Y-13225667D01*
X11943095Y-13216143D01*
X11914524Y-13216143D01*
X11895476Y-13225667D01*
X11885952Y-13235190D01*
X12095476Y-13349476D02*
X12076428Y-13339952D01*
X12066905Y-13330428D01*
X12057381Y-13311381D01*
X12057381Y-13254238D01*
X12066905Y-13235190D01*
X12076428Y-13225667D01*
X12095476Y-13216143D01*
X12124048Y-13216143D01*
X12143095Y-13225667D01*
X12152619Y-13235190D01*
X12162143Y-13254238D01*
X12162143Y-13311381D01*
X12152619Y-13330428D01*
X12143095Y-13339952D01*
X12124048Y-13349476D01*
X12095476Y-13349476D01*
X12276428Y-13349476D02*
X12257381Y-13339952D01*
X12247857Y-13320905D01*
X12247857Y-13149476D01*
X12428809Y-13339952D02*
X12409762Y-13349476D01*
X12371667Y-13349476D01*
X12352619Y-13339952D01*
X12343095Y-13320905D01*
X12343095Y-13244714D01*
X12352619Y-13225667D01*
X12371667Y-13216143D01*
X12409762Y-13216143D01*
X12428809Y-13225667D01*
X12438333Y-13244714D01*
X12438333Y-13263762D01*
X12343095Y-13282809D01*
X12514524Y-13339952D02*
X12533571Y-13349476D01*
X12571667Y-13349476D01*
X12590714Y-13339952D01*
X12600238Y-13320905D01*
X12600238Y-13311381D01*
X12590714Y-13292333D01*
X12571667Y-13282809D01*
X12543095Y-13282809D01*
X12524048Y-13273286D01*
X12514524Y-13254238D01*
X12514524Y-13244714D01*
X12524048Y-13225667D01*
X12543095Y-13216143D01*
X12571667Y-13216143D01*
X12590714Y-13225667D01*
X12666905Y-13425667D02*
X12676428Y-13416143D01*
X12695476Y-13387571D01*
X12705000Y-13368524D01*
X12714524Y-13339952D01*
X12724048Y-13292333D01*
X12724048Y-13254238D01*
X12714524Y-13206619D01*
X12705000Y-13178048D01*
X12695476Y-13159000D01*
X12676428Y-13130428D01*
X12666905Y-13120905D01*
D13*
X7844000Y-13472000D02*
X7844000Y-13574000D01*
X7793000Y-13523000D02*
X7895000Y-13523000D01*
D11*
X8257381Y-13613476D02*
X8143095Y-13613476D01*
X8200238Y-13613476D02*
X8200238Y-13413476D01*
X8181190Y-13442048D01*
X8162143Y-13461095D01*
X8143095Y-13470619D01*
X8343095Y-13594428D02*
X8352619Y-13603952D01*
X8343095Y-13613476D01*
X8333571Y-13603952D01*
X8343095Y-13594428D01*
X8343095Y-13613476D01*
X8476429Y-13413476D02*
X8495476Y-13413476D01*
X8514524Y-13423000D01*
X8524048Y-13432524D01*
X8533571Y-13451571D01*
X8543095Y-13489667D01*
X8543095Y-13537286D01*
X8533571Y-13575381D01*
X8524048Y-13594428D01*
X8514524Y-13603952D01*
X8495476Y-13613476D01*
X8476429Y-13613476D01*
X8457381Y-13603952D01*
X8447857Y-13594428D01*
X8438333Y-13575381D01*
X8428810Y-13537286D01*
X8428810Y-13489667D01*
X8438333Y-13451571D01*
X8447857Y-13432524D01*
X8457381Y-13423000D01*
X8476429Y-13413476D01*
X8619286Y-13432524D02*
X8628810Y-13423000D01*
X8647857Y-13413476D01*
X8695476Y-13413476D01*
X8714524Y-13423000D01*
X8724048Y-13432524D01*
X8733571Y-13451571D01*
X8733571Y-13470619D01*
X8724048Y-13499190D01*
X8609762Y-13613476D01*
X8733571Y-13613476D01*
X8857381Y-13413476D02*
X8876429Y-13413476D01*
X8895476Y-13423000D01*
X8905000Y-13432524D01*
X8914524Y-13451571D01*
X8924048Y-13489667D01*
X8924048Y-13537286D01*
X8914524Y-13575381D01*
X8905000Y-13594428D01*
X8895476Y-13603952D01*
X8876429Y-13613476D01*
X8857381Y-13613476D01*
X8838333Y-13603952D01*
X8828810Y-13594428D01*
X8819286Y-13575381D01*
X8809762Y-13537286D01*
X8809762Y-13489667D01*
X8819286Y-13451571D01*
X8828810Y-13432524D01*
X8838333Y-13423000D01*
X8857381Y-13413476D01*
X9009762Y-13613476D02*
X9009762Y-13480143D01*
X9009762Y-13499190D02*
X9019286Y-13489667D01*
X9038333Y-13480143D01*
X9066905Y-13480143D01*
X9085952Y-13489667D01*
X9095476Y-13508714D01*
X9095476Y-13613476D01*
X9095476Y-13508714D02*
X9105000Y-13489667D01*
X9124048Y-13480143D01*
X9152619Y-13480143D01*
X9171667Y-13489667D01*
X9181190Y-13508714D01*
X9181190Y-13613476D01*
X9276429Y-13613476D02*
X9276429Y-13480143D01*
X9276429Y-13499190D02*
X9285952Y-13489667D01*
X9305000Y-13480143D01*
X9333571Y-13480143D01*
X9352619Y-13489667D01*
X9362143Y-13508714D01*
X9362143Y-13613476D01*
X9362143Y-13508714D02*
X9371667Y-13489667D01*
X9390714Y-13480143D01*
X9419286Y-13480143D01*
X9438333Y-13489667D01*
X9447857Y-13508714D01*
X9447857Y-13613476D01*
X9838333Y-13403952D02*
X9666905Y-13661095D01*
X10095476Y-13413476D02*
X10114524Y-13413476D01*
X10133571Y-13423000D01*
X10143095Y-13432524D01*
X10152619Y-13451571D01*
X10162143Y-13489667D01*
X10162143Y-13537286D01*
X10152619Y-13575381D01*
X10143095Y-13594428D01*
X10133571Y-13603952D01*
X10114524Y-13613476D01*
X10095476Y-13613476D01*
X10076429Y-13603952D01*
X10066905Y-13594428D01*
X10057381Y-13575381D01*
X10047857Y-13537286D01*
X10047857Y-13489667D01*
X10057381Y-13451571D01*
X10066905Y-13432524D01*
X10076429Y-13423000D01*
X10095476Y-13413476D01*
X10247857Y-13594428D02*
X10257381Y-13603952D01*
X10247857Y-13613476D01*
X10238333Y-13603952D01*
X10247857Y-13594428D01*
X10247857Y-13613476D01*
X10381190Y-13413476D02*
X10400238Y-13413476D01*
X10419286Y-13423000D01*
X10428810Y-13432524D01*
X10438333Y-13451571D01*
X10447857Y-13489667D01*
X10447857Y-13537286D01*
X10438333Y-13575381D01*
X10428810Y-13594428D01*
X10419286Y-13603952D01*
X10400238Y-13613476D01*
X10381190Y-13613476D01*
X10362143Y-13603952D01*
X10352619Y-13594428D01*
X10343095Y-13575381D01*
X10333571Y-13537286D01*
X10333571Y-13489667D01*
X10343095Y-13451571D01*
X10352619Y-13432524D01*
X10362143Y-13423000D01*
X10381190Y-13413476D01*
X10619286Y-13480143D02*
X10619286Y-13613476D01*
X10571667Y-13403952D02*
X10524048Y-13546809D01*
X10647857Y-13546809D01*
X10762143Y-13413476D02*
X10781190Y-13413476D01*
X10800238Y-13423000D01*
X10809762Y-13432524D01*
X10819286Y-13451571D01*
X10828810Y-13489667D01*
X10828810Y-13537286D01*
X10819286Y-13575381D01*
X10809762Y-13594428D01*
X10800238Y-13603952D01*
X10781190Y-13613476D01*
X10762143Y-13613476D01*
X10743095Y-13603952D01*
X10733571Y-13594428D01*
X10724048Y-13575381D01*
X10714524Y-13537286D01*
X10714524Y-13489667D01*
X10724048Y-13451571D01*
X10733571Y-13432524D01*
X10743095Y-13423000D01*
X10762143Y-13413476D01*
X10905000Y-13432524D02*
X10914524Y-13423000D01*
X10933571Y-13413476D01*
X10981190Y-13413476D01*
X11000238Y-13423000D01*
X11009762Y-13432524D01*
X11019286Y-13451571D01*
X11019286Y-13470619D01*
X11009762Y-13499190D01*
X10895476Y-13613476D01*
X11019286Y-13613476D01*
X11095476Y-13413476D02*
X11095476Y-13451571D01*
X11171667Y-13413476D02*
X11171667Y-13451571D01*
X11466905Y-13689667D02*
X11457381Y-13680143D01*
X11438333Y-13651571D01*
X11428809Y-13632524D01*
X11419286Y-13603952D01*
X11409762Y-13556333D01*
X11409762Y-13518238D01*
X11419286Y-13470619D01*
X11428809Y-13442048D01*
X11438333Y-13423000D01*
X11457381Y-13394428D01*
X11466905Y-13384905D01*
X11571667Y-13499190D02*
X11552619Y-13489667D01*
X11543095Y-13480143D01*
X11533571Y-13461095D01*
X11533571Y-13451571D01*
X11543095Y-13432524D01*
X11552619Y-13423000D01*
X11571667Y-13413476D01*
X11609762Y-13413476D01*
X11628809Y-13423000D01*
X11638333Y-13432524D01*
X11647857Y-13451571D01*
X11647857Y-13461095D01*
X11638333Y-13480143D01*
X11628809Y-13489667D01*
X11609762Y-13499190D01*
X11571667Y-13499190D01*
X11552619Y-13508714D01*
X11543095Y-13518238D01*
X11533571Y-13537286D01*
X11533571Y-13575381D01*
X11543095Y-13594428D01*
X11552619Y-13603952D01*
X11571667Y-13613476D01*
X11609762Y-13613476D01*
X11628809Y-13603952D01*
X11638333Y-13594428D01*
X11647857Y-13575381D01*
X11647857Y-13537286D01*
X11638333Y-13518238D01*
X11628809Y-13508714D01*
X11609762Y-13499190D01*
X11885952Y-13613476D02*
X11885952Y-13413476D01*
X11971667Y-13613476D02*
X11971667Y-13508714D01*
X11962143Y-13489667D01*
X11943095Y-13480143D01*
X11914524Y-13480143D01*
X11895476Y-13489667D01*
X11885952Y-13499190D01*
X12095476Y-13613476D02*
X12076428Y-13603952D01*
X12066905Y-13594428D01*
X12057381Y-13575381D01*
X12057381Y-13518238D01*
X12066905Y-13499190D01*
X12076428Y-13489667D01*
X12095476Y-13480143D01*
X12124048Y-13480143D01*
X12143095Y-13489667D01*
X12152619Y-13499190D01*
X12162143Y-13518238D01*
X12162143Y-13575381D01*
X12152619Y-13594428D01*
X12143095Y-13603952D01*
X12124048Y-13613476D01*
X12095476Y-13613476D01*
X12276428Y-13613476D02*
X12257381Y-13603952D01*
X12247857Y-13584905D01*
X12247857Y-13413476D01*
X12428809Y-13603952D02*
X12409762Y-13613476D01*
X12371667Y-13613476D01*
X12352619Y-13603952D01*
X12343095Y-13584905D01*
X12343095Y-13508714D01*
X12352619Y-13489667D01*
X12371667Y-13480143D01*
X12409762Y-13480143D01*
X12428809Y-13489667D01*
X12438333Y-13508714D01*
X12438333Y-13527762D01*
X12343095Y-13546809D01*
X12514524Y-13603952D02*
X12533571Y-13613476D01*
X12571667Y-13613476D01*
X12590714Y-13603952D01*
X12600238Y-13584905D01*
X12600238Y-13575381D01*
X12590714Y-13556333D01*
X12571667Y-13546809D01*
X12543095Y-13546809D01*
X12524048Y-13537286D01*
X12514524Y-13518238D01*
X12514524Y-13508714D01*
X12524048Y-13489667D01*
X12543095Y-13480143D01*
X12571667Y-13480143D01*
X12590714Y-13489667D01*
X12666905Y-13689667D02*
X12676428Y-13680143D01*
X12695476Y-13651571D01*
X12705000Y-13632524D01*
X12714524Y-13603952D01*
X12724048Y-13556333D01*
X12724048Y-13518238D01*
X12714524Y-13470619D01*
X12705000Y-13442048D01*
X12695476Y-13423000D01*
X12676428Y-13394428D01*
X12666905Y-13384905D01*
D14*
X7879624Y-13824123D02*
X7879624Y-13749877D01*
X7805378Y-13749877D01*
X7805378Y-13824123D01*
X7879624Y-13824123D01*
D11*
X8257381Y-13877476D02*
X8143095Y-13877476D01*
X8200238Y-13877476D02*
X8200238Y-13677476D01*
X8181190Y-13706048D01*
X8162143Y-13725095D01*
X8143095Y-13734619D01*
X8343095Y-13858428D02*
X8352619Y-13867952D01*
X8343095Y-13877476D01*
X8333571Y-13867952D01*
X8343095Y-13858428D01*
X8343095Y-13877476D01*
X8476429Y-13677476D02*
X8495476Y-13677476D01*
X8514524Y-13687000D01*
X8524048Y-13696524D01*
X8533571Y-13715571D01*
X8543095Y-13753667D01*
X8543095Y-13801286D01*
X8533571Y-13839381D01*
X8524048Y-13858428D01*
X8514524Y-13867952D01*
X8495476Y-13877476D01*
X8476429Y-13877476D01*
X8457381Y-13867952D01*
X8447857Y-13858428D01*
X8438333Y-13839381D01*
X8428810Y-13801286D01*
X8428810Y-13753667D01*
X8438333Y-13715571D01*
X8447857Y-13696524D01*
X8457381Y-13687000D01*
X8476429Y-13677476D01*
X8724048Y-13677476D02*
X8628810Y-13677476D01*
X8619286Y-13772714D01*
X8628810Y-13763190D01*
X8647857Y-13753667D01*
X8695476Y-13753667D01*
X8714524Y-13763190D01*
X8724048Y-13772714D01*
X8733571Y-13791762D01*
X8733571Y-13839381D01*
X8724048Y-13858428D01*
X8714524Y-13867952D01*
X8695476Y-13877476D01*
X8647857Y-13877476D01*
X8628810Y-13867952D01*
X8619286Y-13858428D01*
X8857381Y-13677476D02*
X8876429Y-13677476D01*
X8895476Y-13687000D01*
X8905000Y-13696524D01*
X8914524Y-13715571D01*
X8924048Y-13753667D01*
X8924048Y-13801286D01*
X8914524Y-13839381D01*
X8905000Y-13858428D01*
X8895476Y-13867952D01*
X8876429Y-13877476D01*
X8857381Y-13877476D01*
X8838333Y-13867952D01*
X8828810Y-13858428D01*
X8819286Y-13839381D01*
X8809762Y-13801286D01*
X8809762Y-13753667D01*
X8819286Y-13715571D01*
X8828810Y-13696524D01*
X8838333Y-13687000D01*
X8857381Y-13677476D01*
X9009762Y-13877476D02*
X9009762Y-13744143D01*
X9009762Y-13763190D02*
X9019286Y-13753667D01*
X9038333Y-13744143D01*
X9066905Y-13744143D01*
X9085952Y-13753667D01*
X9095476Y-13772714D01*
X9095476Y-13877476D01*
X9095476Y-13772714D02*
X9105000Y-13753667D01*
X9124048Y-13744143D01*
X9152619Y-13744143D01*
X9171667Y-13753667D01*
X9181190Y-13772714D01*
X9181190Y-13877476D01*
X9276429Y-13877476D02*
X9276429Y-13744143D01*
X9276429Y-13763190D02*
X9285952Y-13753667D01*
X9305000Y-13744143D01*
X9333571Y-13744143D01*
X9352619Y-13753667D01*
X9362143Y-13772714D01*
X9362143Y-13877476D01*
X9362143Y-13772714D02*
X9371667Y-13753667D01*
X9390714Y-13744143D01*
X9419286Y-13744143D01*
X9438333Y-13753667D01*
X9447857Y-13772714D01*
X9447857Y-13877476D01*
X9838333Y-13667952D02*
X9666905Y-13925095D01*
X10095476Y-13677476D02*
X10114524Y-13677476D01*
X10133571Y-13687000D01*
X10143095Y-13696524D01*
X10152619Y-13715571D01*
X10162143Y-13753667D01*
X10162143Y-13801286D01*
X10152619Y-13839381D01*
X10143095Y-13858428D01*
X10133571Y-13867952D01*
X10114524Y-13877476D01*
X10095476Y-13877476D01*
X10076429Y-13867952D01*
X10066905Y-13858428D01*
X10057381Y-13839381D01*
X10047857Y-13801286D01*
X10047857Y-13753667D01*
X10057381Y-13715571D01*
X10066905Y-13696524D01*
X10076429Y-13687000D01*
X10095476Y-13677476D01*
X10247857Y-13858428D02*
X10257381Y-13867952D01*
X10247857Y-13877476D01*
X10238333Y-13867952D01*
X10247857Y-13858428D01*
X10247857Y-13877476D01*
X10381190Y-13677476D02*
X10400238Y-13677476D01*
X10419286Y-13687000D01*
X10428810Y-13696524D01*
X10438333Y-13715571D01*
X10447857Y-13753667D01*
X10447857Y-13801286D01*
X10438333Y-13839381D01*
X10428810Y-13858428D01*
X10419286Y-13867952D01*
X10400238Y-13877476D01*
X10381190Y-13877476D01*
X10362143Y-13867952D01*
X10352619Y-13858428D01*
X10343095Y-13839381D01*
X10333571Y-13801286D01*
X10333571Y-13753667D01*
X10343095Y-13715571D01*
X10352619Y-13696524D01*
X10362143Y-13687000D01*
X10381190Y-13677476D01*
X10619286Y-13744143D02*
X10619286Y-13877476D01*
X10571667Y-13667952D02*
X10524048Y-13810809D01*
X10647857Y-13810809D01*
X10828810Y-13877476D02*
X10714524Y-13877476D01*
X10771667Y-13877476D02*
X10771667Y-13677476D01*
X10752619Y-13706048D01*
X10733571Y-13725095D01*
X10714524Y-13734619D01*
X10895476Y-13677476D02*
X11019286Y-13677476D01*
X10952619Y-13753667D01*
X10981190Y-13753667D01*
X11000238Y-13763190D01*
X11009762Y-13772714D01*
X11019286Y-13791762D01*
X11019286Y-13839381D01*
X11009762Y-13858428D01*
X11000238Y-13867952D01*
X10981190Y-13877476D01*
X10924048Y-13877476D01*
X10905000Y-13867952D01*
X10895476Y-13858428D01*
X11095476Y-13677476D02*
X11095476Y-13715571D01*
X11171667Y-13677476D02*
X11171667Y-13715571D01*
X11466905Y-13953667D02*
X11457381Y-13944143D01*
X11438333Y-13915571D01*
X11428809Y-13896524D01*
X11419286Y-13867952D01*
X11409762Y-13820333D01*
X11409762Y-13782238D01*
X11419286Y-13734619D01*
X11428809Y-13706048D01*
X11438333Y-13687000D01*
X11457381Y-13658428D01*
X11466905Y-13648905D01*
X11533571Y-13696524D02*
X11543095Y-13687000D01*
X11562143Y-13677476D01*
X11609762Y-13677476D01*
X11628809Y-13687000D01*
X11638333Y-13696524D01*
X11647857Y-13715571D01*
X11647857Y-13734619D01*
X11638333Y-13763190D01*
X11524048Y-13877476D01*
X11647857Y-13877476D01*
X11885952Y-13877476D02*
X11885952Y-13677476D01*
X11971667Y-13877476D02*
X11971667Y-13772714D01*
X11962143Y-13753667D01*
X11943095Y-13744143D01*
X11914524Y-13744143D01*
X11895476Y-13753667D01*
X11885952Y-13763190D01*
X12095476Y-13877476D02*
X12076428Y-13867952D01*
X12066905Y-13858428D01*
X12057381Y-13839381D01*
X12057381Y-13782238D01*
X12066905Y-13763190D01*
X12076428Y-13753667D01*
X12095476Y-13744143D01*
X12124048Y-13744143D01*
X12143095Y-13753667D01*
X12152619Y-13763190D01*
X12162143Y-13782238D01*
X12162143Y-13839381D01*
X12152619Y-13858428D01*
X12143095Y-13867952D01*
X12124048Y-13877476D01*
X12095476Y-13877476D01*
X12276428Y-13877476D02*
X12257381Y-13867952D01*
X12247857Y-13848905D01*
X12247857Y-13677476D01*
X12428809Y-13867952D02*
X12409762Y-13877476D01*
X12371667Y-13877476D01*
X12352619Y-13867952D01*
X12343095Y-13848905D01*
X12343095Y-13772714D01*
X12352619Y-13753667D01*
X12371667Y-13744143D01*
X12409762Y-13744143D01*
X12428809Y-13753667D01*
X12438333Y-13772714D01*
X12438333Y-13791762D01*
X12343095Y-13810809D01*
X12514524Y-13867952D02*
X12533571Y-13877476D01*
X12571667Y-13877476D01*
X12590714Y-13867952D01*
X12600238Y-13848905D01*
X12600238Y-13839381D01*
X12590714Y-13820333D01*
X12571667Y-13810809D01*
X12543095Y-13810809D01*
X12524048Y-13801286D01*
X12514524Y-13782238D01*
X12514524Y-13772714D01*
X12524048Y-13753667D01*
X12543095Y-13744143D01*
X12571667Y-13744143D01*
X12590714Y-13753667D01*
X12666905Y-13953667D02*
X12676428Y-13944143D01*
X12695476Y-13915571D01*
X12705000Y-13896524D01*
X12714524Y-13867952D01*
X12724048Y-13820333D01*
X12724048Y-13782238D01*
X12714524Y-13734619D01*
X12705000Y-13706048D01*
X12695476Y-13687000D01*
X12676428Y-13658428D01*
X12666905Y-13648905D01*
M02*
