%TF.GenerationSoftware,KiCad,Pcbnew,(6.0.7-1)-1*%
%TF.CreationDate,2022-12-12T00:26:39-05:00*%
%TF.ProjectId,HVPCB,48565043-422e-46b6-9963-61645f706362,rev?*%
%TF.SameCoordinates,Original*%
%TF.FileFunction,Drillmap*%
%TF.FilePolarity,Positive*%
%FSLAX45Y45*%
G04 Gerber Fmt 4.5, Leading zero omitted, Abs format (unit mm)*
G04 Created by KiCad (PCBNEW (6.0.7-1)-1) date 2022-12-12 00:26:39*
%MOMM*%
%LPD*%
G01*
G04 APERTURE LIST*
%ADD10C,0.100000*%
%ADD11C,0.200000*%
%ADD12C,0.300000*%
%ADD13C,0.420000*%
G04 APERTURE END LIST*
D10*
X21900000Y-6850000D02*
X21900000Y-11850000D01*
X8400000Y-6350000D02*
X21400000Y-6350000D01*
X7900000Y-11850000D02*
G75*
G03*
X8400000Y-12350000I500000J0D01*
G01*
X8400000Y-6350000D02*
G75*
G03*
X7900000Y-6850000I0J-500000D01*
G01*
X7900000Y-11850000D02*
X7900000Y-6850000D01*
X21400000Y-12350000D02*
G75*
G03*
X21900000Y-11850000I0J500000D01*
G01*
X21900000Y-6850000D02*
G75*
G03*
X21400000Y-6350000I-500000J0D01*
G01*
X21400000Y-12350000D02*
X8400000Y-12350000D01*
D11*
D12*
X7977389Y-9232553D02*
X8277389Y-9532553D01*
X8277389Y-9232553D02*
X7977389Y-9532553D01*
X21432000Y-8375000D02*
X21732000Y-8675000D01*
X21732000Y-8375000D02*
X21432000Y-8675000D01*
X21432000Y-10045000D02*
X21732000Y-10345000D01*
X21732000Y-10045000D02*
X21432000Y-10345000D01*
D13*
X8610000Y-6850000D02*
G75*
G03*
X8610000Y-6850000I-210000J0D01*
G01*
X8610000Y-11850000D02*
G75*
G03*
X8610000Y-11850000I-210000J0D01*
G01*
X15935000Y-6850000D02*
G75*
G03*
X15935000Y-6850000I-210000J0D01*
G01*
X15935000Y-11850000D02*
G75*
G03*
X15935000Y-11850000I-210000J0D01*
G01*
X21610000Y-6850000D02*
G75*
G03*
X21610000Y-6850000I-210000J0D01*
G01*
X21610000Y-11850000D02*
G75*
G03*
X21610000Y-11850000I-210000J0D01*
G01*
D11*
X8152619Y-12665476D02*
X8152619Y-12465476D01*
X8200238Y-12465476D01*
X8228809Y-12475000D01*
X8247857Y-12494048D01*
X8257381Y-12513095D01*
X8266905Y-12551190D01*
X8266905Y-12579762D01*
X8257381Y-12617857D01*
X8247857Y-12636905D01*
X8228809Y-12655952D01*
X8200238Y-12665476D01*
X8152619Y-12665476D01*
X8352619Y-12665476D02*
X8352619Y-12532143D01*
X8352619Y-12570238D02*
X8362143Y-12551190D01*
X8371667Y-12541667D01*
X8390714Y-12532143D01*
X8409762Y-12532143D01*
X8476429Y-12665476D02*
X8476429Y-12532143D01*
X8476429Y-12465476D02*
X8466905Y-12475000D01*
X8476429Y-12484524D01*
X8485952Y-12475000D01*
X8476429Y-12465476D01*
X8476429Y-12484524D01*
X8600238Y-12665476D02*
X8581190Y-12655952D01*
X8571667Y-12636905D01*
X8571667Y-12465476D01*
X8705000Y-12665476D02*
X8685952Y-12655952D01*
X8676429Y-12636905D01*
X8676429Y-12465476D01*
X8933571Y-12665476D02*
X8933571Y-12465476D01*
X9000238Y-12608333D01*
X9066905Y-12465476D01*
X9066905Y-12665476D01*
X9247857Y-12665476D02*
X9247857Y-12560714D01*
X9238333Y-12541667D01*
X9219286Y-12532143D01*
X9181190Y-12532143D01*
X9162143Y-12541667D01*
X9247857Y-12655952D02*
X9228810Y-12665476D01*
X9181190Y-12665476D01*
X9162143Y-12655952D01*
X9152619Y-12636905D01*
X9152619Y-12617857D01*
X9162143Y-12598809D01*
X9181190Y-12589286D01*
X9228810Y-12589286D01*
X9247857Y-12579762D01*
X9343095Y-12532143D02*
X9343095Y-12732143D01*
X9343095Y-12541667D02*
X9362143Y-12532143D01*
X9400238Y-12532143D01*
X9419286Y-12541667D01*
X9428810Y-12551190D01*
X9438333Y-12570238D01*
X9438333Y-12627381D01*
X9428810Y-12646428D01*
X9419286Y-12655952D01*
X9400238Y-12665476D01*
X9362143Y-12665476D01*
X9343095Y-12655952D01*
X9524048Y-12646428D02*
X9533571Y-12655952D01*
X9524048Y-12665476D01*
X9514524Y-12655952D01*
X9524048Y-12646428D01*
X9524048Y-12665476D01*
X9524048Y-12541667D02*
X9533571Y-12551190D01*
X9524048Y-12560714D01*
X9514524Y-12551190D01*
X9524048Y-12541667D01*
X9524048Y-12560714D01*
X7695000Y-12895000D02*
X7895000Y-13095000D01*
X7895000Y-12895000D02*
X7695000Y-13095000D01*
X8133571Y-12885476D02*
X8257381Y-12885476D01*
X8190714Y-12961667D01*
X8219286Y-12961667D01*
X8238333Y-12971190D01*
X8247857Y-12980714D01*
X8257381Y-12999762D01*
X8257381Y-13047381D01*
X8247857Y-13066428D01*
X8238333Y-13075952D01*
X8219286Y-13085476D01*
X8162143Y-13085476D01*
X8143095Y-13075952D01*
X8133571Y-13066428D01*
X8343095Y-13066428D02*
X8352619Y-13075952D01*
X8343095Y-13085476D01*
X8333571Y-13075952D01*
X8343095Y-13066428D01*
X8343095Y-13085476D01*
X8476429Y-12885476D02*
X8495476Y-12885476D01*
X8514524Y-12895000D01*
X8524048Y-12904524D01*
X8533571Y-12923571D01*
X8543095Y-12961667D01*
X8543095Y-13009286D01*
X8533571Y-13047381D01*
X8524048Y-13066428D01*
X8514524Y-13075952D01*
X8495476Y-13085476D01*
X8476429Y-13085476D01*
X8457381Y-13075952D01*
X8447857Y-13066428D01*
X8438333Y-13047381D01*
X8428810Y-13009286D01*
X8428810Y-12961667D01*
X8438333Y-12923571D01*
X8447857Y-12904524D01*
X8457381Y-12895000D01*
X8476429Y-12885476D01*
X8666905Y-12885476D02*
X8685952Y-12885476D01*
X8705000Y-12895000D01*
X8714524Y-12904524D01*
X8724048Y-12923571D01*
X8733571Y-12961667D01*
X8733571Y-13009286D01*
X8724048Y-13047381D01*
X8714524Y-13066428D01*
X8705000Y-13075952D01*
X8685952Y-13085476D01*
X8666905Y-13085476D01*
X8647857Y-13075952D01*
X8638333Y-13066428D01*
X8628810Y-13047381D01*
X8619286Y-13009286D01*
X8619286Y-12961667D01*
X8628810Y-12923571D01*
X8638333Y-12904524D01*
X8647857Y-12895000D01*
X8666905Y-12885476D01*
X8857381Y-12885476D02*
X8876429Y-12885476D01*
X8895476Y-12895000D01*
X8905000Y-12904524D01*
X8914524Y-12923571D01*
X8924048Y-12961667D01*
X8924048Y-13009286D01*
X8914524Y-13047381D01*
X8905000Y-13066428D01*
X8895476Y-13075952D01*
X8876429Y-13085476D01*
X8857381Y-13085476D01*
X8838333Y-13075952D01*
X8828810Y-13066428D01*
X8819286Y-13047381D01*
X8809762Y-13009286D01*
X8809762Y-12961667D01*
X8819286Y-12923571D01*
X8828810Y-12904524D01*
X8838333Y-12895000D01*
X8857381Y-12885476D01*
X9009762Y-13085476D02*
X9009762Y-12952143D01*
X9009762Y-12971190D02*
X9019286Y-12961667D01*
X9038333Y-12952143D01*
X9066905Y-12952143D01*
X9085952Y-12961667D01*
X9095476Y-12980714D01*
X9095476Y-13085476D01*
X9095476Y-12980714D02*
X9105000Y-12961667D01*
X9124048Y-12952143D01*
X9152619Y-12952143D01*
X9171667Y-12961667D01*
X9181190Y-12980714D01*
X9181190Y-13085476D01*
X9276429Y-13085476D02*
X9276429Y-12952143D01*
X9276429Y-12971190D02*
X9285952Y-12961667D01*
X9305000Y-12952143D01*
X9333571Y-12952143D01*
X9352619Y-12961667D01*
X9362143Y-12980714D01*
X9362143Y-13085476D01*
X9362143Y-12980714D02*
X9371667Y-12961667D01*
X9390714Y-12952143D01*
X9419286Y-12952143D01*
X9438333Y-12961667D01*
X9447857Y-12980714D01*
X9447857Y-13085476D01*
X9838333Y-12875952D02*
X9666905Y-13133095D01*
X10095476Y-12885476D02*
X10114524Y-12885476D01*
X10133571Y-12895000D01*
X10143095Y-12904524D01*
X10152619Y-12923571D01*
X10162143Y-12961667D01*
X10162143Y-13009286D01*
X10152619Y-13047381D01*
X10143095Y-13066428D01*
X10133571Y-13075952D01*
X10114524Y-13085476D01*
X10095476Y-13085476D01*
X10076429Y-13075952D01*
X10066905Y-13066428D01*
X10057381Y-13047381D01*
X10047857Y-13009286D01*
X10047857Y-12961667D01*
X10057381Y-12923571D01*
X10066905Y-12904524D01*
X10076429Y-12895000D01*
X10095476Y-12885476D01*
X10247857Y-13066428D02*
X10257381Y-13075952D01*
X10247857Y-13085476D01*
X10238333Y-13075952D01*
X10247857Y-13066428D01*
X10247857Y-13085476D01*
X10447857Y-13085476D02*
X10333571Y-13085476D01*
X10390714Y-13085476D02*
X10390714Y-12885476D01*
X10371667Y-12914048D01*
X10352619Y-12933095D01*
X10333571Y-12942619D01*
X10638333Y-13085476D02*
X10524048Y-13085476D01*
X10581190Y-13085476D02*
X10581190Y-12885476D01*
X10562143Y-12914048D01*
X10543095Y-12933095D01*
X10524048Y-12942619D01*
X10752619Y-12971190D02*
X10733571Y-12961667D01*
X10724048Y-12952143D01*
X10714524Y-12933095D01*
X10714524Y-12923571D01*
X10724048Y-12904524D01*
X10733571Y-12895000D01*
X10752619Y-12885476D01*
X10790714Y-12885476D01*
X10809762Y-12895000D01*
X10819286Y-12904524D01*
X10828810Y-12923571D01*
X10828810Y-12933095D01*
X10819286Y-12952143D01*
X10809762Y-12961667D01*
X10790714Y-12971190D01*
X10752619Y-12971190D01*
X10733571Y-12980714D01*
X10724048Y-12990238D01*
X10714524Y-13009286D01*
X10714524Y-13047381D01*
X10724048Y-13066428D01*
X10733571Y-13075952D01*
X10752619Y-13085476D01*
X10790714Y-13085476D01*
X10809762Y-13075952D01*
X10819286Y-13066428D01*
X10828810Y-13047381D01*
X10828810Y-13009286D01*
X10819286Y-12990238D01*
X10809762Y-12980714D01*
X10790714Y-12971190D01*
X11019286Y-13085476D02*
X10905000Y-13085476D01*
X10962143Y-13085476D02*
X10962143Y-12885476D01*
X10943095Y-12914048D01*
X10924048Y-12933095D01*
X10905000Y-12942619D01*
X11095476Y-12885476D02*
X11095476Y-12923571D01*
X11171667Y-12885476D02*
X11171667Y-12923571D01*
X11466905Y-13161667D02*
X11457381Y-13152143D01*
X11438333Y-13123571D01*
X11428809Y-13104524D01*
X11419286Y-13075952D01*
X11409762Y-13028333D01*
X11409762Y-12990238D01*
X11419286Y-12942619D01*
X11428809Y-12914048D01*
X11438333Y-12895000D01*
X11457381Y-12866428D01*
X11466905Y-12856905D01*
X11524048Y-12885476D02*
X11647857Y-12885476D01*
X11581190Y-12961667D01*
X11609762Y-12961667D01*
X11628809Y-12971190D01*
X11638333Y-12980714D01*
X11647857Y-12999762D01*
X11647857Y-13047381D01*
X11638333Y-13066428D01*
X11628809Y-13075952D01*
X11609762Y-13085476D01*
X11552619Y-13085476D01*
X11533571Y-13075952D01*
X11524048Y-13066428D01*
X11885952Y-13085476D02*
X11885952Y-12885476D01*
X11971667Y-13085476D02*
X11971667Y-12980714D01*
X11962143Y-12961667D01*
X11943095Y-12952143D01*
X11914524Y-12952143D01*
X11895476Y-12961667D01*
X11885952Y-12971190D01*
X12095476Y-13085476D02*
X12076428Y-13075952D01*
X12066905Y-13066428D01*
X12057381Y-13047381D01*
X12057381Y-12990238D01*
X12066905Y-12971190D01*
X12076428Y-12961667D01*
X12095476Y-12952143D01*
X12124048Y-12952143D01*
X12143095Y-12961667D01*
X12152619Y-12971190D01*
X12162143Y-12990238D01*
X12162143Y-13047381D01*
X12152619Y-13066428D01*
X12143095Y-13075952D01*
X12124048Y-13085476D01*
X12095476Y-13085476D01*
X12276428Y-13085476D02*
X12257381Y-13075952D01*
X12247857Y-13056905D01*
X12247857Y-12885476D01*
X12428809Y-13075952D02*
X12409762Y-13085476D01*
X12371667Y-13085476D01*
X12352619Y-13075952D01*
X12343095Y-13056905D01*
X12343095Y-12980714D01*
X12352619Y-12961667D01*
X12371667Y-12952143D01*
X12409762Y-12952143D01*
X12428809Y-12961667D01*
X12438333Y-12980714D01*
X12438333Y-12999762D01*
X12343095Y-13018809D01*
X12514524Y-13075952D02*
X12533571Y-13085476D01*
X12571667Y-13085476D01*
X12590714Y-13075952D01*
X12600238Y-13056905D01*
X12600238Y-13047381D01*
X12590714Y-13028333D01*
X12571667Y-13018809D01*
X12543095Y-13018809D01*
X12524048Y-13009286D01*
X12514524Y-12990238D01*
X12514524Y-12980714D01*
X12524048Y-12961667D01*
X12543095Y-12952143D01*
X12571667Y-12952143D01*
X12590714Y-12961667D01*
X12666905Y-13161667D02*
X12676428Y-13152143D01*
X12695476Y-13123571D01*
X12705000Y-13104524D01*
X12714524Y-13075952D01*
X12724048Y-13028333D01*
X12724048Y-12990238D01*
X12714524Y-12942619D01*
X12705000Y-12914048D01*
X12695476Y-12895000D01*
X12676428Y-12866428D01*
X12666905Y-12856905D01*
X13028809Y-13161667D02*
X13019286Y-13152143D01*
X13000238Y-13123571D01*
X12990714Y-13104524D01*
X12981190Y-13075952D01*
X12971667Y-13028333D01*
X12971667Y-12990238D01*
X12981190Y-12942619D01*
X12990714Y-12914048D01*
X13000238Y-12895000D01*
X13019286Y-12866428D01*
X13028809Y-12856905D01*
X13105000Y-12952143D02*
X13105000Y-13085476D01*
X13105000Y-12971190D02*
X13114524Y-12961667D01*
X13133571Y-12952143D01*
X13162143Y-12952143D01*
X13181190Y-12961667D01*
X13190714Y-12980714D01*
X13190714Y-13085476D01*
X13314524Y-13085476D02*
X13295476Y-13075952D01*
X13285952Y-13066428D01*
X13276428Y-13047381D01*
X13276428Y-12990238D01*
X13285952Y-12971190D01*
X13295476Y-12961667D01*
X13314524Y-12952143D01*
X13343095Y-12952143D01*
X13362143Y-12961667D01*
X13371667Y-12971190D01*
X13381190Y-12990238D01*
X13381190Y-13047381D01*
X13371667Y-13066428D01*
X13362143Y-13075952D01*
X13343095Y-13085476D01*
X13314524Y-13085476D01*
X13438333Y-12952143D02*
X13514524Y-12952143D01*
X13466905Y-12885476D02*
X13466905Y-13056905D01*
X13476428Y-13075952D01*
X13495476Y-13085476D01*
X13514524Y-13085476D01*
X13733571Y-12952143D02*
X13733571Y-13152143D01*
X13733571Y-12961667D02*
X13752619Y-12952143D01*
X13790714Y-12952143D01*
X13809762Y-12961667D01*
X13819286Y-12971190D01*
X13828809Y-12990238D01*
X13828809Y-13047381D01*
X13819286Y-13066428D01*
X13809762Y-13075952D01*
X13790714Y-13085476D01*
X13752619Y-13085476D01*
X13733571Y-13075952D01*
X13943095Y-13085476D02*
X13924048Y-13075952D01*
X13914524Y-13056905D01*
X13914524Y-12885476D01*
X14105000Y-13085476D02*
X14105000Y-12980714D01*
X14095476Y-12961667D01*
X14076428Y-12952143D01*
X14038333Y-12952143D01*
X14019286Y-12961667D01*
X14105000Y-13075952D02*
X14085952Y-13085476D01*
X14038333Y-13085476D01*
X14019286Y-13075952D01*
X14009762Y-13056905D01*
X14009762Y-13037857D01*
X14019286Y-13018809D01*
X14038333Y-13009286D01*
X14085952Y-13009286D01*
X14105000Y-12999762D01*
X14171667Y-12952143D02*
X14247857Y-12952143D01*
X14200238Y-12885476D02*
X14200238Y-13056905D01*
X14209762Y-13075952D01*
X14228809Y-13085476D01*
X14247857Y-13085476D01*
X14390714Y-13075952D02*
X14371667Y-13085476D01*
X14333571Y-13085476D01*
X14314524Y-13075952D01*
X14305000Y-13056905D01*
X14305000Y-12980714D01*
X14314524Y-12961667D01*
X14333571Y-12952143D01*
X14371667Y-12952143D01*
X14390714Y-12961667D01*
X14400238Y-12980714D01*
X14400238Y-12999762D01*
X14305000Y-13018809D01*
X14571667Y-13085476D02*
X14571667Y-12885476D01*
X14571667Y-13075952D02*
X14552619Y-13085476D01*
X14514524Y-13085476D01*
X14495476Y-13075952D01*
X14485952Y-13066428D01*
X14476428Y-13047381D01*
X14476428Y-12990238D01*
X14485952Y-12971190D01*
X14495476Y-12961667D01*
X14514524Y-12952143D01*
X14552619Y-12952143D01*
X14571667Y-12961667D01*
X14647857Y-13161667D02*
X14657381Y-13152143D01*
X14676428Y-13123571D01*
X14685952Y-13104524D01*
X14695476Y-13075952D01*
X14705000Y-13028333D01*
X14705000Y-12990238D01*
X14695476Y-12942619D01*
X14685952Y-12914048D01*
X14676428Y-12895000D01*
X14657381Y-12866428D01*
X14647857Y-12856905D01*
X7895000Y-13315000D02*
G75*
G03*
X7895000Y-13315000I-100000J0D01*
G01*
X8238333Y-13272143D02*
X8238333Y-13405476D01*
X8190714Y-13195952D02*
X8143095Y-13338809D01*
X8266905Y-13338809D01*
X8343095Y-13386428D02*
X8352619Y-13395952D01*
X8343095Y-13405476D01*
X8333571Y-13395952D01*
X8343095Y-13386428D01*
X8343095Y-13405476D01*
X8428810Y-13224524D02*
X8438333Y-13215000D01*
X8457381Y-13205476D01*
X8505000Y-13205476D01*
X8524048Y-13215000D01*
X8533571Y-13224524D01*
X8543095Y-13243571D01*
X8543095Y-13262619D01*
X8533571Y-13291190D01*
X8419286Y-13405476D01*
X8543095Y-13405476D01*
X8666905Y-13205476D02*
X8685952Y-13205476D01*
X8705000Y-13215000D01*
X8714524Y-13224524D01*
X8724048Y-13243571D01*
X8733571Y-13281667D01*
X8733571Y-13329286D01*
X8724048Y-13367381D01*
X8714524Y-13386428D01*
X8705000Y-13395952D01*
X8685952Y-13405476D01*
X8666905Y-13405476D01*
X8647857Y-13395952D01*
X8638333Y-13386428D01*
X8628810Y-13367381D01*
X8619286Y-13329286D01*
X8619286Y-13281667D01*
X8628810Y-13243571D01*
X8638333Y-13224524D01*
X8647857Y-13215000D01*
X8666905Y-13205476D01*
X8857381Y-13205476D02*
X8876429Y-13205476D01*
X8895476Y-13215000D01*
X8905000Y-13224524D01*
X8914524Y-13243571D01*
X8924048Y-13281667D01*
X8924048Y-13329286D01*
X8914524Y-13367381D01*
X8905000Y-13386428D01*
X8895476Y-13395952D01*
X8876429Y-13405476D01*
X8857381Y-13405476D01*
X8838333Y-13395952D01*
X8828810Y-13386428D01*
X8819286Y-13367381D01*
X8809762Y-13329286D01*
X8809762Y-13281667D01*
X8819286Y-13243571D01*
X8828810Y-13224524D01*
X8838333Y-13215000D01*
X8857381Y-13205476D01*
X9009762Y-13405476D02*
X9009762Y-13272143D01*
X9009762Y-13291190D02*
X9019286Y-13281667D01*
X9038333Y-13272143D01*
X9066905Y-13272143D01*
X9085952Y-13281667D01*
X9095476Y-13300714D01*
X9095476Y-13405476D01*
X9095476Y-13300714D02*
X9105000Y-13281667D01*
X9124048Y-13272143D01*
X9152619Y-13272143D01*
X9171667Y-13281667D01*
X9181190Y-13300714D01*
X9181190Y-13405476D01*
X9276429Y-13405476D02*
X9276429Y-13272143D01*
X9276429Y-13291190D02*
X9285952Y-13281667D01*
X9305000Y-13272143D01*
X9333571Y-13272143D01*
X9352619Y-13281667D01*
X9362143Y-13300714D01*
X9362143Y-13405476D01*
X9362143Y-13300714D02*
X9371667Y-13281667D01*
X9390714Y-13272143D01*
X9419286Y-13272143D01*
X9438333Y-13281667D01*
X9447857Y-13300714D01*
X9447857Y-13405476D01*
X9838333Y-13195952D02*
X9666905Y-13453095D01*
X10095476Y-13205476D02*
X10114524Y-13205476D01*
X10133571Y-13215000D01*
X10143095Y-13224524D01*
X10152619Y-13243571D01*
X10162143Y-13281667D01*
X10162143Y-13329286D01*
X10152619Y-13367381D01*
X10143095Y-13386428D01*
X10133571Y-13395952D01*
X10114524Y-13405476D01*
X10095476Y-13405476D01*
X10076429Y-13395952D01*
X10066905Y-13386428D01*
X10057381Y-13367381D01*
X10047857Y-13329286D01*
X10047857Y-13281667D01*
X10057381Y-13243571D01*
X10066905Y-13224524D01*
X10076429Y-13215000D01*
X10095476Y-13205476D01*
X10247857Y-13386428D02*
X10257381Y-13395952D01*
X10247857Y-13405476D01*
X10238333Y-13395952D01*
X10247857Y-13386428D01*
X10247857Y-13405476D01*
X10447857Y-13405476D02*
X10333571Y-13405476D01*
X10390714Y-13405476D02*
X10390714Y-13205476D01*
X10371667Y-13234048D01*
X10352619Y-13253095D01*
X10333571Y-13262619D01*
X10619286Y-13205476D02*
X10581190Y-13205476D01*
X10562143Y-13215000D01*
X10552619Y-13224524D01*
X10533571Y-13253095D01*
X10524048Y-13291190D01*
X10524048Y-13367381D01*
X10533571Y-13386428D01*
X10543095Y-13395952D01*
X10562143Y-13405476D01*
X10600238Y-13405476D01*
X10619286Y-13395952D01*
X10628810Y-13386428D01*
X10638333Y-13367381D01*
X10638333Y-13319762D01*
X10628810Y-13300714D01*
X10619286Y-13291190D01*
X10600238Y-13281667D01*
X10562143Y-13281667D01*
X10543095Y-13291190D01*
X10533571Y-13300714D01*
X10524048Y-13319762D01*
X10819286Y-13205476D02*
X10724048Y-13205476D01*
X10714524Y-13300714D01*
X10724048Y-13291190D01*
X10743095Y-13281667D01*
X10790714Y-13281667D01*
X10809762Y-13291190D01*
X10819286Y-13300714D01*
X10828810Y-13319762D01*
X10828810Y-13367381D01*
X10819286Y-13386428D01*
X10809762Y-13395952D01*
X10790714Y-13405476D01*
X10743095Y-13405476D01*
X10724048Y-13395952D01*
X10714524Y-13386428D01*
X11000238Y-13272143D02*
X11000238Y-13405476D01*
X10952619Y-13195952D02*
X10905000Y-13338809D01*
X11028810Y-13338809D01*
X11095476Y-13205476D02*
X11095476Y-13243571D01*
X11171667Y-13205476D02*
X11171667Y-13243571D01*
X11466905Y-13481667D02*
X11457381Y-13472143D01*
X11438333Y-13443571D01*
X11428809Y-13424524D01*
X11419286Y-13395952D01*
X11409762Y-13348333D01*
X11409762Y-13310238D01*
X11419286Y-13262619D01*
X11428809Y-13234048D01*
X11438333Y-13215000D01*
X11457381Y-13186428D01*
X11466905Y-13176905D01*
X11628809Y-13205476D02*
X11590714Y-13205476D01*
X11571667Y-13215000D01*
X11562143Y-13224524D01*
X11543095Y-13253095D01*
X11533571Y-13291190D01*
X11533571Y-13367381D01*
X11543095Y-13386428D01*
X11552619Y-13395952D01*
X11571667Y-13405476D01*
X11609762Y-13405476D01*
X11628809Y-13395952D01*
X11638333Y-13386428D01*
X11647857Y-13367381D01*
X11647857Y-13319762D01*
X11638333Y-13300714D01*
X11628809Y-13291190D01*
X11609762Y-13281667D01*
X11571667Y-13281667D01*
X11552619Y-13291190D01*
X11543095Y-13300714D01*
X11533571Y-13319762D01*
X11885952Y-13405476D02*
X11885952Y-13205476D01*
X11971667Y-13405476D02*
X11971667Y-13300714D01*
X11962143Y-13281667D01*
X11943095Y-13272143D01*
X11914524Y-13272143D01*
X11895476Y-13281667D01*
X11885952Y-13291190D01*
X12095476Y-13405476D02*
X12076428Y-13395952D01*
X12066905Y-13386428D01*
X12057381Y-13367381D01*
X12057381Y-13310238D01*
X12066905Y-13291190D01*
X12076428Y-13281667D01*
X12095476Y-13272143D01*
X12124048Y-13272143D01*
X12143095Y-13281667D01*
X12152619Y-13291190D01*
X12162143Y-13310238D01*
X12162143Y-13367381D01*
X12152619Y-13386428D01*
X12143095Y-13395952D01*
X12124048Y-13405476D01*
X12095476Y-13405476D01*
X12276428Y-13405476D02*
X12257381Y-13395952D01*
X12247857Y-13376905D01*
X12247857Y-13205476D01*
X12428809Y-13395952D02*
X12409762Y-13405476D01*
X12371667Y-13405476D01*
X12352619Y-13395952D01*
X12343095Y-13376905D01*
X12343095Y-13300714D01*
X12352619Y-13281667D01*
X12371667Y-13272143D01*
X12409762Y-13272143D01*
X12428809Y-13281667D01*
X12438333Y-13300714D01*
X12438333Y-13319762D01*
X12343095Y-13338809D01*
X12514524Y-13395952D02*
X12533571Y-13405476D01*
X12571667Y-13405476D01*
X12590714Y-13395952D01*
X12600238Y-13376905D01*
X12600238Y-13367381D01*
X12590714Y-13348333D01*
X12571667Y-13338809D01*
X12543095Y-13338809D01*
X12524048Y-13329286D01*
X12514524Y-13310238D01*
X12514524Y-13300714D01*
X12524048Y-13281667D01*
X12543095Y-13272143D01*
X12571667Y-13272143D01*
X12590714Y-13281667D01*
X12666905Y-13481667D02*
X12676428Y-13472143D01*
X12695476Y-13443571D01*
X12705000Y-13424524D01*
X12714524Y-13395952D01*
X12724048Y-13348333D01*
X12724048Y-13310238D01*
X12714524Y-13262619D01*
X12705000Y-13234048D01*
X12695476Y-13215000D01*
X12676428Y-13186428D01*
X12666905Y-13176905D01*
X13028809Y-13481667D02*
X13019286Y-13472143D01*
X13000238Y-13443571D01*
X12990714Y-13424524D01*
X12981190Y-13395952D01*
X12971667Y-13348333D01*
X12971667Y-13310238D01*
X12981190Y-13262619D01*
X12990714Y-13234048D01*
X13000238Y-13215000D01*
X13019286Y-13186428D01*
X13028809Y-13176905D01*
X13105000Y-13272143D02*
X13105000Y-13405476D01*
X13105000Y-13291190D02*
X13114524Y-13281667D01*
X13133571Y-13272143D01*
X13162143Y-13272143D01*
X13181190Y-13281667D01*
X13190714Y-13300714D01*
X13190714Y-13405476D01*
X13314524Y-13405476D02*
X13295476Y-13395952D01*
X13285952Y-13386428D01*
X13276428Y-13367381D01*
X13276428Y-13310238D01*
X13285952Y-13291190D01*
X13295476Y-13281667D01*
X13314524Y-13272143D01*
X13343095Y-13272143D01*
X13362143Y-13281667D01*
X13371667Y-13291190D01*
X13381190Y-13310238D01*
X13381190Y-13367381D01*
X13371667Y-13386428D01*
X13362143Y-13395952D01*
X13343095Y-13405476D01*
X13314524Y-13405476D01*
X13438333Y-13272143D02*
X13514524Y-13272143D01*
X13466905Y-13205476D02*
X13466905Y-13376905D01*
X13476428Y-13395952D01*
X13495476Y-13405476D01*
X13514524Y-13405476D01*
X13733571Y-13272143D02*
X13733571Y-13472143D01*
X13733571Y-13281667D02*
X13752619Y-13272143D01*
X13790714Y-13272143D01*
X13809762Y-13281667D01*
X13819286Y-13291190D01*
X13828809Y-13310238D01*
X13828809Y-13367381D01*
X13819286Y-13386428D01*
X13809762Y-13395952D01*
X13790714Y-13405476D01*
X13752619Y-13405476D01*
X13733571Y-13395952D01*
X13943095Y-13405476D02*
X13924048Y-13395952D01*
X13914524Y-13376905D01*
X13914524Y-13205476D01*
X14105000Y-13405476D02*
X14105000Y-13300714D01*
X14095476Y-13281667D01*
X14076428Y-13272143D01*
X14038333Y-13272143D01*
X14019286Y-13281667D01*
X14105000Y-13395952D02*
X14085952Y-13405476D01*
X14038333Y-13405476D01*
X14019286Y-13395952D01*
X14009762Y-13376905D01*
X14009762Y-13357857D01*
X14019286Y-13338809D01*
X14038333Y-13329286D01*
X14085952Y-13329286D01*
X14105000Y-13319762D01*
X14171667Y-13272143D02*
X14247857Y-13272143D01*
X14200238Y-13205476D02*
X14200238Y-13376905D01*
X14209762Y-13395952D01*
X14228809Y-13405476D01*
X14247857Y-13405476D01*
X14390714Y-13395952D02*
X14371667Y-13405476D01*
X14333571Y-13405476D01*
X14314524Y-13395952D01*
X14305000Y-13376905D01*
X14305000Y-13300714D01*
X14314524Y-13281667D01*
X14333571Y-13272143D01*
X14371667Y-13272143D01*
X14390714Y-13281667D01*
X14400238Y-13300714D01*
X14400238Y-13319762D01*
X14305000Y-13338809D01*
X14571667Y-13405476D02*
X14571667Y-13205476D01*
X14571667Y-13395952D02*
X14552619Y-13405476D01*
X14514524Y-13405476D01*
X14495476Y-13395952D01*
X14485952Y-13386428D01*
X14476428Y-13367381D01*
X14476428Y-13310238D01*
X14485952Y-13291190D01*
X14495476Y-13281667D01*
X14514524Y-13272143D01*
X14552619Y-13272143D01*
X14571667Y-13281667D01*
X14647857Y-13481667D02*
X14657381Y-13472143D01*
X14676428Y-13443571D01*
X14685952Y-13424524D01*
X14695476Y-13395952D01*
X14705000Y-13348333D01*
X14705000Y-13310238D01*
X14695476Y-13262619D01*
X14685952Y-13234048D01*
X14676428Y-13215000D01*
X14657381Y-13186428D01*
X14647857Y-13176905D01*
M02*
