%TF.GenerationSoftware,KiCad,Pcbnew,(6.0.7-1)-1*%
%TF.CreationDate,2022-12-11T21:31:16-05:00*%
%TF.ProjectId,ResistorNetwork,52657369-7374-46f7-924e-6574776f726b,rev?*%
%TF.SameCoordinates,Original*%
%TF.FileFunction,Soldermask,Top*%
%TF.FilePolarity,Negative*%
%FSLAX46Y46*%
G04 Gerber Fmt 4.6, Leading zero omitted, Abs format (unit mm)*
G04 Created by KiCad (PCBNEW (6.0.7-1)-1) date 2022-12-11 21:31:16*
%MOMM*%
%LPD*%
G01*
G04 APERTURE LIST*
G04 Aperture macros list*
%AMRoundRect*
0 Rectangle with rounded corners*
0 $1 Rounding radius*
0 $2 $3 $4 $5 $6 $7 $8 $9 X,Y pos of 4 corners*
0 Add a 4 corners polygon primitive as box body*
4,1,4,$2,$3,$4,$5,$6,$7,$8,$9,$2,$3,0*
0 Add four circle primitives for the rounded corners*
1,1,$1+$1,$2,$3*
1,1,$1+$1,$4,$5*
1,1,$1+$1,$6,$7*
1,1,$1+$1,$8,$9*
0 Add four rect primitives between the rounded corners*
20,1,$1+$1,$2,$3,$4,$5,0*
20,1,$1+$1,$4,$5,$6,$7,0*
20,1,$1+$1,$6,$7,$8,$9,0*
20,1,$1+$1,$8,$9,$2,$3,0*%
G04 Aperture macros list end*
%ADD10R,1.650000X1.650000*%
%ADD11C,1.650000*%
%ADD12R,5.500000X3.900000*%
%ADD13C,3.000000*%
%ADD14RoundRect,0.250001X0.499999X-0.499999X0.499999X0.499999X-0.499999X0.499999X-0.499999X-0.499999X0*%
%ADD15C,1.500000*%
%ADD16RoundRect,0.250001X-0.499999X0.499999X-0.499999X-0.499999X0.499999X-0.499999X0.499999X0.499999X0*%
%ADD17R,1.100000X4.600000*%
%ADD18R,10.800000X9.400000*%
%ADD19C,4.300000*%
G04 APERTURE END LIST*
D10*
%TO.C,K1*%
X97400000Y-68725000D03*
D11*
X46600000Y-68725000D03*
X72000000Y-63625000D03*
X72000000Y-73825000D03*
%TD*%
D12*
%TO.C,R14*%
X111105000Y-61245000D03*
X111105000Y-71245000D03*
%TD*%
%TO.C,R13*%
X119105000Y-61245000D03*
X119105000Y-71245000D03*
%TD*%
D13*
%TO.C,J3*%
X29265000Y-53000000D03*
D14*
X33585000Y-53000000D03*
D15*
X36585000Y-53000000D03*
%TD*%
%TO.C,J2*%
X126165000Y-59250000D03*
D16*
X129165000Y-59250000D03*
D13*
X133485000Y-59250000D03*
%TD*%
D17*
%TO.C,R11*%
X118645000Y-43470000D03*
D18*
X116105000Y-52620000D03*
D17*
X113565000Y-43470000D03*
%TD*%
%TO.C,R9*%
X105432000Y-43470000D03*
D18*
X102892000Y-52620000D03*
D17*
X100352000Y-43470000D03*
%TD*%
D15*
%TO.C,J1*%
X125925000Y-47120000D03*
D16*
X128925000Y-47120000D03*
D13*
X133245000Y-47120000D03*
%TD*%
D17*
%TO.C,R10*%
X97593000Y-42895000D03*
D18*
X100133000Y-33745000D03*
D17*
X102673000Y-42895000D03*
%TD*%
%TO.C,R6*%
X70669000Y-42895000D03*
D18*
X73209000Y-33745000D03*
D17*
X75749000Y-42895000D03*
%TD*%
D19*
%TO.C,H2*%
X131000000Y-73000000D03*
%TD*%
D18*
%TO.C,R5*%
X75968000Y-52620000D03*
D17*
X78508000Y-43470000D03*
X73428000Y-43470000D03*
%TD*%
D19*
%TO.C,H1*%
X31000000Y-73000000D03*
%TD*%
D18*
%TO.C,R1*%
X49044000Y-52620000D03*
D17*
X51584000Y-43470000D03*
X46504000Y-43470000D03*
%TD*%
D19*
%TO.C,H3*%
X131000000Y-33000000D03*
%TD*%
D18*
%TO.C,R7*%
X89430000Y-52620000D03*
D17*
X91970000Y-43470000D03*
X86890000Y-43470000D03*
%TD*%
%TO.C,R12*%
X111055000Y-42895000D03*
D18*
X113595000Y-33745000D03*
D17*
X116135000Y-42895000D03*
%TD*%
%TO.C,R2*%
X43745000Y-42895000D03*
D18*
X46285000Y-33745000D03*
D17*
X48825000Y-42895000D03*
%TD*%
D19*
%TO.C,H4*%
X31000000Y-33000000D03*
%TD*%
D17*
%TO.C,R4*%
X57207000Y-42895000D03*
D18*
X59747000Y-33745000D03*
D17*
X62287000Y-42895000D03*
%TD*%
D18*
%TO.C,R3*%
X62506000Y-52620000D03*
D17*
X65046000Y-43470000D03*
X59966000Y-43470000D03*
%TD*%
D18*
%TO.C,R8*%
X86671000Y-33745000D03*
D17*
X84131000Y-42895000D03*
X89211000Y-42895000D03*
%TD*%
M02*
