%TF.GenerationSoftware,KiCad,Pcbnew,(6.0.7-1)-1*%
%TF.CreationDate,2022-12-11T21:31:16-05:00*%
%TF.ProjectId,ResistorNetwork,52657369-7374-46f7-924e-6574776f726b,rev?*%
%TF.SameCoordinates,Original*%
%TF.FileFunction,Copper,L1,Top*%
%TF.FilePolarity,Positive*%
%FSLAX46Y46*%
G04 Gerber Fmt 4.6, Leading zero omitted, Abs format (unit mm)*
G04 Created by KiCad (PCBNEW (6.0.7-1)-1) date 2022-12-11 21:31:16*
%MOMM*%
%LPD*%
G01*
G04 APERTURE LIST*
G04 Aperture macros list*
%AMRoundRect*
0 Rectangle with rounded corners*
0 $1 Rounding radius*
0 $2 $3 $4 $5 $6 $7 $8 $9 X,Y pos of 4 corners*
0 Add a 4 corners polygon primitive as box body*
4,1,4,$2,$3,$4,$5,$6,$7,$8,$9,$2,$3,0*
0 Add four circle primitives for the rounded corners*
1,1,$1+$1,$2,$3*
1,1,$1+$1,$4,$5*
1,1,$1+$1,$6,$7*
1,1,$1+$1,$8,$9*
0 Add four rect primitives between the rounded corners*
20,1,$1+$1,$2,$3,$4,$5,0*
20,1,$1+$1,$4,$5,$6,$7,0*
20,1,$1+$1,$6,$7,$8,$9,0*
20,1,$1+$1,$8,$9,$2,$3,0*%
G04 Aperture macros list end*
%TA.AperFunction,ComponentPad*%
%ADD10R,1.650000X1.650000*%
%TD*%
%TA.AperFunction,ComponentPad*%
%ADD11C,1.650000*%
%TD*%
%TA.AperFunction,SMDPad,CuDef*%
%ADD12R,5.500000X3.900000*%
%TD*%
%TA.AperFunction,ComponentPad*%
%ADD13RoundRect,0.250001X0.499999X-0.499999X0.499999X0.499999X-0.499999X0.499999X-0.499999X-0.499999X0*%
%TD*%
%TA.AperFunction,ComponentPad*%
%ADD14C,1.500000*%
%TD*%
%TA.AperFunction,ComponentPad*%
%ADD15RoundRect,0.250001X-0.499999X0.499999X-0.499999X-0.499999X0.499999X-0.499999X0.499999X0.499999X0*%
%TD*%
%TA.AperFunction,SMDPad,CuDef*%
%ADD16R,1.100000X4.600000*%
%TD*%
%TA.AperFunction,SMDPad,CuDef*%
%ADD17R,10.800000X9.400000*%
%TD*%
%TA.AperFunction,Conductor*%
%ADD18C,1.000000*%
%TD*%
%TA.AperFunction,Conductor*%
%ADD19C,2.000000*%
%TD*%
G04 APERTURE END LIST*
D10*
%TO.P,K1,1*%
%TO.N,/HV+*%
X97400000Y-68725000D03*
D11*
%TO.P,K1,2*%
%TO.N,Net-(R1-Pad2)*%
X46600000Y-68725000D03*
%TO.P,K1,3,-*%
%TO.N,GND*%
X72000000Y-63625000D03*
%TO.P,K1,4,+*%
%TO.N,/~{Discharge}*%
X72000000Y-73825000D03*
%TD*%
D12*
%TO.P,R14,1*%
%TO.N,/HV-*%
X111105000Y-61245000D03*
%TO.P,R14,2*%
%TO.N,/HV-_TSMP*%
X111105000Y-71245000D03*
%TD*%
%TO.P,R13,1*%
%TO.N,/HV+*%
X119105000Y-61245000D03*
%TO.P,R13,2*%
%TO.N,/HV+_TSMP*%
X119105000Y-71245000D03*
%TD*%
D13*
%TO.P,J3,1,Pin_1*%
%TO.N,/~{Discharge}*%
X33585000Y-53000000D03*
D14*
%TO.P,J3,2,Pin_2*%
%TO.N,GND*%
X36585000Y-53000000D03*
%TD*%
%TO.P,J2,2,Pin_2*%
%TO.N,/HV-_TSMP*%
X126165000Y-59250000D03*
D15*
%TO.P,J2,1,Pin_1*%
%TO.N,/HV+_TSMP*%
X129165000Y-59250000D03*
%TD*%
D16*
%TO.P,R11,1*%
%TO.N,/HV-*%
X118645000Y-43470000D03*
D17*
X116105000Y-52620000D03*
D16*
%TO.P,R11,2*%
%TO.N,Net-(R10-Pad1)*%
X113565000Y-43470000D03*
%TD*%
%TO.P,R9,1*%
%TO.N,Net-(R10-Pad1)*%
X105432000Y-43470000D03*
D17*
X102892000Y-52620000D03*
D16*
%TO.P,R9,2*%
%TO.N,Net-(R10-Pad2)*%
X100352000Y-43470000D03*
%TD*%
D14*
%TO.P,J1,2,Pin_2*%
%TO.N,/HV-*%
X125925000Y-47120000D03*
D15*
%TO.P,J1,1,Pin_1*%
%TO.N,/HV+*%
X128925000Y-47120000D03*
%TD*%
D16*
%TO.P,R10,1*%
%TO.N,Net-(R10-Pad1)*%
X97593000Y-42895000D03*
D17*
X100133000Y-33745000D03*
D16*
%TO.P,R10,2*%
%TO.N,Net-(R10-Pad2)*%
X102673000Y-42895000D03*
%TD*%
%TO.P,R6,1*%
%TO.N,Net-(R5-Pad1)*%
X70669000Y-42895000D03*
D17*
X73209000Y-33745000D03*
D16*
%TO.P,R6,2*%
%TO.N,Net-(R3-Pad1)*%
X75749000Y-42895000D03*
%TD*%
D17*
%TO.P,R5,1*%
%TO.N,Net-(R5-Pad1)*%
X75968000Y-52620000D03*
D16*
X78508000Y-43470000D03*
%TO.P,R5,2*%
%TO.N,Net-(R3-Pad1)*%
X73428000Y-43470000D03*
%TD*%
D17*
%TO.P,R1,1*%
%TO.N,Net-(R1-Pad1)*%
X49044000Y-52620000D03*
D16*
X51584000Y-43470000D03*
%TO.P,R1,2*%
%TO.N,Net-(R1-Pad2)*%
X46504000Y-43470000D03*
%TD*%
D17*
%TO.P,R7,1*%
%TO.N,Net-(R10-Pad2)*%
X89430000Y-52620000D03*
D16*
X91970000Y-43470000D03*
%TO.P,R7,2*%
%TO.N,Net-(R5-Pad1)*%
X86890000Y-43470000D03*
%TD*%
%TO.P,R12,1*%
%TO.N,/HV-*%
X111055000Y-42895000D03*
D17*
X113595000Y-33745000D03*
D16*
%TO.P,R12,2*%
%TO.N,Net-(R10-Pad1)*%
X116135000Y-42895000D03*
%TD*%
%TO.P,R2,1*%
%TO.N,Net-(R1-Pad1)*%
X43745000Y-42895000D03*
D17*
X46285000Y-33745000D03*
D16*
%TO.P,R2,2*%
%TO.N,Net-(R1-Pad2)*%
X48825000Y-42895000D03*
%TD*%
%TO.P,R4,1*%
%TO.N,Net-(R3-Pad1)*%
X57207000Y-42895000D03*
D17*
X59747000Y-33745000D03*
D16*
%TO.P,R4,2*%
%TO.N,Net-(R1-Pad1)*%
X62287000Y-42895000D03*
%TD*%
D17*
%TO.P,R3,1*%
%TO.N,Net-(R3-Pad1)*%
X62506000Y-52620000D03*
D16*
X65046000Y-43470000D03*
%TO.P,R3,2*%
%TO.N,Net-(R1-Pad1)*%
X59966000Y-43470000D03*
%TD*%
D17*
%TO.P,R8,1*%
%TO.N,Net-(R10-Pad2)*%
X86671000Y-33745000D03*
D16*
X84131000Y-42895000D03*
%TO.P,R8,2*%
%TO.N,Net-(R5-Pad1)*%
X89211000Y-42895000D03*
%TD*%
D18*
%TO.N,/HV-_TSMP*%
X113760000Y-67370000D02*
X121760000Y-67370000D01*
X121760000Y-67370000D02*
X126250000Y-62880000D01*
X126250000Y-62880000D02*
X126250000Y-59295000D01*
X111105000Y-70025000D02*
X113760000Y-67370000D01*
%TO.N,/HV+_TSMP*%
X129250000Y-59295000D02*
X129425000Y-59120000D01*
X122885000Y-71245000D02*
X129250000Y-64880000D01*
X129250000Y-64880000D02*
X129250000Y-59295000D01*
X119105000Y-71245000D02*
X122885000Y-71245000D01*
%TO.N,/HV+*%
X99135000Y-65120000D02*
X97400000Y-66855000D01*
X97400000Y-66855000D02*
X97400000Y-68725000D01*
X115230000Y-65120000D02*
X99135000Y-65120000D01*
X119105000Y-61245000D02*
X115230000Y-65120000D01*
X129010000Y-52120000D02*
X119885000Y-61245000D01*
X129010000Y-47205000D02*
X129010000Y-52120000D01*
X128925000Y-47120000D02*
X129010000Y-47205000D01*
%TO.N,/HV-*%
X125925000Y-47120000D02*
X121605000Y-47120000D01*
X121605000Y-47120000D02*
X116105000Y-52620000D01*
%TO.N,/HV-_TSMP*%
X111105000Y-71245000D02*
X111105000Y-70025000D01*
%TO.N,/~{Discharge}*%
X33585000Y-53000000D02*
X34500000Y-53915000D01*
X34500000Y-53915000D02*
X34500000Y-68750000D01*
X41870000Y-76120000D02*
X69705000Y-76120000D01*
X69705000Y-76120000D02*
X72000000Y-73825000D01*
X34500000Y-68750000D02*
X41870000Y-76120000D01*
%TO.N,GND*%
X36585000Y-53000000D02*
X36585000Y-67835000D01*
X61625000Y-74000000D02*
X72000000Y-63625000D01*
X36585000Y-67835000D02*
X42750000Y-74000000D01*
X42750000Y-74000000D02*
X61625000Y-74000000D01*
%TO.N,Net-(R1-Pad2)*%
X43355000Y-46645000D02*
X42000000Y-48000000D01*
X46504000Y-44386000D02*
X44245000Y-46645000D01*
X44245000Y-46645000D02*
X43355000Y-46645000D01*
X42000000Y-48000000D02*
X42000000Y-64235000D01*
X46504000Y-43470000D02*
X46504000Y-44386000D01*
X42000000Y-64235000D02*
X45610000Y-67845000D01*
%TO.N,Net-(R3-Pad1)*%
X65046000Y-43470000D02*
X65046000Y-50080000D01*
X65046000Y-50080000D02*
X62506000Y-52620000D01*
%TO.N,Net-(R1-Pad1)*%
X51584000Y-43470000D02*
X51584000Y-50080000D01*
X51584000Y-50080000D02*
X49044000Y-52620000D01*
%TO.N,/HV-*%
X116105000Y-52620000D02*
X111105000Y-57620000D01*
X111105000Y-57620000D02*
X111105000Y-61245000D01*
%TO.N,/HV+*%
X119885000Y-61245000D02*
X119105000Y-61245000D01*
%TO.N,/HV+_TSMP*%
X119105000Y-72245000D02*
X119105000Y-72025000D01*
%TO.N,Net-(R1-Pad1)*%
X57907000Y-46445000D02*
X53605000Y-46445000D01*
X59966000Y-44386000D02*
X57907000Y-46445000D01*
X59966000Y-43470000D02*
X59966000Y-44386000D01*
X51584000Y-44424000D02*
X51584000Y-43470000D01*
X53605000Y-46445000D02*
X51584000Y-44424000D01*
X51584000Y-43470000D02*
X51584000Y-39044000D01*
X51584000Y-39044000D02*
X46285000Y-33745000D01*
%TO.N,Net-(R3-Pad1)*%
X65046000Y-43470000D02*
X65046000Y-39044000D01*
X65046000Y-39044000D02*
X59747000Y-33745000D01*
X73428000Y-44386000D02*
X71369000Y-46445000D01*
X65046000Y-44186000D02*
X65046000Y-43470000D01*
X71369000Y-46445000D02*
X67305000Y-46445000D01*
X73428000Y-43470000D02*
X73428000Y-44386000D01*
X67305000Y-46445000D02*
X65046000Y-44186000D01*
%TO.N,Net-(R5-Pad1)*%
X84831000Y-46445000D02*
X80805000Y-46445000D01*
X86890000Y-44386000D02*
X84831000Y-46445000D01*
X86890000Y-43470000D02*
X86890000Y-44386000D01*
X80805000Y-46445000D02*
X78508000Y-44148000D01*
X78508000Y-44148000D02*
X78508000Y-43470000D01*
%TO.N,Net-(R10-Pad2)*%
X98293000Y-46445000D02*
X93905000Y-46445000D01*
X93905000Y-46445000D02*
X91970000Y-44510000D01*
X100352000Y-44386000D02*
X98293000Y-46445000D01*
X100352000Y-43470000D02*
X100352000Y-44386000D01*
X91970000Y-44510000D02*
X91970000Y-43470000D01*
%TO.N,Net-(R10-Pad1)*%
X111755000Y-46445000D02*
X107405000Y-46445000D01*
X113565000Y-44635000D02*
X111755000Y-46445000D01*
X113565000Y-43470000D02*
X113565000Y-44635000D01*
X107405000Y-46445000D02*
X105432000Y-44472000D01*
X105432000Y-44472000D02*
X105432000Y-43470000D01*
%TO.N,/HV-*%
X118645000Y-43470000D02*
X118645000Y-38795000D01*
X118645000Y-38795000D02*
X113595000Y-33745000D01*
%TO.N,Net-(R10-Pad1)*%
X105432000Y-43470000D02*
X105432000Y-39044000D01*
X105432000Y-39044000D02*
X100133000Y-33745000D01*
%TO.N,Net-(R5-Pad1)*%
X78508000Y-43470000D02*
X78508000Y-39044000D01*
X78508000Y-39044000D02*
X73209000Y-33745000D01*
X78508000Y-43470000D02*
X78508000Y-50080000D01*
X78508000Y-50080000D02*
X75968000Y-52620000D01*
%TO.N,Net-(R10-Pad2)*%
X91970000Y-43470000D02*
X91970000Y-39044000D01*
X91970000Y-39044000D02*
X86671000Y-33745000D01*
X91970000Y-43470000D02*
X91970000Y-50080000D01*
X91970000Y-50080000D02*
X89430000Y-52620000D01*
%TO.N,Net-(R10-Pad1)*%
X105432000Y-43470000D02*
X105432000Y-50080000D01*
X105432000Y-50080000D02*
X102892000Y-52620000D01*
%TO.N,/HV-*%
X113595000Y-33745000D02*
X111055000Y-36285000D01*
X111055000Y-36285000D02*
X111055000Y-42895000D01*
%TO.N,Net-(R10-Pad1)*%
X100133000Y-33745000D02*
X97593000Y-36285000D01*
X97593000Y-36285000D02*
X97593000Y-42895000D01*
%TO.N,Net-(R10-Pad2)*%
X86671000Y-33745000D02*
X84131000Y-36285000D01*
X84131000Y-36285000D02*
X84131000Y-42895000D01*
%TO.N,Net-(R5-Pad1)*%
X73209000Y-33745000D02*
X70669000Y-36285000D01*
X70669000Y-36285000D02*
X70669000Y-42895000D01*
%TO.N,Net-(R3-Pad1)*%
X59747000Y-33745000D02*
X57207000Y-36285000D01*
X57207000Y-36285000D02*
X57207000Y-42895000D01*
%TO.N,Net-(R1-Pad1)*%
X46285000Y-33745000D02*
X43745000Y-36285000D01*
X43745000Y-36285000D02*
X43745000Y-42895000D01*
%TO.N,Net-(R1-Pad2)*%
X48825000Y-42895000D02*
X47079000Y-42895000D01*
X47079000Y-42895000D02*
X46504000Y-43470000D01*
%TO.N,Net-(R1-Pad1)*%
X62287000Y-42895000D02*
X60541000Y-42895000D01*
X60541000Y-42895000D02*
X59966000Y-43470000D01*
%TO.N,Net-(R3-Pad1)*%
X75749000Y-42895000D02*
X74003000Y-42895000D01*
X74003000Y-42895000D02*
X73428000Y-43470000D01*
%TO.N,Net-(R10-Pad2)*%
X102673000Y-42895000D02*
X100927000Y-42895000D01*
X100927000Y-42895000D02*
X100352000Y-43470000D01*
%TO.N,Net-(R10-Pad1)*%
X116135000Y-42895000D02*
X114140000Y-42895000D01*
X114140000Y-42895000D02*
X113565000Y-43470000D01*
%TO.N,/HV-*%
X118645000Y-43470000D02*
X118645000Y-50080000D01*
X118645000Y-50080000D02*
X116105000Y-52620000D01*
%TO.N,Net-(R5-Pad1)*%
X89211000Y-42895000D02*
X87465000Y-42895000D01*
X87465000Y-42895000D02*
X86890000Y-43470000D01*
%TO.N,Net-(R1-Pad1)*%
X62287000Y-42895000D02*
X62287000Y-44763000D01*
%TO.N,Net-(R1-Pad2)*%
X48825000Y-42895000D02*
X48825000Y-44255000D01*
%TO.N,Net-(R3-Pad1)*%
X75749000Y-42895000D02*
X75749000Y-45271000D01*
%TO.N,Net-(R5-Pad1)*%
X89211000Y-42895000D02*
X89211000Y-44509000D01*
D19*
%TO.N,Net-(R10-Pad2)*%
X86671000Y-33745000D02*
X84620000Y-35796000D01*
X86671000Y-33745000D02*
X86671000Y-36889000D01*
%TD*%
M02*
