%TF.GenerationSoftware,KiCad,Pcbnew,(6.0.7-1)-1*%
%TF.CreationDate,2022-12-17T15:07:59-05:00*%
%TF.ProjectId,ResistorNetwork,52657369-7374-46f7-924e-6574776f726b,rev?*%
%TF.SameCoordinates,Original*%
%TF.FileFunction,Legend,Top*%
%TF.FilePolarity,Positive*%
%FSLAX46Y46*%
G04 Gerber Fmt 4.6, Leading zero omitted, Abs format (unit mm)*
G04 Created by KiCad (PCBNEW (6.0.7-1)-1) date 2022-12-17 15:07:59*
%MOMM*%
%LPD*%
G01*
G04 APERTURE LIST*
%ADD10C,0.150000*%
%ADD11C,0.254000*%
%ADD12C,0.120000*%
%ADD13C,0.200000*%
%ADD14C,0.100000*%
G04 APERTURE END LIST*
D10*
X103552380Y-77147380D02*
X103552380Y-76147380D01*
X104123809Y-77147380D01*
X104123809Y-76147380D01*
X104742857Y-77147380D02*
X104647619Y-77099761D01*
X104600000Y-77052142D01*
X104552380Y-76956904D01*
X104552380Y-76671190D01*
X104600000Y-76575952D01*
X104647619Y-76528333D01*
X104742857Y-76480714D01*
X104885714Y-76480714D01*
X104980952Y-76528333D01*
X105028571Y-76575952D01*
X105076190Y-76671190D01*
X105076190Y-76956904D01*
X105028571Y-77052142D01*
X104980952Y-77099761D01*
X104885714Y-77147380D01*
X104742857Y-77147380D01*
X105361904Y-76480714D02*
X105742857Y-76480714D01*
X105504761Y-76147380D02*
X105504761Y-77004523D01*
X105552380Y-77099761D01*
X105647619Y-77147380D01*
X105742857Y-77147380D01*
X106457142Y-77099761D02*
X106361904Y-77147380D01*
X106171428Y-77147380D01*
X106076190Y-77099761D01*
X106028571Y-77004523D01*
X106028571Y-76623571D01*
X106076190Y-76528333D01*
X106171428Y-76480714D01*
X106361904Y-76480714D01*
X106457142Y-76528333D01*
X106504761Y-76623571D01*
X106504761Y-76718809D01*
X106028571Y-76814047D01*
X106933333Y-77052142D02*
X106980952Y-77099761D01*
X106933333Y-77147380D01*
X106885714Y-77099761D01*
X106933333Y-77052142D01*
X106933333Y-77147380D01*
X106933333Y-76528333D02*
X106980952Y-76575952D01*
X106933333Y-76623571D01*
X106885714Y-76575952D01*
X106933333Y-76528333D01*
X106933333Y-76623571D01*
X108647619Y-77147380D02*
X108171428Y-77147380D01*
X108171428Y-76147380D01*
X109409523Y-77147380D02*
X109409523Y-76623571D01*
X109361904Y-76528333D01*
X109266666Y-76480714D01*
X109076190Y-76480714D01*
X108980952Y-76528333D01*
X109409523Y-77099761D02*
X109314285Y-77147380D01*
X109076190Y-77147380D01*
X108980952Y-77099761D01*
X108933333Y-77004523D01*
X108933333Y-76909285D01*
X108980952Y-76814047D01*
X109076190Y-76766428D01*
X109314285Y-76766428D01*
X109409523Y-76718809D01*
X109885714Y-77147380D02*
X109885714Y-76147380D01*
X109885714Y-76528333D02*
X109980952Y-76480714D01*
X110171428Y-76480714D01*
X110266666Y-76528333D01*
X110314285Y-76575952D01*
X110361904Y-76671190D01*
X110361904Y-76956904D01*
X110314285Y-77052142D01*
X110266666Y-77099761D01*
X110171428Y-77147380D01*
X109980952Y-77147380D01*
X109885714Y-77099761D01*
X111171428Y-77099761D02*
X111076190Y-77147380D01*
X110885714Y-77147380D01*
X110790476Y-77099761D01*
X110742857Y-77004523D01*
X110742857Y-76623571D01*
X110790476Y-76528333D01*
X110885714Y-76480714D01*
X111076190Y-76480714D01*
X111171428Y-76528333D01*
X111219047Y-76623571D01*
X111219047Y-76718809D01*
X110742857Y-76814047D01*
X111790476Y-77147380D02*
X111695238Y-77099761D01*
X111647619Y-77004523D01*
X111647619Y-76147380D01*
X112123809Y-77099761D02*
X112219047Y-77147380D01*
X112409523Y-77147380D01*
X112504761Y-77099761D01*
X112552380Y-77004523D01*
X112552380Y-76956904D01*
X112504761Y-76861666D01*
X112409523Y-76814047D01*
X112266666Y-76814047D01*
X112171428Y-76766428D01*
X112123809Y-76671190D01*
X112123809Y-76623571D01*
X112171428Y-76528333D01*
X112266666Y-76480714D01*
X112409523Y-76480714D01*
X112504761Y-76528333D01*
X113742857Y-77147380D02*
X113742857Y-76480714D01*
X113742857Y-76671190D02*
X113790476Y-76575952D01*
X113838095Y-76528333D01*
X113933333Y-76480714D01*
X114028571Y-76480714D01*
X114742857Y-77099761D02*
X114647619Y-77147380D01*
X114457142Y-77147380D01*
X114361904Y-77099761D01*
X114314285Y-77004523D01*
X114314285Y-76623571D01*
X114361904Y-76528333D01*
X114457142Y-76480714D01*
X114647619Y-76480714D01*
X114742857Y-76528333D01*
X114790476Y-76623571D01*
X114790476Y-76718809D01*
X114314285Y-76814047D01*
X115076190Y-76480714D02*
X115457142Y-76480714D01*
X115219047Y-77147380D02*
X115219047Y-76290238D01*
X115266666Y-76195000D01*
X115361904Y-76147380D01*
X115457142Y-76147380D01*
X115933333Y-77147380D02*
X115838095Y-77099761D01*
X115790476Y-77004523D01*
X115790476Y-76147380D01*
X116695238Y-77099761D02*
X116600000Y-77147380D01*
X116409523Y-77147380D01*
X116314285Y-77099761D01*
X116266666Y-77004523D01*
X116266666Y-76623571D01*
X116314285Y-76528333D01*
X116409523Y-76480714D01*
X116600000Y-76480714D01*
X116695238Y-76528333D01*
X116742857Y-76623571D01*
X116742857Y-76718809D01*
X116266666Y-76814047D01*
X117600000Y-77099761D02*
X117504761Y-77147380D01*
X117314285Y-77147380D01*
X117219047Y-77099761D01*
X117171428Y-77052142D01*
X117123809Y-76956904D01*
X117123809Y-76671190D01*
X117171428Y-76575952D01*
X117219047Y-76528333D01*
X117314285Y-76480714D01*
X117504761Y-76480714D01*
X117600000Y-76528333D01*
X117885714Y-76480714D02*
X118266666Y-76480714D01*
X118028571Y-76147380D02*
X118028571Y-77004523D01*
X118076190Y-77099761D01*
X118171428Y-77147380D01*
X118266666Y-77147380D01*
X119361904Y-76480714D02*
X119361904Y-77480714D01*
X119361904Y-76528333D02*
X119457142Y-76480714D01*
X119647619Y-76480714D01*
X119742857Y-76528333D01*
X119790476Y-76575952D01*
X119838095Y-76671190D01*
X119838095Y-76956904D01*
X119790476Y-77052142D01*
X119742857Y-77099761D01*
X119647619Y-77147380D01*
X119457142Y-77147380D01*
X119361904Y-77099761D01*
X120266666Y-77147380D02*
X120266666Y-76480714D01*
X120266666Y-76147380D02*
X120219047Y-76195000D01*
X120266666Y-76242619D01*
X120314285Y-76195000D01*
X120266666Y-76147380D01*
X120266666Y-76242619D01*
X120742857Y-76480714D02*
X120742857Y-77147380D01*
X120742857Y-76575952D02*
X120790476Y-76528333D01*
X120885714Y-76480714D01*
X121028571Y-76480714D01*
X121123809Y-76528333D01*
X121171428Y-76623571D01*
X121171428Y-77147380D01*
X122409523Y-76480714D02*
X122409523Y-77480714D01*
X122409523Y-76528333D02*
X122504761Y-76480714D01*
X122695238Y-76480714D01*
X122790476Y-76528333D01*
X122838095Y-76575952D01*
X122885714Y-76671190D01*
X122885714Y-76956904D01*
X122838095Y-77052142D01*
X122790476Y-77099761D01*
X122695238Y-77147380D01*
X122504761Y-77147380D01*
X122409523Y-77099761D01*
X123457142Y-77147380D02*
X123361904Y-77099761D01*
X123314285Y-77004523D01*
X123314285Y-76147380D01*
X124266666Y-77147380D02*
X124266666Y-76623571D01*
X124219047Y-76528333D01*
X124123809Y-76480714D01*
X123933333Y-76480714D01*
X123838095Y-76528333D01*
X124266666Y-77099761D02*
X124171428Y-77147380D01*
X123933333Y-77147380D01*
X123838095Y-77099761D01*
X123790476Y-77004523D01*
X123790476Y-76909285D01*
X123838095Y-76814047D01*
X123933333Y-76766428D01*
X124171428Y-76766428D01*
X124266666Y-76718809D01*
X125171428Y-77099761D02*
X125076190Y-77147380D01*
X124885714Y-77147380D01*
X124790476Y-77099761D01*
X124742857Y-77052142D01*
X124695238Y-76956904D01*
X124695238Y-76671190D01*
X124742857Y-76575952D01*
X124790476Y-76528333D01*
X124885714Y-76480714D01*
X125076190Y-76480714D01*
X125171428Y-76528333D01*
X125980952Y-77099761D02*
X125885714Y-77147380D01*
X125695238Y-77147380D01*
X125600000Y-77099761D01*
X125552380Y-77004523D01*
X125552380Y-76623571D01*
X125600000Y-76528333D01*
X125695238Y-76480714D01*
X125885714Y-76480714D01*
X125980952Y-76528333D01*
X126028571Y-76623571D01*
X126028571Y-76718809D01*
X125552380Y-76814047D01*
X126457142Y-77147380D02*
X126457142Y-76480714D01*
X126457142Y-76575952D02*
X126504761Y-76528333D01*
X126600000Y-76480714D01*
X126742857Y-76480714D01*
X126838095Y-76528333D01*
X126885714Y-76623571D01*
X126885714Y-77147380D01*
X126885714Y-76623571D02*
X126933333Y-76528333D01*
X127028571Y-76480714D01*
X127171428Y-76480714D01*
X127266666Y-76528333D01*
X127314285Y-76623571D01*
X127314285Y-77147380D01*
X128171428Y-77099761D02*
X128076190Y-77147380D01*
X127885714Y-77147380D01*
X127790476Y-77099761D01*
X127742857Y-77004523D01*
X127742857Y-76623571D01*
X127790476Y-76528333D01*
X127885714Y-76480714D01*
X128076190Y-76480714D01*
X128171428Y-76528333D01*
X128219047Y-76623571D01*
X128219047Y-76718809D01*
X127742857Y-76814047D01*
X128647619Y-76480714D02*
X128647619Y-77147380D01*
X128647619Y-76575952D02*
X128695238Y-76528333D01*
X128790476Y-76480714D01*
X128933333Y-76480714D01*
X129028571Y-76528333D01*
X129076190Y-76623571D01*
X129076190Y-77147380D01*
X129409523Y-76480714D02*
X129790476Y-76480714D01*
X129552380Y-76147380D02*
X129552380Y-77004523D01*
X129600000Y-77099761D01*
X129695238Y-77147380D01*
X129790476Y-77147380D01*
X124571428Y-65085714D02*
X125485714Y-65085714D01*
X126914285Y-64285714D02*
X125885714Y-65828571D01*
X127314285Y-65085714D02*
X128228571Y-65085714D01*
X127771428Y-65542857D02*
X127771428Y-64628571D01*
X26414285Y-58585714D02*
X26585714Y-58642857D01*
X26871428Y-58642857D01*
X26985714Y-58585714D01*
X27042857Y-58528571D01*
X27100000Y-58414285D01*
X27100000Y-58300000D01*
X27042857Y-58185714D01*
X26985714Y-58128571D01*
X26871428Y-58071428D01*
X26642857Y-58014285D01*
X26528571Y-57957142D01*
X26471428Y-57900000D01*
X26414285Y-57785714D01*
X26414285Y-57671428D01*
X26471428Y-57557142D01*
X26528571Y-57500000D01*
X26642857Y-57442857D01*
X26928571Y-57442857D01*
X27100000Y-57500000D01*
X27614285Y-58642857D02*
X27614285Y-57442857D01*
X28814285Y-57500000D02*
X28700000Y-57442857D01*
X28528571Y-57442857D01*
X28357142Y-57500000D01*
X28242857Y-57614285D01*
X28185714Y-57728571D01*
X28128571Y-57957142D01*
X28128571Y-58128571D01*
X28185714Y-58357142D01*
X28242857Y-58471428D01*
X28357142Y-58585714D01*
X28528571Y-58642857D01*
X28642857Y-58642857D01*
X28814285Y-58585714D01*
X28871428Y-58528571D01*
X28871428Y-58128571D01*
X28642857Y-58128571D01*
X30242857Y-57385714D02*
X29214285Y-58928571D01*
X31271428Y-57500000D02*
X31157142Y-57442857D01*
X30985714Y-57442857D01*
X30814285Y-57500000D01*
X30700000Y-57614285D01*
X30642857Y-57728571D01*
X30585714Y-57957142D01*
X30585714Y-58128571D01*
X30642857Y-58357142D01*
X30700000Y-58471428D01*
X30814285Y-58585714D01*
X30985714Y-58642857D01*
X31100000Y-58642857D01*
X31271428Y-58585714D01*
X31328571Y-58528571D01*
X31328571Y-58128571D01*
X31100000Y-58128571D01*
X31842857Y-58642857D02*
X31842857Y-57442857D01*
X32528571Y-58642857D01*
X32528571Y-57442857D01*
X33100000Y-58642857D02*
X33100000Y-57442857D01*
X33385714Y-57442857D01*
X33557142Y-57500000D01*
X33671428Y-57614285D01*
X33728571Y-57728571D01*
X33785714Y-57957142D01*
X33785714Y-58128571D01*
X33728571Y-58357142D01*
X33671428Y-58471428D01*
X33557142Y-58585714D01*
X33385714Y-58642857D01*
X33100000Y-58642857D01*
X129750000Y-64263571D02*
X130607142Y-64263571D01*
X130178571Y-65763571D02*
X130178571Y-64263571D01*
X131035714Y-65692142D02*
X131250000Y-65763571D01*
X131607142Y-65763571D01*
X131750000Y-65692142D01*
X131821428Y-65620714D01*
X131892857Y-65477857D01*
X131892857Y-65335000D01*
X131821428Y-65192142D01*
X131750000Y-65120714D01*
X131607142Y-65049285D01*
X131321428Y-64977857D01*
X131178571Y-64906428D01*
X131107142Y-64835000D01*
X131035714Y-64692142D01*
X131035714Y-64549285D01*
X131107142Y-64406428D01*
X131178571Y-64335000D01*
X131321428Y-64263571D01*
X131678571Y-64263571D01*
X131892857Y-64335000D01*
X132535714Y-65763571D02*
X132535714Y-64263571D01*
X133035714Y-65335000D01*
X133535714Y-64263571D01*
X133535714Y-65763571D01*
X134250000Y-65763571D02*
X134250000Y-64263571D01*
X134821428Y-64263571D01*
X134964285Y-64335000D01*
X135035714Y-64406428D01*
X135107142Y-64549285D01*
X135107142Y-64763571D01*
X135035714Y-64906428D01*
X134964285Y-64977857D01*
X134821428Y-65049285D01*
X134250000Y-65049285D01*
X124557142Y-42471071D02*
X124557142Y-40971071D01*
X124557142Y-41685357D02*
X125414285Y-41685357D01*
X125414285Y-42471071D02*
X125414285Y-40971071D01*
X125914285Y-40971071D02*
X126414285Y-42471071D01*
X126914285Y-40971071D01*
X127414285Y-41899642D02*
X128557142Y-41899642D01*
X130342857Y-40899642D02*
X129057142Y-42828214D01*
X130842857Y-42471071D02*
X130842857Y-40971071D01*
X130842857Y-41685357D02*
X131700000Y-41685357D01*
X131700000Y-42471071D02*
X131700000Y-40971071D01*
X132200000Y-40971071D02*
X132700000Y-42471071D01*
X133200000Y-40971071D01*
X133700000Y-41899642D02*
X134842857Y-41899642D01*
X134271428Y-42471071D02*
X134271428Y-41328214D01*
X26221428Y-46555000D02*
X27721428Y-46555000D01*
X26578571Y-48478571D02*
X26578571Y-46978571D01*
X26935714Y-46978571D01*
X27150000Y-47050000D01*
X27292857Y-47192857D01*
X27364285Y-47335714D01*
X27435714Y-47621428D01*
X27435714Y-47835714D01*
X27364285Y-48121428D01*
X27292857Y-48264285D01*
X27150000Y-48407142D01*
X26935714Y-48478571D01*
X26578571Y-48478571D01*
X27721428Y-46555000D02*
X28435714Y-46555000D01*
X28078571Y-48478571D02*
X28078571Y-46978571D01*
X28435714Y-46555000D02*
X29864285Y-46555000D01*
X28721428Y-48407142D02*
X28935714Y-48478571D01*
X29292857Y-48478571D01*
X29435714Y-48407142D01*
X29507142Y-48335714D01*
X29578571Y-48192857D01*
X29578571Y-48050000D01*
X29507142Y-47907142D01*
X29435714Y-47835714D01*
X29292857Y-47764285D01*
X29007142Y-47692857D01*
X28864285Y-47621428D01*
X28792857Y-47550000D01*
X28721428Y-47407142D01*
X28721428Y-47264285D01*
X28792857Y-47121428D01*
X28864285Y-47050000D01*
X29007142Y-46978571D01*
X29364285Y-46978571D01*
X29578571Y-47050000D01*
X29864285Y-46555000D02*
X31364285Y-46555000D01*
X31078571Y-48335714D02*
X31007142Y-48407142D01*
X30792857Y-48478571D01*
X30650000Y-48478571D01*
X30435714Y-48407142D01*
X30292857Y-48264285D01*
X30221428Y-48121428D01*
X30150000Y-47835714D01*
X30150000Y-47621428D01*
X30221428Y-47335714D01*
X30292857Y-47192857D01*
X30435714Y-47050000D01*
X30650000Y-46978571D01*
X30792857Y-46978571D01*
X31007142Y-47050000D01*
X31078571Y-47121428D01*
X31364285Y-46555000D02*
X32935714Y-46555000D01*
X31721428Y-48478571D02*
X31721428Y-46978571D01*
X31721428Y-47692857D02*
X32578571Y-47692857D01*
X32578571Y-48478571D02*
X32578571Y-46978571D01*
X32935714Y-46555000D02*
X34221428Y-46555000D01*
X33221428Y-48050000D02*
X33935714Y-48050000D01*
X33078571Y-48478571D02*
X33578571Y-46978571D01*
X34078571Y-48478571D01*
X34221428Y-46555000D02*
X35721428Y-46555000D01*
X35435714Y-48478571D02*
X34935714Y-47764285D01*
X34578571Y-48478571D02*
X34578571Y-46978571D01*
X35150000Y-46978571D01*
X35292857Y-47050000D01*
X35364285Y-47121428D01*
X35435714Y-47264285D01*
X35435714Y-47478571D01*
X35364285Y-47621428D01*
X35292857Y-47692857D01*
X35150000Y-47764285D01*
X34578571Y-47764285D01*
X35721428Y-46555000D02*
X37221428Y-46555000D01*
X36864285Y-47050000D02*
X36721428Y-46978571D01*
X36507142Y-46978571D01*
X36292857Y-47050000D01*
X36150000Y-47192857D01*
X36078571Y-47335714D01*
X36007142Y-47621428D01*
X36007142Y-47835714D01*
X36078571Y-48121428D01*
X36150000Y-48264285D01*
X36292857Y-48407142D01*
X36507142Y-48478571D01*
X36650000Y-48478571D01*
X36864285Y-48407142D01*
X36935714Y-48335714D01*
X36935714Y-47835714D01*
X36650000Y-47835714D01*
X37221428Y-46555000D02*
X38578571Y-46555000D01*
X37578571Y-47692857D02*
X38078571Y-47692857D01*
X38292857Y-48478571D02*
X37578571Y-48478571D01*
X37578571Y-46978571D01*
X38292857Y-46978571D01*
%TO.C,R11*%
X123207380Y-49887857D02*
X122731190Y-50221190D01*
X123207380Y-50459285D02*
X122207380Y-50459285D01*
X122207380Y-50078333D01*
X122255000Y-49983095D01*
X122302619Y-49935476D01*
X122397857Y-49887857D01*
X122540714Y-49887857D01*
X122635952Y-49935476D01*
X122683571Y-49983095D01*
X122731190Y-50078333D01*
X122731190Y-50459285D01*
X123207380Y-48935476D02*
X123207380Y-49506904D01*
X123207380Y-49221190D02*
X122207380Y-49221190D01*
X122350238Y-49316428D01*
X122445476Y-49411666D01*
X122493095Y-49506904D01*
X123207380Y-47983095D02*
X123207380Y-48554523D01*
X123207380Y-48268809D02*
X122207380Y-48268809D01*
X122350238Y-48364047D01*
X122445476Y-48459285D01*
X122493095Y-48554523D01*
%TO.C,R9*%
X109994380Y-49411666D02*
X109518190Y-49745000D01*
X109994380Y-49983095D02*
X108994380Y-49983095D01*
X108994380Y-49602142D01*
X109042000Y-49506904D01*
X109089619Y-49459285D01*
X109184857Y-49411666D01*
X109327714Y-49411666D01*
X109422952Y-49459285D01*
X109470571Y-49506904D01*
X109518190Y-49602142D01*
X109518190Y-49983095D01*
X109994380Y-48935476D02*
X109994380Y-48745000D01*
X109946761Y-48649761D01*
X109899142Y-48602142D01*
X109756285Y-48506904D01*
X109565809Y-48459285D01*
X109184857Y-48459285D01*
X109089619Y-48506904D01*
X109042000Y-48554523D01*
X108994380Y-48649761D01*
X108994380Y-48840238D01*
X109042000Y-48935476D01*
X109089619Y-48983095D01*
X109184857Y-49030714D01*
X109422952Y-49030714D01*
X109518190Y-48983095D01*
X109565809Y-48935476D01*
X109613428Y-48840238D01*
X109613428Y-48649761D01*
X109565809Y-48554523D01*
X109518190Y-48506904D01*
X109422952Y-48459285D01*
%TO.C,J1*%
X138497380Y-47453333D02*
X139211666Y-47453333D01*
X139354523Y-47500952D01*
X139449761Y-47596190D01*
X139497380Y-47739047D01*
X139497380Y-47834285D01*
X139497380Y-46453333D02*
X139497380Y-47024761D01*
X139497380Y-46739047D02*
X138497380Y-46739047D01*
X138640238Y-46834285D01*
X138735476Y-46929523D01*
X138783095Y-47024761D01*
%TO.C,R10*%
X93935380Y-37762857D02*
X93459190Y-38096190D01*
X93935380Y-38334285D02*
X92935380Y-38334285D01*
X92935380Y-37953333D01*
X92983000Y-37858095D01*
X93030619Y-37810476D01*
X93125857Y-37762857D01*
X93268714Y-37762857D01*
X93363952Y-37810476D01*
X93411571Y-37858095D01*
X93459190Y-37953333D01*
X93459190Y-38334285D01*
X93935380Y-36810476D02*
X93935380Y-37381904D01*
X93935380Y-37096190D02*
X92935380Y-37096190D01*
X93078238Y-37191428D01*
X93173476Y-37286666D01*
X93221095Y-37381904D01*
X92935380Y-36191428D02*
X92935380Y-36096190D01*
X92983000Y-36000952D01*
X93030619Y-35953333D01*
X93125857Y-35905714D01*
X93316333Y-35858095D01*
X93554428Y-35858095D01*
X93744904Y-35905714D01*
X93840142Y-35953333D01*
X93887761Y-36000952D01*
X93935380Y-36096190D01*
X93935380Y-36191428D01*
X93887761Y-36286666D01*
X93840142Y-36334285D01*
X93744904Y-36381904D01*
X93554428Y-36429523D01*
X93316333Y-36429523D01*
X93125857Y-36381904D01*
X93030619Y-36334285D01*
X92983000Y-36286666D01*
X92935380Y-36191428D01*
%TO.C,R6*%
X67011380Y-37286666D02*
X66535190Y-37620000D01*
X67011380Y-37858095D02*
X66011380Y-37858095D01*
X66011380Y-37477142D01*
X66059000Y-37381904D01*
X66106619Y-37334285D01*
X66201857Y-37286666D01*
X66344714Y-37286666D01*
X66439952Y-37334285D01*
X66487571Y-37381904D01*
X66535190Y-37477142D01*
X66535190Y-37858095D01*
X66011380Y-36429523D02*
X66011380Y-36620000D01*
X66059000Y-36715238D01*
X66106619Y-36762857D01*
X66249476Y-36858095D01*
X66439952Y-36905714D01*
X66820904Y-36905714D01*
X66916142Y-36858095D01*
X66963761Y-36810476D01*
X67011380Y-36715238D01*
X67011380Y-36524761D01*
X66963761Y-36429523D01*
X66916142Y-36381904D01*
X66820904Y-36334285D01*
X66582809Y-36334285D01*
X66487571Y-36381904D01*
X66439952Y-36429523D01*
X66392333Y-36524761D01*
X66392333Y-36715238D01*
X66439952Y-36810476D01*
X66487571Y-36858095D01*
X66582809Y-36905714D01*
%TO.C,R5*%
X83070380Y-49411666D02*
X82594190Y-49745000D01*
X83070380Y-49983095D02*
X82070380Y-49983095D01*
X82070380Y-49602142D01*
X82118000Y-49506904D01*
X82165619Y-49459285D01*
X82260857Y-49411666D01*
X82403714Y-49411666D01*
X82498952Y-49459285D01*
X82546571Y-49506904D01*
X82594190Y-49602142D01*
X82594190Y-49983095D01*
X82070380Y-48506904D02*
X82070380Y-48983095D01*
X82546571Y-49030714D01*
X82498952Y-48983095D01*
X82451333Y-48887857D01*
X82451333Y-48649761D01*
X82498952Y-48554523D01*
X82546571Y-48506904D01*
X82641809Y-48459285D01*
X82879904Y-48459285D01*
X82975142Y-48506904D01*
X83022761Y-48554523D01*
X83070380Y-48649761D01*
X83070380Y-48887857D01*
X83022761Y-48983095D01*
X82975142Y-49030714D01*
%TO.C,J2*%
X138737380Y-59583333D02*
X139451666Y-59583333D01*
X139594523Y-59630952D01*
X139689761Y-59726190D01*
X139737380Y-59869047D01*
X139737380Y-59964285D01*
X138832619Y-59154761D02*
X138785000Y-59107142D01*
X138737380Y-59011904D01*
X138737380Y-58773809D01*
X138785000Y-58678571D01*
X138832619Y-58630952D01*
X138927857Y-58583333D01*
X139023095Y-58583333D01*
X139165952Y-58630952D01*
X139737380Y-59202380D01*
X139737380Y-58583333D01*
%TO.C,R14*%
X114743095Y-65902142D02*
X115124047Y-65568809D01*
X114743095Y-65330714D02*
X115543095Y-65330714D01*
X115543095Y-65711666D01*
X115505000Y-65806904D01*
X115466904Y-65854523D01*
X115390714Y-65902142D01*
X115276428Y-65902142D01*
X115200238Y-65854523D01*
X115162142Y-65806904D01*
X115124047Y-65711666D01*
X115124047Y-65330714D01*
X114743095Y-66854523D02*
X114743095Y-66283095D01*
X114743095Y-66568809D02*
X115543095Y-66568809D01*
X115428809Y-66473571D01*
X115352619Y-66378333D01*
X115314523Y-66283095D01*
X115276428Y-67711666D02*
X114743095Y-67711666D01*
X115581190Y-67473571D02*
X115009761Y-67235476D01*
X115009761Y-67854523D01*
%TO.C,R1*%
X56146380Y-49411666D02*
X55670190Y-49745000D01*
X56146380Y-49983095D02*
X55146380Y-49983095D01*
X55146380Y-49602142D01*
X55194000Y-49506904D01*
X55241619Y-49459285D01*
X55336857Y-49411666D01*
X55479714Y-49411666D01*
X55574952Y-49459285D01*
X55622571Y-49506904D01*
X55670190Y-49602142D01*
X55670190Y-49983095D01*
X56146380Y-48459285D02*
X56146380Y-49030714D01*
X56146380Y-48745000D02*
X55146380Y-48745000D01*
X55289238Y-48840238D01*
X55384476Y-48935476D01*
X55432095Y-49030714D01*
%TO.C,R7*%
X96532380Y-49411666D02*
X96056190Y-49745000D01*
X96532380Y-49983095D02*
X95532380Y-49983095D01*
X95532380Y-49602142D01*
X95580000Y-49506904D01*
X95627619Y-49459285D01*
X95722857Y-49411666D01*
X95865714Y-49411666D01*
X95960952Y-49459285D01*
X96008571Y-49506904D01*
X96056190Y-49602142D01*
X96056190Y-49983095D01*
X95532380Y-49078333D02*
X95532380Y-48411666D01*
X96532380Y-48840238D01*
%TO.C,R12*%
X107397380Y-37762857D02*
X106921190Y-38096190D01*
X107397380Y-38334285D02*
X106397380Y-38334285D01*
X106397380Y-37953333D01*
X106445000Y-37858095D01*
X106492619Y-37810476D01*
X106587857Y-37762857D01*
X106730714Y-37762857D01*
X106825952Y-37810476D01*
X106873571Y-37858095D01*
X106921190Y-37953333D01*
X106921190Y-38334285D01*
X107397380Y-36810476D02*
X107397380Y-37381904D01*
X107397380Y-37096190D02*
X106397380Y-37096190D01*
X106540238Y-37191428D01*
X106635476Y-37286666D01*
X106683095Y-37381904D01*
X106492619Y-36429523D02*
X106445000Y-36381904D01*
X106397380Y-36286666D01*
X106397380Y-36048571D01*
X106445000Y-35953333D01*
X106492619Y-35905714D01*
X106587857Y-35858095D01*
X106683095Y-35858095D01*
X106825952Y-35905714D01*
X107397380Y-36477142D01*
X107397380Y-35858095D01*
%TO.C,R2*%
X40087380Y-37286666D02*
X39611190Y-37620000D01*
X40087380Y-37858095D02*
X39087380Y-37858095D01*
X39087380Y-37477142D01*
X39135000Y-37381904D01*
X39182619Y-37334285D01*
X39277857Y-37286666D01*
X39420714Y-37286666D01*
X39515952Y-37334285D01*
X39563571Y-37381904D01*
X39611190Y-37477142D01*
X39611190Y-37858095D01*
X39182619Y-36905714D02*
X39135000Y-36858095D01*
X39087380Y-36762857D01*
X39087380Y-36524761D01*
X39135000Y-36429523D01*
X39182619Y-36381904D01*
X39277857Y-36334285D01*
X39373095Y-36334285D01*
X39515952Y-36381904D01*
X40087380Y-36953333D01*
X40087380Y-36334285D01*
%TO.C,J3*%
X22917380Y-53333333D02*
X23631666Y-53333333D01*
X23774523Y-53380952D01*
X23869761Y-53476190D01*
X23917380Y-53619047D01*
X23917380Y-53714285D01*
X22917380Y-52952380D02*
X22917380Y-52333333D01*
X23298333Y-52666666D01*
X23298333Y-52523809D01*
X23345952Y-52428571D01*
X23393571Y-52380952D01*
X23488809Y-52333333D01*
X23726904Y-52333333D01*
X23822142Y-52380952D01*
X23869761Y-52428571D01*
X23917380Y-52523809D01*
X23917380Y-52809523D01*
X23869761Y-52904761D01*
X23822142Y-52952380D01*
%TO.C,R4*%
X53549380Y-37286666D02*
X53073190Y-37620000D01*
X53549380Y-37858095D02*
X52549380Y-37858095D01*
X52549380Y-37477142D01*
X52597000Y-37381904D01*
X52644619Y-37334285D01*
X52739857Y-37286666D01*
X52882714Y-37286666D01*
X52977952Y-37334285D01*
X53025571Y-37381904D01*
X53073190Y-37477142D01*
X53073190Y-37858095D01*
X52882714Y-36429523D02*
X53549380Y-36429523D01*
X52501761Y-36667619D02*
X53216047Y-36905714D01*
X53216047Y-36286666D01*
%TO.C,R3*%
X69608380Y-49411666D02*
X69132190Y-49745000D01*
X69608380Y-49983095D02*
X68608380Y-49983095D01*
X68608380Y-49602142D01*
X68656000Y-49506904D01*
X68703619Y-49459285D01*
X68798857Y-49411666D01*
X68941714Y-49411666D01*
X69036952Y-49459285D01*
X69084571Y-49506904D01*
X69132190Y-49602142D01*
X69132190Y-49983095D01*
X68608380Y-49078333D02*
X68608380Y-48459285D01*
X68989333Y-48792619D01*
X68989333Y-48649761D01*
X69036952Y-48554523D01*
X69084571Y-48506904D01*
X69179809Y-48459285D01*
X69417904Y-48459285D01*
X69513142Y-48506904D01*
X69560761Y-48554523D01*
X69608380Y-48649761D01*
X69608380Y-48935476D01*
X69560761Y-49030714D01*
X69513142Y-49078333D01*
D11*
%TO.C,K1*%
X70072619Y-68419523D02*
X70072619Y-67149523D01*
X70798333Y-68419523D02*
X70254047Y-67693809D01*
X70798333Y-67149523D02*
X70072619Y-67875238D01*
X72007857Y-68419523D02*
X71282142Y-68419523D01*
X71645000Y-68419523D02*
X71645000Y-67149523D01*
X71524047Y-67330952D01*
X71403095Y-67451904D01*
X71282142Y-67512380D01*
D10*
%TO.C,R8*%
X80473380Y-37286666D02*
X79997190Y-37620000D01*
X80473380Y-37858095D02*
X79473380Y-37858095D01*
X79473380Y-37477142D01*
X79521000Y-37381904D01*
X79568619Y-37334285D01*
X79663857Y-37286666D01*
X79806714Y-37286666D01*
X79901952Y-37334285D01*
X79949571Y-37381904D01*
X79997190Y-37477142D01*
X79997190Y-37858095D01*
X79901952Y-36715238D02*
X79854333Y-36810476D01*
X79806714Y-36858095D01*
X79711476Y-36905714D01*
X79663857Y-36905714D01*
X79568619Y-36858095D01*
X79521000Y-36810476D01*
X79473380Y-36715238D01*
X79473380Y-36524761D01*
X79521000Y-36429523D01*
X79568619Y-36381904D01*
X79663857Y-36334285D01*
X79711476Y-36334285D01*
X79806714Y-36381904D01*
X79854333Y-36429523D01*
X79901952Y-36524761D01*
X79901952Y-36715238D01*
X79949571Y-36810476D01*
X79997190Y-36858095D01*
X80092428Y-36905714D01*
X80282904Y-36905714D01*
X80378142Y-36858095D01*
X80425761Y-36810476D01*
X80473380Y-36715238D01*
X80473380Y-36524761D01*
X80425761Y-36429523D01*
X80378142Y-36381904D01*
X80282904Y-36334285D01*
X80092428Y-36334285D01*
X79997190Y-36381904D01*
X79949571Y-36429523D01*
X79901952Y-36524761D01*
%TO.C,R13*%
X122743095Y-65902142D02*
X123124047Y-65568809D01*
X122743095Y-65330714D02*
X123543095Y-65330714D01*
X123543095Y-65711666D01*
X123505000Y-65806904D01*
X123466904Y-65854523D01*
X123390714Y-65902142D01*
X123276428Y-65902142D01*
X123200238Y-65854523D01*
X123162142Y-65806904D01*
X123124047Y-65711666D01*
X123124047Y-65330714D01*
X122743095Y-66854523D02*
X122743095Y-66283095D01*
X122743095Y-66568809D02*
X123543095Y-66568809D01*
X123428809Y-66473571D01*
X123352619Y-66378333D01*
X123314523Y-66283095D01*
X123543095Y-67187857D02*
X123543095Y-67806904D01*
X123238333Y-67473571D01*
X123238333Y-67616428D01*
X123200238Y-67711666D01*
X123162142Y-67759285D01*
X123085952Y-67806904D01*
X122895476Y-67806904D01*
X122819285Y-67759285D01*
X122781190Y-67711666D01*
X122743095Y-67616428D01*
X122743095Y-67330714D01*
X122781190Y-67235476D01*
X122819285Y-67187857D01*
D12*
%TO.C,R11*%
X121305000Y-46295000D02*
X119495000Y-46295000D01*
X110905000Y-47795000D02*
X110905000Y-46295000D01*
X119495000Y-46295000D02*
X119495000Y-41170000D01*
X112715000Y-46295000D02*
X112715000Y-45195000D01*
X110905000Y-46295000D02*
X112715000Y-46295000D01*
X121305000Y-47795000D02*
X121305000Y-46295000D01*
%TO.C,R9*%
X99502000Y-46295000D02*
X99502000Y-45195000D01*
X106282000Y-46295000D02*
X106282000Y-41170000D01*
X108092000Y-46295000D02*
X106282000Y-46295000D01*
X108092000Y-47795000D02*
X108092000Y-46295000D01*
X97692000Y-47795000D02*
X97692000Y-46295000D01*
X97692000Y-46295000D02*
X99502000Y-46295000D01*
%TO.C,J1*%
X127825000Y-43435000D02*
X136955000Y-43435000D01*
X136955000Y-43435000D02*
X137955000Y-44435000D01*
X137955000Y-44435000D02*
X137955000Y-49805000D01*
X136955000Y-50805000D02*
X127825000Y-50805000D01*
X127825000Y-50805000D02*
X127825000Y-43435000D01*
X137955000Y-49805000D02*
X136955000Y-50805000D01*
%TO.C,R10*%
X94933000Y-40070000D02*
X96743000Y-40070000D01*
X105333000Y-40070000D02*
X103523000Y-40070000D01*
X96743000Y-40070000D02*
X96743000Y-45195000D01*
X103523000Y-40070000D02*
X103523000Y-41170000D01*
X105333000Y-38570000D02*
X105333000Y-40070000D01*
X94933000Y-38570000D02*
X94933000Y-40070000D01*
%TO.C,R6*%
X78409000Y-40070000D02*
X76599000Y-40070000D01*
X78409000Y-38570000D02*
X78409000Y-40070000D01*
X68009000Y-38570000D02*
X68009000Y-40070000D01*
X76599000Y-40070000D02*
X76599000Y-41170000D01*
X68009000Y-40070000D02*
X69819000Y-40070000D01*
X69819000Y-40070000D02*
X69819000Y-45195000D01*
%TO.C,R5*%
X70768000Y-47795000D02*
X70768000Y-46295000D01*
X81168000Y-46295000D02*
X79358000Y-46295000D01*
X81168000Y-47795000D02*
X81168000Y-46295000D01*
X72578000Y-46295000D02*
X72578000Y-45195000D01*
X79358000Y-46295000D02*
X79358000Y-41170000D01*
X70768000Y-46295000D02*
X72578000Y-46295000D01*
%TO.C,J2*%
X128065000Y-55565000D02*
X137195000Y-55565000D01*
X138195000Y-61935000D02*
X137195000Y-62935000D01*
X138195000Y-56565000D02*
X138195000Y-61935000D01*
X128065000Y-62935000D02*
X128065000Y-55565000D01*
X137195000Y-62935000D02*
X128065000Y-62935000D01*
X137195000Y-55565000D02*
X138195000Y-56565000D01*
%TO.C,R14*%
X113855000Y-63245000D02*
X108405000Y-63245000D01*
X108405000Y-63245000D02*
X108405000Y-69345000D01*
X108405000Y-69345000D02*
X113855000Y-69345000D01*
X113855000Y-69345000D02*
X113855000Y-63245000D01*
%TO.C,R1*%
X43844000Y-47795000D02*
X43844000Y-46295000D01*
X52434000Y-46295000D02*
X52434000Y-41170000D01*
X45654000Y-46295000D02*
X45654000Y-45195000D01*
X54244000Y-46295000D02*
X52434000Y-46295000D01*
X43844000Y-46295000D02*
X45654000Y-46295000D01*
X54244000Y-47795000D02*
X54244000Y-46295000D01*
%TO.C,R7*%
X84230000Y-47795000D02*
X84230000Y-46295000D01*
X86040000Y-46295000D02*
X86040000Y-45195000D01*
X94630000Y-46295000D02*
X92820000Y-46295000D01*
X84230000Y-46295000D02*
X86040000Y-46295000D01*
X94630000Y-47795000D02*
X94630000Y-46295000D01*
X92820000Y-46295000D02*
X92820000Y-41170000D01*
%TO.C,R12*%
X118795000Y-40070000D02*
X116985000Y-40070000D01*
X116985000Y-40070000D02*
X116985000Y-41170000D01*
X118795000Y-38570000D02*
X118795000Y-40070000D01*
X108395000Y-40070000D02*
X110205000Y-40070000D01*
X110205000Y-40070000D02*
X110205000Y-45195000D01*
X108395000Y-38570000D02*
X108395000Y-40070000D01*
%TO.C,R2*%
X51485000Y-40070000D02*
X49675000Y-40070000D01*
X41085000Y-38570000D02*
X41085000Y-40070000D01*
X51485000Y-38570000D02*
X51485000Y-40070000D01*
X42895000Y-40070000D02*
X42895000Y-45195000D01*
X49675000Y-40070000D02*
X49675000Y-41170000D01*
X41085000Y-40070000D02*
X42895000Y-40070000D01*
%TO.C,J3*%
X34685000Y-56685000D02*
X25555000Y-56685000D01*
X25555000Y-49315000D02*
X34685000Y-49315000D01*
X24555000Y-50315000D02*
X25555000Y-49315000D01*
X34685000Y-49315000D02*
X34685000Y-56685000D01*
X24555000Y-55685000D02*
X24555000Y-50315000D01*
X25555000Y-56685000D02*
X24555000Y-55685000D01*
%TO.C,R4*%
X64947000Y-40070000D02*
X63137000Y-40070000D01*
X64947000Y-38570000D02*
X64947000Y-40070000D01*
X54547000Y-40070000D02*
X56357000Y-40070000D01*
X63137000Y-40070000D02*
X63137000Y-41170000D01*
X54547000Y-38570000D02*
X54547000Y-40070000D01*
X56357000Y-40070000D02*
X56357000Y-45195000D01*
%TO.C,R3*%
X57306000Y-46295000D02*
X59116000Y-46295000D01*
X67706000Y-47795000D02*
X67706000Y-46295000D01*
X67706000Y-46295000D02*
X65896000Y-46295000D01*
X65896000Y-46295000D02*
X65896000Y-41170000D01*
X57306000Y-47795000D02*
X57306000Y-46295000D01*
X59116000Y-46295000D02*
X59116000Y-45195000D01*
D13*
%TO.C,K1*%
X102000000Y-60825000D02*
X42000000Y-60825000D01*
X42000000Y-60825000D02*
X42000000Y-76625000D01*
X102000000Y-76625000D02*
X102000000Y-60825000D01*
D14*
X102500000Y-68725000D02*
X102500000Y-68725000D01*
D13*
X42000000Y-76625000D02*
X102000000Y-76625000D01*
D14*
X102600000Y-68725000D02*
X102600000Y-68725000D01*
X102500000Y-68725000D02*
G75*
G03*
X102600000Y-68725000I50000J0D01*
G01*
X102600000Y-68725000D02*
G75*
G03*
X102500000Y-68725000I-50000J0D01*
G01*
D12*
%TO.C,R8*%
X81471000Y-40070000D02*
X83281000Y-40070000D01*
X83281000Y-40070000D02*
X83281000Y-45195000D01*
X90061000Y-40070000D02*
X90061000Y-41170000D01*
X91871000Y-40070000D02*
X90061000Y-40070000D01*
X91871000Y-38570000D02*
X91871000Y-40070000D01*
X81471000Y-38570000D02*
X81471000Y-40070000D01*
%TO.C,R13*%
X121855000Y-63245000D02*
X116405000Y-63245000D01*
X116405000Y-63245000D02*
X116405000Y-69345000D01*
X116405000Y-69345000D02*
X121855000Y-69345000D01*
X121855000Y-69345000D02*
X121855000Y-63245000D01*
%TD*%
M02*
