%TF.GenerationSoftware,KiCad,Pcbnew,(6.0.7-1)-1*%
%TF.CreationDate,2022-12-11T21:31:16-05:00*%
%TF.ProjectId,ResistorNetwork,52657369-7374-46f7-924e-6574776f726b,rev?*%
%TF.SameCoordinates,Original*%
%TF.FileFunction,Legend,Top*%
%TF.FilePolarity,Positive*%
%FSLAX46Y46*%
G04 Gerber Fmt 4.6, Leading zero omitted, Abs format (unit mm)*
G04 Created by KiCad (PCBNEW (6.0.7-1)-1) date 2022-12-11 21:31:16*
%MOMM*%
%LPD*%
G01*
G04 APERTURE LIST*
%ADD10C,0.150000*%
%ADD11C,0.254000*%
%ADD12C,0.200000*%
%ADD13C,0.100000*%
%ADD14C,0.120000*%
G04 APERTURE END LIST*
D10*
X26821428Y-45505000D02*
X28321428Y-45505000D01*
X27178571Y-47428571D02*
X27178571Y-45928571D01*
X27535714Y-45928571D01*
X27750000Y-46000000D01*
X27892857Y-46142857D01*
X27964285Y-46285714D01*
X28035714Y-46571428D01*
X28035714Y-46785714D01*
X27964285Y-47071428D01*
X27892857Y-47214285D01*
X27750000Y-47357142D01*
X27535714Y-47428571D01*
X27178571Y-47428571D01*
X28321428Y-45505000D02*
X29035714Y-45505000D01*
X28678571Y-47428571D02*
X28678571Y-45928571D01*
X29035714Y-45505000D02*
X30464285Y-45505000D01*
X29321428Y-47357142D02*
X29535714Y-47428571D01*
X29892857Y-47428571D01*
X30035714Y-47357142D01*
X30107142Y-47285714D01*
X30178571Y-47142857D01*
X30178571Y-47000000D01*
X30107142Y-46857142D01*
X30035714Y-46785714D01*
X29892857Y-46714285D01*
X29607142Y-46642857D01*
X29464285Y-46571428D01*
X29392857Y-46500000D01*
X29321428Y-46357142D01*
X29321428Y-46214285D01*
X29392857Y-46071428D01*
X29464285Y-46000000D01*
X29607142Y-45928571D01*
X29964285Y-45928571D01*
X30178571Y-46000000D01*
X30464285Y-45505000D02*
X31964285Y-45505000D01*
X31678571Y-47285714D02*
X31607142Y-47357142D01*
X31392857Y-47428571D01*
X31250000Y-47428571D01*
X31035714Y-47357142D01*
X30892857Y-47214285D01*
X30821428Y-47071428D01*
X30750000Y-46785714D01*
X30750000Y-46571428D01*
X30821428Y-46285714D01*
X30892857Y-46142857D01*
X31035714Y-46000000D01*
X31250000Y-45928571D01*
X31392857Y-45928571D01*
X31607142Y-46000000D01*
X31678571Y-46071428D01*
X31964285Y-45505000D02*
X33535714Y-45505000D01*
X32321428Y-47428571D02*
X32321428Y-45928571D01*
X32321428Y-46642857D02*
X33178571Y-46642857D01*
X33178571Y-47428571D02*
X33178571Y-45928571D01*
X33535714Y-45505000D02*
X34821428Y-45505000D01*
X33821428Y-47000000D02*
X34535714Y-47000000D01*
X33678571Y-47428571D02*
X34178571Y-45928571D01*
X34678571Y-47428571D01*
X34821428Y-45505000D02*
X36321428Y-45505000D01*
X36035714Y-47428571D02*
X35535714Y-46714285D01*
X35178571Y-47428571D02*
X35178571Y-45928571D01*
X35750000Y-45928571D01*
X35892857Y-46000000D01*
X35964285Y-46071428D01*
X36035714Y-46214285D01*
X36035714Y-46428571D01*
X35964285Y-46571428D01*
X35892857Y-46642857D01*
X35750000Y-46714285D01*
X35178571Y-46714285D01*
X36321428Y-45505000D02*
X37821428Y-45505000D01*
X37464285Y-46000000D02*
X37321428Y-45928571D01*
X37107142Y-45928571D01*
X36892857Y-46000000D01*
X36750000Y-46142857D01*
X36678571Y-46285714D01*
X36607142Y-46571428D01*
X36607142Y-46785714D01*
X36678571Y-47071428D01*
X36750000Y-47214285D01*
X36892857Y-47357142D01*
X37107142Y-47428571D01*
X37250000Y-47428571D01*
X37464285Y-47357142D01*
X37535714Y-47285714D01*
X37535714Y-46785714D01*
X37250000Y-46785714D01*
X37821428Y-45505000D02*
X39178571Y-45505000D01*
X38178571Y-46642857D02*
X38678571Y-46642857D01*
X38892857Y-47428571D02*
X38178571Y-47428571D01*
X38178571Y-45928571D01*
X38892857Y-45928571D01*
X129750000Y-64263571D02*
X130607142Y-64263571D01*
X130178571Y-65763571D02*
X130178571Y-64263571D01*
X131035714Y-65692142D02*
X131250000Y-65763571D01*
X131607142Y-65763571D01*
X131750000Y-65692142D01*
X131821428Y-65620714D01*
X131892857Y-65477857D01*
X131892857Y-65335000D01*
X131821428Y-65192142D01*
X131750000Y-65120714D01*
X131607142Y-65049285D01*
X131321428Y-64977857D01*
X131178571Y-64906428D01*
X131107142Y-64835000D01*
X131035714Y-64692142D01*
X131035714Y-64549285D01*
X131107142Y-64406428D01*
X131178571Y-64335000D01*
X131321428Y-64263571D01*
X131678571Y-64263571D01*
X131892857Y-64335000D01*
X132535714Y-65763571D02*
X132535714Y-64263571D01*
X133035714Y-65335000D01*
X133535714Y-64263571D01*
X133535714Y-65763571D01*
X134250000Y-65763571D02*
X134250000Y-64263571D01*
X134821428Y-64263571D01*
X134964285Y-64335000D01*
X135035714Y-64406428D01*
X135107142Y-64549285D01*
X135107142Y-64763571D01*
X135035714Y-64906428D01*
X134964285Y-64977857D01*
X134821428Y-65049285D01*
X134250000Y-65049285D01*
X124857142Y-42221071D02*
X124857142Y-40721071D01*
X124857142Y-41435357D02*
X125714285Y-41435357D01*
X125714285Y-42221071D02*
X125714285Y-40721071D01*
X126214285Y-40721071D02*
X126714285Y-42221071D01*
X127214285Y-40721071D01*
X127714285Y-41649642D02*
X128857142Y-41649642D01*
X128285714Y-42221071D02*
X128285714Y-41078214D01*
X130642857Y-40649642D02*
X129357142Y-42578214D01*
X131142857Y-42221071D02*
X131142857Y-40721071D01*
X131142857Y-41435357D02*
X132000000Y-41435357D01*
X132000000Y-42221071D02*
X132000000Y-40721071D01*
X132500000Y-40721071D02*
X133000000Y-42221071D01*
X133500000Y-40721071D01*
X134000000Y-41649642D02*
X135142857Y-41649642D01*
D11*
%TO.C,K1*%
X70072619Y-68419523D02*
X70072619Y-67149523D01*
X70798333Y-68419523D02*
X70254047Y-67693809D01*
X70798333Y-67149523D02*
X70072619Y-67875238D01*
X72007857Y-68419523D02*
X71282142Y-68419523D01*
X71645000Y-68419523D02*
X71645000Y-67149523D01*
X71524047Y-67330952D01*
X71403095Y-67451904D01*
X71282142Y-67512380D01*
D10*
%TO.C,R14*%
X114743095Y-65902142D02*
X115124047Y-65568809D01*
X114743095Y-65330714D02*
X115543095Y-65330714D01*
X115543095Y-65711666D01*
X115505000Y-65806904D01*
X115466904Y-65854523D01*
X115390714Y-65902142D01*
X115276428Y-65902142D01*
X115200238Y-65854523D01*
X115162142Y-65806904D01*
X115124047Y-65711666D01*
X115124047Y-65330714D01*
X114743095Y-66854523D02*
X114743095Y-66283095D01*
X114743095Y-66568809D02*
X115543095Y-66568809D01*
X115428809Y-66473571D01*
X115352619Y-66378333D01*
X115314523Y-66283095D01*
X115276428Y-67711666D02*
X114743095Y-67711666D01*
X115581190Y-67473571D02*
X115009761Y-67235476D01*
X115009761Y-67854523D01*
%TO.C,R13*%
X122743095Y-65902142D02*
X123124047Y-65568809D01*
X122743095Y-65330714D02*
X123543095Y-65330714D01*
X123543095Y-65711666D01*
X123505000Y-65806904D01*
X123466904Y-65854523D01*
X123390714Y-65902142D01*
X123276428Y-65902142D01*
X123200238Y-65854523D01*
X123162142Y-65806904D01*
X123124047Y-65711666D01*
X123124047Y-65330714D01*
X122743095Y-66854523D02*
X122743095Y-66283095D01*
X122743095Y-66568809D02*
X123543095Y-66568809D01*
X123428809Y-66473571D01*
X123352619Y-66378333D01*
X123314523Y-66283095D01*
X123543095Y-67187857D02*
X123543095Y-67806904D01*
X123238333Y-67473571D01*
X123238333Y-67616428D01*
X123200238Y-67711666D01*
X123162142Y-67759285D01*
X123085952Y-67806904D01*
X122895476Y-67806904D01*
X122819285Y-67759285D01*
X122781190Y-67711666D01*
X122743095Y-67616428D01*
X122743095Y-67330714D01*
X122781190Y-67235476D01*
X122819285Y-67187857D01*
%TO.C,J3*%
X22917380Y-53333333D02*
X23631666Y-53333333D01*
X23774523Y-53380952D01*
X23869761Y-53476190D01*
X23917380Y-53619047D01*
X23917380Y-53714285D01*
X22917380Y-52952380D02*
X22917380Y-52333333D01*
X23298333Y-52666666D01*
X23298333Y-52523809D01*
X23345952Y-52428571D01*
X23393571Y-52380952D01*
X23488809Y-52333333D01*
X23726904Y-52333333D01*
X23822142Y-52380952D01*
X23869761Y-52428571D01*
X23917380Y-52523809D01*
X23917380Y-52809523D01*
X23869761Y-52904761D01*
X23822142Y-52952380D01*
%TO.C,J2*%
X138737380Y-59583333D02*
X139451666Y-59583333D01*
X139594523Y-59630952D01*
X139689761Y-59726190D01*
X139737380Y-59869047D01*
X139737380Y-59964285D01*
X138832619Y-59154761D02*
X138785000Y-59107142D01*
X138737380Y-59011904D01*
X138737380Y-58773809D01*
X138785000Y-58678571D01*
X138832619Y-58630952D01*
X138927857Y-58583333D01*
X139023095Y-58583333D01*
X139165952Y-58630952D01*
X139737380Y-59202380D01*
X139737380Y-58583333D01*
%TO.C,R11*%
X123207380Y-49887857D02*
X122731190Y-50221190D01*
X123207380Y-50459285D02*
X122207380Y-50459285D01*
X122207380Y-50078333D01*
X122255000Y-49983095D01*
X122302619Y-49935476D01*
X122397857Y-49887857D01*
X122540714Y-49887857D01*
X122635952Y-49935476D01*
X122683571Y-49983095D01*
X122731190Y-50078333D01*
X122731190Y-50459285D01*
X123207380Y-48935476D02*
X123207380Y-49506904D01*
X123207380Y-49221190D02*
X122207380Y-49221190D01*
X122350238Y-49316428D01*
X122445476Y-49411666D01*
X122493095Y-49506904D01*
X123207380Y-47983095D02*
X123207380Y-48554523D01*
X123207380Y-48268809D02*
X122207380Y-48268809D01*
X122350238Y-48364047D01*
X122445476Y-48459285D01*
X122493095Y-48554523D01*
%TO.C,R9*%
X109994380Y-49411666D02*
X109518190Y-49745000D01*
X109994380Y-49983095D02*
X108994380Y-49983095D01*
X108994380Y-49602142D01*
X109042000Y-49506904D01*
X109089619Y-49459285D01*
X109184857Y-49411666D01*
X109327714Y-49411666D01*
X109422952Y-49459285D01*
X109470571Y-49506904D01*
X109518190Y-49602142D01*
X109518190Y-49983095D01*
X109994380Y-48935476D02*
X109994380Y-48745000D01*
X109946761Y-48649761D01*
X109899142Y-48602142D01*
X109756285Y-48506904D01*
X109565809Y-48459285D01*
X109184857Y-48459285D01*
X109089619Y-48506904D01*
X109042000Y-48554523D01*
X108994380Y-48649761D01*
X108994380Y-48840238D01*
X109042000Y-48935476D01*
X109089619Y-48983095D01*
X109184857Y-49030714D01*
X109422952Y-49030714D01*
X109518190Y-48983095D01*
X109565809Y-48935476D01*
X109613428Y-48840238D01*
X109613428Y-48649761D01*
X109565809Y-48554523D01*
X109518190Y-48506904D01*
X109422952Y-48459285D01*
%TO.C,J1*%
X138497380Y-47453333D02*
X139211666Y-47453333D01*
X139354523Y-47500952D01*
X139449761Y-47596190D01*
X139497380Y-47739047D01*
X139497380Y-47834285D01*
X139497380Y-46453333D02*
X139497380Y-47024761D01*
X139497380Y-46739047D02*
X138497380Y-46739047D01*
X138640238Y-46834285D01*
X138735476Y-46929523D01*
X138783095Y-47024761D01*
%TO.C,R10*%
X93935380Y-37762857D02*
X93459190Y-38096190D01*
X93935380Y-38334285D02*
X92935380Y-38334285D01*
X92935380Y-37953333D01*
X92983000Y-37858095D01*
X93030619Y-37810476D01*
X93125857Y-37762857D01*
X93268714Y-37762857D01*
X93363952Y-37810476D01*
X93411571Y-37858095D01*
X93459190Y-37953333D01*
X93459190Y-38334285D01*
X93935380Y-36810476D02*
X93935380Y-37381904D01*
X93935380Y-37096190D02*
X92935380Y-37096190D01*
X93078238Y-37191428D01*
X93173476Y-37286666D01*
X93221095Y-37381904D01*
X92935380Y-36191428D02*
X92935380Y-36096190D01*
X92983000Y-36000952D01*
X93030619Y-35953333D01*
X93125857Y-35905714D01*
X93316333Y-35858095D01*
X93554428Y-35858095D01*
X93744904Y-35905714D01*
X93840142Y-35953333D01*
X93887761Y-36000952D01*
X93935380Y-36096190D01*
X93935380Y-36191428D01*
X93887761Y-36286666D01*
X93840142Y-36334285D01*
X93744904Y-36381904D01*
X93554428Y-36429523D01*
X93316333Y-36429523D01*
X93125857Y-36381904D01*
X93030619Y-36334285D01*
X92983000Y-36286666D01*
X92935380Y-36191428D01*
%TO.C,R6*%
X67011380Y-37286666D02*
X66535190Y-37620000D01*
X67011380Y-37858095D02*
X66011380Y-37858095D01*
X66011380Y-37477142D01*
X66059000Y-37381904D01*
X66106619Y-37334285D01*
X66201857Y-37286666D01*
X66344714Y-37286666D01*
X66439952Y-37334285D01*
X66487571Y-37381904D01*
X66535190Y-37477142D01*
X66535190Y-37858095D01*
X66011380Y-36429523D02*
X66011380Y-36620000D01*
X66059000Y-36715238D01*
X66106619Y-36762857D01*
X66249476Y-36858095D01*
X66439952Y-36905714D01*
X66820904Y-36905714D01*
X66916142Y-36858095D01*
X66963761Y-36810476D01*
X67011380Y-36715238D01*
X67011380Y-36524761D01*
X66963761Y-36429523D01*
X66916142Y-36381904D01*
X66820904Y-36334285D01*
X66582809Y-36334285D01*
X66487571Y-36381904D01*
X66439952Y-36429523D01*
X66392333Y-36524761D01*
X66392333Y-36715238D01*
X66439952Y-36810476D01*
X66487571Y-36858095D01*
X66582809Y-36905714D01*
%TO.C,R5*%
X83070380Y-49411666D02*
X82594190Y-49745000D01*
X83070380Y-49983095D02*
X82070380Y-49983095D01*
X82070380Y-49602142D01*
X82118000Y-49506904D01*
X82165619Y-49459285D01*
X82260857Y-49411666D01*
X82403714Y-49411666D01*
X82498952Y-49459285D01*
X82546571Y-49506904D01*
X82594190Y-49602142D01*
X82594190Y-49983095D01*
X82070380Y-48506904D02*
X82070380Y-48983095D01*
X82546571Y-49030714D01*
X82498952Y-48983095D01*
X82451333Y-48887857D01*
X82451333Y-48649761D01*
X82498952Y-48554523D01*
X82546571Y-48506904D01*
X82641809Y-48459285D01*
X82879904Y-48459285D01*
X82975142Y-48506904D01*
X83022761Y-48554523D01*
X83070380Y-48649761D01*
X83070380Y-48887857D01*
X83022761Y-48983095D01*
X82975142Y-49030714D01*
%TO.C,R1*%
X56146380Y-49411666D02*
X55670190Y-49745000D01*
X56146380Y-49983095D02*
X55146380Y-49983095D01*
X55146380Y-49602142D01*
X55194000Y-49506904D01*
X55241619Y-49459285D01*
X55336857Y-49411666D01*
X55479714Y-49411666D01*
X55574952Y-49459285D01*
X55622571Y-49506904D01*
X55670190Y-49602142D01*
X55670190Y-49983095D01*
X56146380Y-48459285D02*
X56146380Y-49030714D01*
X56146380Y-48745000D02*
X55146380Y-48745000D01*
X55289238Y-48840238D01*
X55384476Y-48935476D01*
X55432095Y-49030714D01*
%TO.C,R7*%
X96532380Y-49411666D02*
X96056190Y-49745000D01*
X96532380Y-49983095D02*
X95532380Y-49983095D01*
X95532380Y-49602142D01*
X95580000Y-49506904D01*
X95627619Y-49459285D01*
X95722857Y-49411666D01*
X95865714Y-49411666D01*
X95960952Y-49459285D01*
X96008571Y-49506904D01*
X96056190Y-49602142D01*
X96056190Y-49983095D01*
X95532380Y-49078333D02*
X95532380Y-48411666D01*
X96532380Y-48840238D01*
%TO.C,R12*%
X107397380Y-37762857D02*
X106921190Y-38096190D01*
X107397380Y-38334285D02*
X106397380Y-38334285D01*
X106397380Y-37953333D01*
X106445000Y-37858095D01*
X106492619Y-37810476D01*
X106587857Y-37762857D01*
X106730714Y-37762857D01*
X106825952Y-37810476D01*
X106873571Y-37858095D01*
X106921190Y-37953333D01*
X106921190Y-38334285D01*
X107397380Y-36810476D02*
X107397380Y-37381904D01*
X107397380Y-37096190D02*
X106397380Y-37096190D01*
X106540238Y-37191428D01*
X106635476Y-37286666D01*
X106683095Y-37381904D01*
X106492619Y-36429523D02*
X106445000Y-36381904D01*
X106397380Y-36286666D01*
X106397380Y-36048571D01*
X106445000Y-35953333D01*
X106492619Y-35905714D01*
X106587857Y-35858095D01*
X106683095Y-35858095D01*
X106825952Y-35905714D01*
X107397380Y-36477142D01*
X107397380Y-35858095D01*
%TO.C,R2*%
X40087380Y-37286666D02*
X39611190Y-37620000D01*
X40087380Y-37858095D02*
X39087380Y-37858095D01*
X39087380Y-37477142D01*
X39135000Y-37381904D01*
X39182619Y-37334285D01*
X39277857Y-37286666D01*
X39420714Y-37286666D01*
X39515952Y-37334285D01*
X39563571Y-37381904D01*
X39611190Y-37477142D01*
X39611190Y-37858095D01*
X39182619Y-36905714D02*
X39135000Y-36858095D01*
X39087380Y-36762857D01*
X39087380Y-36524761D01*
X39135000Y-36429523D01*
X39182619Y-36381904D01*
X39277857Y-36334285D01*
X39373095Y-36334285D01*
X39515952Y-36381904D01*
X40087380Y-36953333D01*
X40087380Y-36334285D01*
%TO.C,R4*%
X53549380Y-37286666D02*
X53073190Y-37620000D01*
X53549380Y-37858095D02*
X52549380Y-37858095D01*
X52549380Y-37477142D01*
X52597000Y-37381904D01*
X52644619Y-37334285D01*
X52739857Y-37286666D01*
X52882714Y-37286666D01*
X52977952Y-37334285D01*
X53025571Y-37381904D01*
X53073190Y-37477142D01*
X53073190Y-37858095D01*
X52882714Y-36429523D02*
X53549380Y-36429523D01*
X52501761Y-36667619D02*
X53216047Y-36905714D01*
X53216047Y-36286666D01*
%TO.C,R3*%
X69608380Y-49411666D02*
X69132190Y-49745000D01*
X69608380Y-49983095D02*
X68608380Y-49983095D01*
X68608380Y-49602142D01*
X68656000Y-49506904D01*
X68703619Y-49459285D01*
X68798857Y-49411666D01*
X68941714Y-49411666D01*
X69036952Y-49459285D01*
X69084571Y-49506904D01*
X69132190Y-49602142D01*
X69132190Y-49983095D01*
X68608380Y-49078333D02*
X68608380Y-48459285D01*
X68989333Y-48792619D01*
X68989333Y-48649761D01*
X69036952Y-48554523D01*
X69084571Y-48506904D01*
X69179809Y-48459285D01*
X69417904Y-48459285D01*
X69513142Y-48506904D01*
X69560761Y-48554523D01*
X69608380Y-48649761D01*
X69608380Y-48935476D01*
X69560761Y-49030714D01*
X69513142Y-49078333D01*
%TO.C,R8*%
X80473380Y-37286666D02*
X79997190Y-37620000D01*
X80473380Y-37858095D02*
X79473380Y-37858095D01*
X79473380Y-37477142D01*
X79521000Y-37381904D01*
X79568619Y-37334285D01*
X79663857Y-37286666D01*
X79806714Y-37286666D01*
X79901952Y-37334285D01*
X79949571Y-37381904D01*
X79997190Y-37477142D01*
X79997190Y-37858095D01*
X79901952Y-36715238D02*
X79854333Y-36810476D01*
X79806714Y-36858095D01*
X79711476Y-36905714D01*
X79663857Y-36905714D01*
X79568619Y-36858095D01*
X79521000Y-36810476D01*
X79473380Y-36715238D01*
X79473380Y-36524761D01*
X79521000Y-36429523D01*
X79568619Y-36381904D01*
X79663857Y-36334285D01*
X79711476Y-36334285D01*
X79806714Y-36381904D01*
X79854333Y-36429523D01*
X79901952Y-36524761D01*
X79901952Y-36715238D01*
X79949571Y-36810476D01*
X79997190Y-36858095D01*
X80092428Y-36905714D01*
X80282904Y-36905714D01*
X80378142Y-36858095D01*
X80425761Y-36810476D01*
X80473380Y-36715238D01*
X80473380Y-36524761D01*
X80425761Y-36429523D01*
X80378142Y-36381904D01*
X80282904Y-36334285D01*
X80092428Y-36334285D01*
X79997190Y-36381904D01*
X79949571Y-36429523D01*
X79901952Y-36524761D01*
D12*
%TO.C,K1*%
X102000000Y-60825000D02*
X42000000Y-60825000D01*
X42000000Y-60825000D02*
X42000000Y-76625000D01*
X42000000Y-76625000D02*
X102000000Y-76625000D01*
X102000000Y-76625000D02*
X102000000Y-60825000D01*
D13*
X102600000Y-68725000D02*
X102600000Y-68725000D01*
X102500000Y-68725000D02*
X102500000Y-68725000D01*
X102600000Y-68725000D02*
G75*
G03*
X102500000Y-68725000I-50000J0D01*
G01*
X102500000Y-68725000D02*
G75*
G03*
X102600000Y-68725000I50000J0D01*
G01*
D14*
%TO.C,R14*%
X113855000Y-63245000D02*
X108405000Y-63245000D01*
X108405000Y-63245000D02*
X108405000Y-69345000D01*
X108405000Y-69345000D02*
X113855000Y-69345000D01*
X113855000Y-69345000D02*
X113855000Y-63245000D01*
%TO.C,R13*%
X121855000Y-63245000D02*
X116405000Y-63245000D01*
X116405000Y-63245000D02*
X116405000Y-69345000D01*
X116405000Y-69345000D02*
X121855000Y-69345000D01*
X121855000Y-69345000D02*
X121855000Y-63245000D01*
%TO.C,J3*%
X25555000Y-56685000D02*
X24555000Y-55685000D01*
X34685000Y-49315000D02*
X34685000Y-56685000D01*
X25555000Y-49315000D02*
X34685000Y-49315000D01*
X24555000Y-50315000D02*
X25555000Y-49315000D01*
X24555000Y-55685000D02*
X24555000Y-50315000D01*
X34685000Y-56685000D02*
X25555000Y-56685000D01*
%TO.C,J2*%
X128065000Y-55565000D02*
X137195000Y-55565000D01*
X138195000Y-56565000D02*
X138195000Y-61935000D01*
X138195000Y-61935000D02*
X137195000Y-62935000D01*
X137195000Y-62935000D02*
X128065000Y-62935000D01*
X128065000Y-62935000D02*
X128065000Y-55565000D01*
X137195000Y-55565000D02*
X138195000Y-56565000D01*
%TO.C,R11*%
X121305000Y-46295000D02*
X119495000Y-46295000D01*
X110905000Y-47795000D02*
X110905000Y-46295000D01*
X119495000Y-46295000D02*
X119495000Y-41170000D01*
X112715000Y-46295000D02*
X112715000Y-45195000D01*
X110905000Y-46295000D02*
X112715000Y-46295000D01*
X121305000Y-47795000D02*
X121305000Y-46295000D01*
%TO.C,R9*%
X99502000Y-46295000D02*
X99502000Y-45195000D01*
X106282000Y-46295000D02*
X106282000Y-41170000D01*
X108092000Y-46295000D02*
X106282000Y-46295000D01*
X108092000Y-47795000D02*
X108092000Y-46295000D01*
X97692000Y-47795000D02*
X97692000Y-46295000D01*
X97692000Y-46295000D02*
X99502000Y-46295000D01*
%TO.C,J1*%
X137955000Y-49805000D02*
X136955000Y-50805000D01*
X127825000Y-50805000D02*
X127825000Y-43435000D01*
X136955000Y-50805000D02*
X127825000Y-50805000D01*
X137955000Y-44435000D02*
X137955000Y-49805000D01*
X136955000Y-43435000D02*
X137955000Y-44435000D01*
X127825000Y-43435000D02*
X136955000Y-43435000D01*
%TO.C,R10*%
X94933000Y-40070000D02*
X96743000Y-40070000D01*
X105333000Y-40070000D02*
X103523000Y-40070000D01*
X96743000Y-40070000D02*
X96743000Y-45195000D01*
X103523000Y-40070000D02*
X103523000Y-41170000D01*
X105333000Y-38570000D02*
X105333000Y-40070000D01*
X94933000Y-38570000D02*
X94933000Y-40070000D01*
%TO.C,R6*%
X78409000Y-40070000D02*
X76599000Y-40070000D01*
X78409000Y-38570000D02*
X78409000Y-40070000D01*
X68009000Y-38570000D02*
X68009000Y-40070000D01*
X76599000Y-40070000D02*
X76599000Y-41170000D01*
X68009000Y-40070000D02*
X69819000Y-40070000D01*
X69819000Y-40070000D02*
X69819000Y-45195000D01*
%TO.C,R5*%
X70768000Y-47795000D02*
X70768000Y-46295000D01*
X81168000Y-46295000D02*
X79358000Y-46295000D01*
X81168000Y-47795000D02*
X81168000Y-46295000D01*
X72578000Y-46295000D02*
X72578000Y-45195000D01*
X79358000Y-46295000D02*
X79358000Y-41170000D01*
X70768000Y-46295000D02*
X72578000Y-46295000D01*
%TO.C,R1*%
X43844000Y-47795000D02*
X43844000Y-46295000D01*
X52434000Y-46295000D02*
X52434000Y-41170000D01*
X45654000Y-46295000D02*
X45654000Y-45195000D01*
X54244000Y-46295000D02*
X52434000Y-46295000D01*
X43844000Y-46295000D02*
X45654000Y-46295000D01*
X54244000Y-47795000D02*
X54244000Y-46295000D01*
%TO.C,R7*%
X84230000Y-47795000D02*
X84230000Y-46295000D01*
X86040000Y-46295000D02*
X86040000Y-45195000D01*
X94630000Y-46295000D02*
X92820000Y-46295000D01*
X84230000Y-46295000D02*
X86040000Y-46295000D01*
X94630000Y-47795000D02*
X94630000Y-46295000D01*
X92820000Y-46295000D02*
X92820000Y-41170000D01*
%TO.C,R12*%
X118795000Y-40070000D02*
X116985000Y-40070000D01*
X116985000Y-40070000D02*
X116985000Y-41170000D01*
X118795000Y-38570000D02*
X118795000Y-40070000D01*
X108395000Y-40070000D02*
X110205000Y-40070000D01*
X110205000Y-40070000D02*
X110205000Y-45195000D01*
X108395000Y-38570000D02*
X108395000Y-40070000D01*
%TO.C,R2*%
X51485000Y-40070000D02*
X49675000Y-40070000D01*
X41085000Y-38570000D02*
X41085000Y-40070000D01*
X51485000Y-38570000D02*
X51485000Y-40070000D01*
X42895000Y-40070000D02*
X42895000Y-45195000D01*
X49675000Y-40070000D02*
X49675000Y-41170000D01*
X41085000Y-40070000D02*
X42895000Y-40070000D01*
%TO.C,R4*%
X64947000Y-40070000D02*
X63137000Y-40070000D01*
X64947000Y-38570000D02*
X64947000Y-40070000D01*
X54547000Y-40070000D02*
X56357000Y-40070000D01*
X63137000Y-40070000D02*
X63137000Y-41170000D01*
X54547000Y-38570000D02*
X54547000Y-40070000D01*
X56357000Y-40070000D02*
X56357000Y-45195000D01*
%TO.C,R3*%
X57306000Y-46295000D02*
X59116000Y-46295000D01*
X67706000Y-47795000D02*
X67706000Y-46295000D01*
X67706000Y-46295000D02*
X65896000Y-46295000D01*
X65896000Y-46295000D02*
X65896000Y-41170000D01*
X57306000Y-47795000D02*
X57306000Y-46295000D01*
X59116000Y-46295000D02*
X59116000Y-45195000D01*
%TO.C,R8*%
X81471000Y-40070000D02*
X83281000Y-40070000D01*
X83281000Y-40070000D02*
X83281000Y-45195000D01*
X90061000Y-40070000D02*
X90061000Y-41170000D01*
X91871000Y-40070000D02*
X90061000Y-40070000D01*
X91871000Y-38570000D02*
X91871000Y-40070000D01*
X81471000Y-38570000D02*
X81471000Y-40070000D01*
%TD*%
M02*
