%TF.GenerationSoftware,KiCad,Pcbnew,(6.0.7-1)-1*%
%TF.CreationDate,2022-12-17T15:07:59-05:00*%
%TF.ProjectId,ResistorNetwork,52657369-7374-46f7-924e-6574776f726b,rev?*%
%TF.SameCoordinates,Original*%
%TF.FileFunction,Paste,Top*%
%TF.FilePolarity,Positive*%
%FSLAX46Y46*%
G04 Gerber Fmt 4.6, Leading zero omitted, Abs format (unit mm)*
G04 Created by KiCad (PCBNEW (6.0.7-1)-1) date 2022-12-17 15:07:59*
%MOMM*%
%LPD*%
G01*
G04 APERTURE LIST*
%ADD10R,5.250000X4.550000*%
%ADD11R,1.100000X4.600000*%
%ADD12R,5.500000X3.900000*%
G04 APERTURE END LIST*
D10*
%TO.C,R11*%
X113330000Y-55045000D03*
X118880000Y-55045000D03*
X118880000Y-50195000D03*
X113330000Y-50195000D03*
D11*
X118645000Y-43470000D03*
X113565000Y-43470000D03*
%TD*%
D10*
%TO.C,R9*%
X105667000Y-50195000D03*
X100117000Y-55045000D03*
X100117000Y-50195000D03*
X105667000Y-55045000D03*
D11*
X105432000Y-43470000D03*
X100352000Y-43470000D03*
%TD*%
D10*
%TO.C,R10*%
X97358000Y-31320000D03*
X102908000Y-36170000D03*
X97358000Y-36170000D03*
X102908000Y-31320000D03*
D11*
X97593000Y-42895000D03*
X102673000Y-42895000D03*
%TD*%
D10*
%TO.C,R6*%
X75984000Y-36170000D03*
X70434000Y-31320000D03*
X70434000Y-36170000D03*
X75984000Y-31320000D03*
D11*
X70669000Y-42895000D03*
X75749000Y-42895000D03*
%TD*%
D10*
%TO.C,R5*%
X73193000Y-50195000D03*
X73193000Y-55045000D03*
X78743000Y-50195000D03*
X78743000Y-55045000D03*
D11*
X78508000Y-43470000D03*
X73428000Y-43470000D03*
%TD*%
D12*
%TO.C,R14*%
X111105000Y-61245000D03*
X111105000Y-71245000D03*
%TD*%
D10*
%TO.C,R1*%
X51819000Y-50195000D03*
X46269000Y-55045000D03*
X51819000Y-55045000D03*
X46269000Y-50195000D03*
D11*
X51584000Y-43470000D03*
X46504000Y-43470000D03*
%TD*%
D10*
%TO.C,R7*%
X86655000Y-50195000D03*
X92205000Y-50195000D03*
X86655000Y-55045000D03*
X92205000Y-55045000D03*
D11*
X91970000Y-43470000D03*
X86890000Y-43470000D03*
%TD*%
D10*
%TO.C,R12*%
X116370000Y-31320000D03*
X110820000Y-36170000D03*
X110820000Y-31320000D03*
X116370000Y-36170000D03*
D11*
X111055000Y-42895000D03*
X116135000Y-42895000D03*
%TD*%
D10*
%TO.C,R2*%
X49060000Y-31320000D03*
X43510000Y-31320000D03*
X49060000Y-36170000D03*
X43510000Y-36170000D03*
D11*
X43745000Y-42895000D03*
X48825000Y-42895000D03*
%TD*%
D10*
%TO.C,R4*%
X56972000Y-36170000D03*
X62522000Y-36170000D03*
X56972000Y-31320000D03*
X62522000Y-31320000D03*
D11*
X57207000Y-42895000D03*
X62287000Y-42895000D03*
%TD*%
D10*
%TO.C,R3*%
X65281000Y-55045000D03*
X59731000Y-50195000D03*
X59731000Y-55045000D03*
X65281000Y-50195000D03*
D11*
X65046000Y-43470000D03*
X59966000Y-43470000D03*
%TD*%
D10*
%TO.C,R8*%
X89446000Y-36170000D03*
X89446000Y-31320000D03*
X83896000Y-36170000D03*
X83896000Y-31320000D03*
D11*
X84131000Y-42895000D03*
X89211000Y-42895000D03*
%TD*%
D12*
%TO.C,R13*%
X119105000Y-61245000D03*
X119105000Y-71245000D03*
%TD*%
M02*
