%TF.GenerationSoftware,KiCad,Pcbnew,(6.0.7-1)-1*%
%TF.CreationDate,2022-12-17T15:07:54-05:00*%
%TF.ProjectId,ResistorNetwork,52657369-7374-46f7-924e-6574776f726b,rev?*%
%TF.SameCoordinates,Original*%
%TF.FileFunction,Drillmap*%
%TF.FilePolarity,Positive*%
%FSLAX45Y45*%
G04 Gerber Fmt 4.5, Leading zero omitted, Abs format (unit mm)*
G04 Created by KiCad (PCBNEW (6.0.7-1)-1) date 2022-12-17 15:07:54*
%MOMM*%
%LPD*%
G01*
G04 APERTURE LIST*
%ADD10C,0.100000*%
%ADD11C,0.200000*%
%ADD12C,0.300000*%
%ADD13C,0.430000*%
G04 APERTURE END LIST*
D10*
X2600000Y-2800000D02*
X13600000Y-2800000D01*
X13600000Y-2800000D02*
X13600000Y-7800000D01*
X13600000Y-7800000D02*
X2600000Y-7800000D01*
X2600000Y-7800000D02*
X2600000Y-2800000D01*
D11*
D12*
X2776500Y-5150000D02*
X3076500Y-5450000D01*
X3076500Y-5150000D02*
X2776500Y-5450000D01*
X13174500Y-4562000D02*
X13474500Y-4862000D01*
X13474500Y-4562000D02*
X13174500Y-4862000D01*
X13198500Y-5775000D02*
X13498500Y-6075000D01*
X13498500Y-5775000D02*
X13198500Y-6075000D01*
D13*
X3315000Y-3300000D02*
G75*
G03*
X3315000Y-3300000I-215000J0D01*
G01*
X3315000Y-7300000D02*
G75*
G03*
X3315000Y-7300000I-215000J0D01*
G01*
X13315000Y-3300000D02*
G75*
G03*
X13315000Y-3300000I-215000J0D01*
G01*
X13315000Y-7300000D02*
G75*
G03*
X13315000Y-7300000I-215000J0D01*
G01*
D11*
X2852619Y-8115476D02*
X2852619Y-7915476D01*
X2900238Y-7915476D01*
X2928809Y-7925000D01*
X2947857Y-7944048D01*
X2957381Y-7963095D01*
X2966905Y-8001190D01*
X2966905Y-8029762D01*
X2957381Y-8067857D01*
X2947857Y-8086905D01*
X2928809Y-8105952D01*
X2900238Y-8115476D01*
X2852619Y-8115476D01*
X3052619Y-8115476D02*
X3052619Y-7982143D01*
X3052619Y-8020238D02*
X3062143Y-8001190D01*
X3071667Y-7991667D01*
X3090714Y-7982143D01*
X3109762Y-7982143D01*
X3176428Y-8115476D02*
X3176428Y-7982143D01*
X3176428Y-7915476D02*
X3166905Y-7925000D01*
X3176428Y-7934524D01*
X3185952Y-7925000D01*
X3176428Y-7915476D01*
X3176428Y-7934524D01*
X3300238Y-8115476D02*
X3281190Y-8105952D01*
X3271667Y-8086905D01*
X3271667Y-7915476D01*
X3405000Y-8115476D02*
X3385952Y-8105952D01*
X3376428Y-8086905D01*
X3376428Y-7915476D01*
X3633571Y-8115476D02*
X3633571Y-7915476D01*
X3700238Y-8058333D01*
X3766905Y-7915476D01*
X3766905Y-8115476D01*
X3947857Y-8115476D02*
X3947857Y-8010714D01*
X3938333Y-7991667D01*
X3919286Y-7982143D01*
X3881190Y-7982143D01*
X3862143Y-7991667D01*
X3947857Y-8105952D02*
X3928809Y-8115476D01*
X3881190Y-8115476D01*
X3862143Y-8105952D01*
X3852619Y-8086905D01*
X3852619Y-8067857D01*
X3862143Y-8048809D01*
X3881190Y-8039286D01*
X3928809Y-8039286D01*
X3947857Y-8029762D01*
X4043095Y-7982143D02*
X4043095Y-8182143D01*
X4043095Y-7991667D02*
X4062143Y-7982143D01*
X4100238Y-7982143D01*
X4119286Y-7991667D01*
X4128809Y-8001190D01*
X4138333Y-8020238D01*
X4138333Y-8077381D01*
X4128809Y-8096428D01*
X4119286Y-8105952D01*
X4100238Y-8115476D01*
X4062143Y-8115476D01*
X4043095Y-8105952D01*
X4224048Y-8096428D02*
X4233571Y-8105952D01*
X4224048Y-8115476D01*
X4214524Y-8105952D01*
X4224048Y-8096428D01*
X4224048Y-8115476D01*
X4224048Y-7991667D02*
X4233571Y-8001190D01*
X4224048Y-8010714D01*
X4214524Y-8001190D01*
X4224048Y-7991667D01*
X4224048Y-8010714D01*
X2395000Y-8345000D02*
X2595000Y-8545000D01*
X2595000Y-8345000D02*
X2395000Y-8545000D01*
X2833571Y-8335476D02*
X2957381Y-8335476D01*
X2890714Y-8411667D01*
X2919286Y-8411667D01*
X2938333Y-8421190D01*
X2947857Y-8430714D01*
X2957381Y-8449762D01*
X2957381Y-8497381D01*
X2947857Y-8516429D01*
X2938333Y-8525952D01*
X2919286Y-8535476D01*
X2862143Y-8535476D01*
X2843095Y-8525952D01*
X2833571Y-8516429D01*
X3043095Y-8516429D02*
X3052619Y-8525952D01*
X3043095Y-8535476D01*
X3033571Y-8525952D01*
X3043095Y-8516429D01*
X3043095Y-8535476D01*
X3176428Y-8335476D02*
X3195476Y-8335476D01*
X3214524Y-8345000D01*
X3224048Y-8354524D01*
X3233571Y-8373571D01*
X3243095Y-8411667D01*
X3243095Y-8459286D01*
X3233571Y-8497381D01*
X3224048Y-8516429D01*
X3214524Y-8525952D01*
X3195476Y-8535476D01*
X3176428Y-8535476D01*
X3157381Y-8525952D01*
X3147857Y-8516429D01*
X3138333Y-8497381D01*
X3128809Y-8459286D01*
X3128809Y-8411667D01*
X3138333Y-8373571D01*
X3147857Y-8354524D01*
X3157381Y-8345000D01*
X3176428Y-8335476D01*
X3366905Y-8335476D02*
X3385952Y-8335476D01*
X3405000Y-8345000D01*
X3414524Y-8354524D01*
X3424048Y-8373571D01*
X3433571Y-8411667D01*
X3433571Y-8459286D01*
X3424048Y-8497381D01*
X3414524Y-8516429D01*
X3405000Y-8525952D01*
X3385952Y-8535476D01*
X3366905Y-8535476D01*
X3347857Y-8525952D01*
X3338333Y-8516429D01*
X3328809Y-8497381D01*
X3319286Y-8459286D01*
X3319286Y-8411667D01*
X3328809Y-8373571D01*
X3338333Y-8354524D01*
X3347857Y-8345000D01*
X3366905Y-8335476D01*
X3557381Y-8335476D02*
X3576428Y-8335476D01*
X3595476Y-8345000D01*
X3605000Y-8354524D01*
X3614524Y-8373571D01*
X3624048Y-8411667D01*
X3624048Y-8459286D01*
X3614524Y-8497381D01*
X3605000Y-8516429D01*
X3595476Y-8525952D01*
X3576428Y-8535476D01*
X3557381Y-8535476D01*
X3538333Y-8525952D01*
X3528809Y-8516429D01*
X3519286Y-8497381D01*
X3509762Y-8459286D01*
X3509762Y-8411667D01*
X3519286Y-8373571D01*
X3528809Y-8354524D01*
X3538333Y-8345000D01*
X3557381Y-8335476D01*
X3709762Y-8535476D02*
X3709762Y-8402143D01*
X3709762Y-8421190D02*
X3719286Y-8411667D01*
X3738333Y-8402143D01*
X3766905Y-8402143D01*
X3785952Y-8411667D01*
X3795476Y-8430714D01*
X3795476Y-8535476D01*
X3795476Y-8430714D02*
X3805000Y-8411667D01*
X3824048Y-8402143D01*
X3852619Y-8402143D01*
X3871667Y-8411667D01*
X3881190Y-8430714D01*
X3881190Y-8535476D01*
X3976428Y-8535476D02*
X3976428Y-8402143D01*
X3976428Y-8421190D02*
X3985952Y-8411667D01*
X4005000Y-8402143D01*
X4033571Y-8402143D01*
X4052619Y-8411667D01*
X4062143Y-8430714D01*
X4062143Y-8535476D01*
X4062143Y-8430714D02*
X4071667Y-8411667D01*
X4090714Y-8402143D01*
X4119286Y-8402143D01*
X4138333Y-8411667D01*
X4147857Y-8430714D01*
X4147857Y-8535476D01*
X4538333Y-8325952D02*
X4366905Y-8583095D01*
X4795476Y-8335476D02*
X4814524Y-8335476D01*
X4833571Y-8345000D01*
X4843095Y-8354524D01*
X4852619Y-8373571D01*
X4862143Y-8411667D01*
X4862143Y-8459286D01*
X4852619Y-8497381D01*
X4843095Y-8516429D01*
X4833571Y-8525952D01*
X4814524Y-8535476D01*
X4795476Y-8535476D01*
X4776429Y-8525952D01*
X4766905Y-8516429D01*
X4757381Y-8497381D01*
X4747857Y-8459286D01*
X4747857Y-8411667D01*
X4757381Y-8373571D01*
X4766905Y-8354524D01*
X4776429Y-8345000D01*
X4795476Y-8335476D01*
X4947857Y-8516429D02*
X4957381Y-8525952D01*
X4947857Y-8535476D01*
X4938333Y-8525952D01*
X4947857Y-8516429D01*
X4947857Y-8535476D01*
X5147857Y-8535476D02*
X5033571Y-8535476D01*
X5090714Y-8535476D02*
X5090714Y-8335476D01*
X5071667Y-8364048D01*
X5052619Y-8383095D01*
X5033571Y-8392619D01*
X5338333Y-8535476D02*
X5224048Y-8535476D01*
X5281190Y-8535476D02*
X5281190Y-8335476D01*
X5262143Y-8364048D01*
X5243095Y-8383095D01*
X5224048Y-8392619D01*
X5452619Y-8421190D02*
X5433571Y-8411667D01*
X5424048Y-8402143D01*
X5414524Y-8383095D01*
X5414524Y-8373571D01*
X5424048Y-8354524D01*
X5433571Y-8345000D01*
X5452619Y-8335476D01*
X5490714Y-8335476D01*
X5509762Y-8345000D01*
X5519286Y-8354524D01*
X5528810Y-8373571D01*
X5528810Y-8383095D01*
X5519286Y-8402143D01*
X5509762Y-8411667D01*
X5490714Y-8421190D01*
X5452619Y-8421190D01*
X5433571Y-8430714D01*
X5424048Y-8440238D01*
X5414524Y-8459286D01*
X5414524Y-8497381D01*
X5424048Y-8516429D01*
X5433571Y-8525952D01*
X5452619Y-8535476D01*
X5490714Y-8535476D01*
X5509762Y-8525952D01*
X5519286Y-8516429D01*
X5528810Y-8497381D01*
X5528810Y-8459286D01*
X5519286Y-8440238D01*
X5509762Y-8430714D01*
X5490714Y-8421190D01*
X5719286Y-8535476D02*
X5605000Y-8535476D01*
X5662143Y-8535476D02*
X5662143Y-8335476D01*
X5643095Y-8364048D01*
X5624048Y-8383095D01*
X5605000Y-8392619D01*
X5795476Y-8335476D02*
X5795476Y-8373571D01*
X5871667Y-8335476D02*
X5871667Y-8373571D01*
X6166905Y-8611667D02*
X6157381Y-8602143D01*
X6138333Y-8573571D01*
X6128809Y-8554524D01*
X6119286Y-8525952D01*
X6109762Y-8478333D01*
X6109762Y-8440238D01*
X6119286Y-8392619D01*
X6128809Y-8364048D01*
X6138333Y-8345000D01*
X6157381Y-8316428D01*
X6166905Y-8306905D01*
X6224048Y-8335476D02*
X6347857Y-8335476D01*
X6281190Y-8411667D01*
X6309762Y-8411667D01*
X6328809Y-8421190D01*
X6338333Y-8430714D01*
X6347857Y-8449762D01*
X6347857Y-8497381D01*
X6338333Y-8516429D01*
X6328809Y-8525952D01*
X6309762Y-8535476D01*
X6252619Y-8535476D01*
X6233571Y-8525952D01*
X6224048Y-8516429D01*
X6585952Y-8535476D02*
X6585952Y-8335476D01*
X6671667Y-8535476D02*
X6671667Y-8430714D01*
X6662143Y-8411667D01*
X6643095Y-8402143D01*
X6614524Y-8402143D01*
X6595476Y-8411667D01*
X6585952Y-8421190D01*
X6795476Y-8535476D02*
X6776428Y-8525952D01*
X6766905Y-8516429D01*
X6757381Y-8497381D01*
X6757381Y-8440238D01*
X6766905Y-8421190D01*
X6776428Y-8411667D01*
X6795476Y-8402143D01*
X6824048Y-8402143D01*
X6843095Y-8411667D01*
X6852619Y-8421190D01*
X6862143Y-8440238D01*
X6862143Y-8497381D01*
X6852619Y-8516429D01*
X6843095Y-8525952D01*
X6824048Y-8535476D01*
X6795476Y-8535476D01*
X6976428Y-8535476D02*
X6957381Y-8525952D01*
X6947857Y-8506905D01*
X6947857Y-8335476D01*
X7128809Y-8525952D02*
X7109762Y-8535476D01*
X7071667Y-8535476D01*
X7052619Y-8525952D01*
X7043095Y-8506905D01*
X7043095Y-8430714D01*
X7052619Y-8411667D01*
X7071667Y-8402143D01*
X7109762Y-8402143D01*
X7128809Y-8411667D01*
X7138333Y-8430714D01*
X7138333Y-8449762D01*
X7043095Y-8468810D01*
X7214524Y-8525952D02*
X7233571Y-8535476D01*
X7271667Y-8535476D01*
X7290714Y-8525952D01*
X7300238Y-8506905D01*
X7300238Y-8497381D01*
X7290714Y-8478333D01*
X7271667Y-8468810D01*
X7243095Y-8468810D01*
X7224048Y-8459286D01*
X7214524Y-8440238D01*
X7214524Y-8430714D01*
X7224048Y-8411667D01*
X7243095Y-8402143D01*
X7271667Y-8402143D01*
X7290714Y-8411667D01*
X7366905Y-8611667D02*
X7376428Y-8602143D01*
X7395476Y-8573571D01*
X7405000Y-8554524D01*
X7414524Y-8525952D01*
X7424048Y-8478333D01*
X7424048Y-8440238D01*
X7414524Y-8392619D01*
X7405000Y-8364048D01*
X7395476Y-8345000D01*
X7376428Y-8316428D01*
X7366905Y-8306905D01*
X7728809Y-8611667D02*
X7719286Y-8602143D01*
X7700238Y-8573571D01*
X7690714Y-8554524D01*
X7681190Y-8525952D01*
X7671667Y-8478333D01*
X7671667Y-8440238D01*
X7681190Y-8392619D01*
X7690714Y-8364048D01*
X7700238Y-8345000D01*
X7719286Y-8316428D01*
X7728809Y-8306905D01*
X7805000Y-8402143D02*
X7805000Y-8535476D01*
X7805000Y-8421190D02*
X7814524Y-8411667D01*
X7833571Y-8402143D01*
X7862143Y-8402143D01*
X7881190Y-8411667D01*
X7890714Y-8430714D01*
X7890714Y-8535476D01*
X8014524Y-8535476D02*
X7995476Y-8525952D01*
X7985952Y-8516429D01*
X7976428Y-8497381D01*
X7976428Y-8440238D01*
X7985952Y-8421190D01*
X7995476Y-8411667D01*
X8014524Y-8402143D01*
X8043095Y-8402143D01*
X8062143Y-8411667D01*
X8071667Y-8421190D01*
X8081190Y-8440238D01*
X8081190Y-8497381D01*
X8071667Y-8516429D01*
X8062143Y-8525952D01*
X8043095Y-8535476D01*
X8014524Y-8535476D01*
X8138333Y-8402143D02*
X8214524Y-8402143D01*
X8166905Y-8335476D02*
X8166905Y-8506905D01*
X8176428Y-8525952D01*
X8195476Y-8535476D01*
X8214524Y-8535476D01*
X8433571Y-8402143D02*
X8433571Y-8602143D01*
X8433571Y-8411667D02*
X8452619Y-8402143D01*
X8490714Y-8402143D01*
X8509762Y-8411667D01*
X8519286Y-8421190D01*
X8528810Y-8440238D01*
X8528810Y-8497381D01*
X8519286Y-8516429D01*
X8509762Y-8525952D01*
X8490714Y-8535476D01*
X8452619Y-8535476D01*
X8433571Y-8525952D01*
X8643095Y-8535476D02*
X8624048Y-8525952D01*
X8614524Y-8506905D01*
X8614524Y-8335476D01*
X8805000Y-8535476D02*
X8805000Y-8430714D01*
X8795476Y-8411667D01*
X8776429Y-8402143D01*
X8738333Y-8402143D01*
X8719286Y-8411667D01*
X8805000Y-8525952D02*
X8785952Y-8535476D01*
X8738333Y-8535476D01*
X8719286Y-8525952D01*
X8709762Y-8506905D01*
X8709762Y-8487857D01*
X8719286Y-8468810D01*
X8738333Y-8459286D01*
X8785952Y-8459286D01*
X8805000Y-8449762D01*
X8871667Y-8402143D02*
X8947857Y-8402143D01*
X8900238Y-8335476D02*
X8900238Y-8506905D01*
X8909762Y-8525952D01*
X8928810Y-8535476D01*
X8947857Y-8535476D01*
X9090714Y-8525952D02*
X9071667Y-8535476D01*
X9033571Y-8535476D01*
X9014524Y-8525952D01*
X9005000Y-8506905D01*
X9005000Y-8430714D01*
X9014524Y-8411667D01*
X9033571Y-8402143D01*
X9071667Y-8402143D01*
X9090714Y-8411667D01*
X9100238Y-8430714D01*
X9100238Y-8449762D01*
X9005000Y-8468810D01*
X9271667Y-8535476D02*
X9271667Y-8335476D01*
X9271667Y-8525952D02*
X9252619Y-8535476D01*
X9214524Y-8535476D01*
X9195476Y-8525952D01*
X9185952Y-8516429D01*
X9176429Y-8497381D01*
X9176429Y-8440238D01*
X9185952Y-8421190D01*
X9195476Y-8411667D01*
X9214524Y-8402143D01*
X9252619Y-8402143D01*
X9271667Y-8411667D01*
X9347857Y-8611667D02*
X9357381Y-8602143D01*
X9376429Y-8573571D01*
X9385952Y-8554524D01*
X9395476Y-8525952D01*
X9405000Y-8478333D01*
X9405000Y-8440238D01*
X9395476Y-8392619D01*
X9385952Y-8364048D01*
X9376429Y-8345000D01*
X9357381Y-8316428D01*
X9347857Y-8306905D01*
X2595000Y-8765000D02*
G75*
G03*
X2595000Y-8765000I-100000J0D01*
G01*
X2938333Y-8722143D02*
X2938333Y-8855476D01*
X2890714Y-8645952D02*
X2843095Y-8788810D01*
X2966905Y-8788810D01*
X3043095Y-8836429D02*
X3052619Y-8845952D01*
X3043095Y-8855476D01*
X3033571Y-8845952D01*
X3043095Y-8836429D01*
X3043095Y-8855476D01*
X3119286Y-8655476D02*
X3243095Y-8655476D01*
X3176428Y-8731667D01*
X3205000Y-8731667D01*
X3224048Y-8741190D01*
X3233571Y-8750714D01*
X3243095Y-8769762D01*
X3243095Y-8817381D01*
X3233571Y-8836429D01*
X3224048Y-8845952D01*
X3205000Y-8855476D01*
X3147857Y-8855476D01*
X3128809Y-8845952D01*
X3119286Y-8836429D01*
X3366905Y-8655476D02*
X3385952Y-8655476D01*
X3405000Y-8665000D01*
X3414524Y-8674524D01*
X3424048Y-8693571D01*
X3433571Y-8731667D01*
X3433571Y-8779286D01*
X3424048Y-8817381D01*
X3414524Y-8836429D01*
X3405000Y-8845952D01*
X3385952Y-8855476D01*
X3366905Y-8855476D01*
X3347857Y-8845952D01*
X3338333Y-8836429D01*
X3328809Y-8817381D01*
X3319286Y-8779286D01*
X3319286Y-8731667D01*
X3328809Y-8693571D01*
X3338333Y-8674524D01*
X3347857Y-8665000D01*
X3366905Y-8655476D01*
X3557381Y-8655476D02*
X3576428Y-8655476D01*
X3595476Y-8665000D01*
X3605000Y-8674524D01*
X3614524Y-8693571D01*
X3624048Y-8731667D01*
X3624048Y-8779286D01*
X3614524Y-8817381D01*
X3605000Y-8836429D01*
X3595476Y-8845952D01*
X3576428Y-8855476D01*
X3557381Y-8855476D01*
X3538333Y-8845952D01*
X3528809Y-8836429D01*
X3519286Y-8817381D01*
X3509762Y-8779286D01*
X3509762Y-8731667D01*
X3519286Y-8693571D01*
X3528809Y-8674524D01*
X3538333Y-8665000D01*
X3557381Y-8655476D01*
X3709762Y-8855476D02*
X3709762Y-8722143D01*
X3709762Y-8741190D02*
X3719286Y-8731667D01*
X3738333Y-8722143D01*
X3766905Y-8722143D01*
X3785952Y-8731667D01*
X3795476Y-8750714D01*
X3795476Y-8855476D01*
X3795476Y-8750714D02*
X3805000Y-8731667D01*
X3824048Y-8722143D01*
X3852619Y-8722143D01*
X3871667Y-8731667D01*
X3881190Y-8750714D01*
X3881190Y-8855476D01*
X3976428Y-8855476D02*
X3976428Y-8722143D01*
X3976428Y-8741190D02*
X3985952Y-8731667D01*
X4005000Y-8722143D01*
X4033571Y-8722143D01*
X4052619Y-8731667D01*
X4062143Y-8750714D01*
X4062143Y-8855476D01*
X4062143Y-8750714D02*
X4071667Y-8731667D01*
X4090714Y-8722143D01*
X4119286Y-8722143D01*
X4138333Y-8731667D01*
X4147857Y-8750714D01*
X4147857Y-8855476D01*
X4538333Y-8645952D02*
X4366905Y-8903095D01*
X4795476Y-8655476D02*
X4814524Y-8655476D01*
X4833571Y-8665000D01*
X4843095Y-8674524D01*
X4852619Y-8693571D01*
X4862143Y-8731667D01*
X4862143Y-8779286D01*
X4852619Y-8817381D01*
X4843095Y-8836429D01*
X4833571Y-8845952D01*
X4814524Y-8855476D01*
X4795476Y-8855476D01*
X4776429Y-8845952D01*
X4766905Y-8836429D01*
X4757381Y-8817381D01*
X4747857Y-8779286D01*
X4747857Y-8731667D01*
X4757381Y-8693571D01*
X4766905Y-8674524D01*
X4776429Y-8665000D01*
X4795476Y-8655476D01*
X4947857Y-8836429D02*
X4957381Y-8845952D01*
X4947857Y-8855476D01*
X4938333Y-8845952D01*
X4947857Y-8836429D01*
X4947857Y-8855476D01*
X5147857Y-8855476D02*
X5033571Y-8855476D01*
X5090714Y-8855476D02*
X5090714Y-8655476D01*
X5071667Y-8684048D01*
X5052619Y-8703095D01*
X5033571Y-8712619D01*
X5319286Y-8655476D02*
X5281190Y-8655476D01*
X5262143Y-8665000D01*
X5252619Y-8674524D01*
X5233571Y-8703095D01*
X5224048Y-8741190D01*
X5224048Y-8817381D01*
X5233571Y-8836429D01*
X5243095Y-8845952D01*
X5262143Y-8855476D01*
X5300238Y-8855476D01*
X5319286Y-8845952D01*
X5328810Y-8836429D01*
X5338333Y-8817381D01*
X5338333Y-8769762D01*
X5328810Y-8750714D01*
X5319286Y-8741190D01*
X5300238Y-8731667D01*
X5262143Y-8731667D01*
X5243095Y-8741190D01*
X5233571Y-8750714D01*
X5224048Y-8769762D01*
X5433571Y-8855476D02*
X5471667Y-8855476D01*
X5490714Y-8845952D01*
X5500238Y-8836429D01*
X5519286Y-8807857D01*
X5528810Y-8769762D01*
X5528810Y-8693571D01*
X5519286Y-8674524D01*
X5509762Y-8665000D01*
X5490714Y-8655476D01*
X5452619Y-8655476D01*
X5433571Y-8665000D01*
X5424048Y-8674524D01*
X5414524Y-8693571D01*
X5414524Y-8741190D01*
X5424048Y-8760238D01*
X5433571Y-8769762D01*
X5452619Y-8779286D01*
X5490714Y-8779286D01*
X5509762Y-8769762D01*
X5519286Y-8760238D01*
X5528810Y-8741190D01*
X5595476Y-8655476D02*
X5719286Y-8655476D01*
X5652619Y-8731667D01*
X5681190Y-8731667D01*
X5700238Y-8741190D01*
X5709762Y-8750714D01*
X5719286Y-8769762D01*
X5719286Y-8817381D01*
X5709762Y-8836429D01*
X5700238Y-8845952D01*
X5681190Y-8855476D01*
X5624048Y-8855476D01*
X5605000Y-8845952D01*
X5595476Y-8836429D01*
X5795476Y-8655476D02*
X5795476Y-8693571D01*
X5871667Y-8655476D02*
X5871667Y-8693571D01*
X6166905Y-8931667D02*
X6157381Y-8922143D01*
X6138333Y-8893571D01*
X6128809Y-8874524D01*
X6119286Y-8845952D01*
X6109762Y-8798333D01*
X6109762Y-8760238D01*
X6119286Y-8712619D01*
X6128809Y-8684048D01*
X6138333Y-8665000D01*
X6157381Y-8636429D01*
X6166905Y-8626905D01*
X6328809Y-8722143D02*
X6328809Y-8855476D01*
X6281190Y-8645952D02*
X6233571Y-8788810D01*
X6357381Y-8788810D01*
X6585952Y-8855476D02*
X6585952Y-8655476D01*
X6671667Y-8855476D02*
X6671667Y-8750714D01*
X6662143Y-8731667D01*
X6643095Y-8722143D01*
X6614524Y-8722143D01*
X6595476Y-8731667D01*
X6585952Y-8741190D01*
X6795476Y-8855476D02*
X6776428Y-8845952D01*
X6766905Y-8836429D01*
X6757381Y-8817381D01*
X6757381Y-8760238D01*
X6766905Y-8741190D01*
X6776428Y-8731667D01*
X6795476Y-8722143D01*
X6824048Y-8722143D01*
X6843095Y-8731667D01*
X6852619Y-8741190D01*
X6862143Y-8760238D01*
X6862143Y-8817381D01*
X6852619Y-8836429D01*
X6843095Y-8845952D01*
X6824048Y-8855476D01*
X6795476Y-8855476D01*
X6976428Y-8855476D02*
X6957381Y-8845952D01*
X6947857Y-8826905D01*
X6947857Y-8655476D01*
X7128809Y-8845952D02*
X7109762Y-8855476D01*
X7071667Y-8855476D01*
X7052619Y-8845952D01*
X7043095Y-8826905D01*
X7043095Y-8750714D01*
X7052619Y-8731667D01*
X7071667Y-8722143D01*
X7109762Y-8722143D01*
X7128809Y-8731667D01*
X7138333Y-8750714D01*
X7138333Y-8769762D01*
X7043095Y-8788810D01*
X7214524Y-8845952D02*
X7233571Y-8855476D01*
X7271667Y-8855476D01*
X7290714Y-8845952D01*
X7300238Y-8826905D01*
X7300238Y-8817381D01*
X7290714Y-8798333D01*
X7271667Y-8788810D01*
X7243095Y-8788810D01*
X7224048Y-8779286D01*
X7214524Y-8760238D01*
X7214524Y-8750714D01*
X7224048Y-8731667D01*
X7243095Y-8722143D01*
X7271667Y-8722143D01*
X7290714Y-8731667D01*
X7366905Y-8931667D02*
X7376428Y-8922143D01*
X7395476Y-8893571D01*
X7405000Y-8874524D01*
X7414524Y-8845952D01*
X7424048Y-8798333D01*
X7424048Y-8760238D01*
X7414524Y-8712619D01*
X7405000Y-8684048D01*
X7395476Y-8665000D01*
X7376428Y-8636429D01*
X7366905Y-8626905D01*
X7728809Y-8931667D02*
X7719286Y-8922143D01*
X7700238Y-8893571D01*
X7690714Y-8874524D01*
X7681190Y-8845952D01*
X7671667Y-8798333D01*
X7671667Y-8760238D01*
X7681190Y-8712619D01*
X7690714Y-8684048D01*
X7700238Y-8665000D01*
X7719286Y-8636429D01*
X7728809Y-8626905D01*
X7805000Y-8722143D02*
X7805000Y-8855476D01*
X7805000Y-8741190D02*
X7814524Y-8731667D01*
X7833571Y-8722143D01*
X7862143Y-8722143D01*
X7881190Y-8731667D01*
X7890714Y-8750714D01*
X7890714Y-8855476D01*
X8014524Y-8855476D02*
X7995476Y-8845952D01*
X7985952Y-8836429D01*
X7976428Y-8817381D01*
X7976428Y-8760238D01*
X7985952Y-8741190D01*
X7995476Y-8731667D01*
X8014524Y-8722143D01*
X8043095Y-8722143D01*
X8062143Y-8731667D01*
X8071667Y-8741190D01*
X8081190Y-8760238D01*
X8081190Y-8817381D01*
X8071667Y-8836429D01*
X8062143Y-8845952D01*
X8043095Y-8855476D01*
X8014524Y-8855476D01*
X8138333Y-8722143D02*
X8214524Y-8722143D01*
X8166905Y-8655476D02*
X8166905Y-8826905D01*
X8176428Y-8845952D01*
X8195476Y-8855476D01*
X8214524Y-8855476D01*
X8433571Y-8722143D02*
X8433571Y-8922143D01*
X8433571Y-8731667D02*
X8452619Y-8722143D01*
X8490714Y-8722143D01*
X8509762Y-8731667D01*
X8519286Y-8741190D01*
X8528810Y-8760238D01*
X8528810Y-8817381D01*
X8519286Y-8836429D01*
X8509762Y-8845952D01*
X8490714Y-8855476D01*
X8452619Y-8855476D01*
X8433571Y-8845952D01*
X8643095Y-8855476D02*
X8624048Y-8845952D01*
X8614524Y-8826905D01*
X8614524Y-8655476D01*
X8805000Y-8855476D02*
X8805000Y-8750714D01*
X8795476Y-8731667D01*
X8776429Y-8722143D01*
X8738333Y-8722143D01*
X8719286Y-8731667D01*
X8805000Y-8845952D02*
X8785952Y-8855476D01*
X8738333Y-8855476D01*
X8719286Y-8845952D01*
X8709762Y-8826905D01*
X8709762Y-8807857D01*
X8719286Y-8788810D01*
X8738333Y-8779286D01*
X8785952Y-8779286D01*
X8805000Y-8769762D01*
X8871667Y-8722143D02*
X8947857Y-8722143D01*
X8900238Y-8655476D02*
X8900238Y-8826905D01*
X8909762Y-8845952D01*
X8928810Y-8855476D01*
X8947857Y-8855476D01*
X9090714Y-8845952D02*
X9071667Y-8855476D01*
X9033571Y-8855476D01*
X9014524Y-8845952D01*
X9005000Y-8826905D01*
X9005000Y-8750714D01*
X9014524Y-8731667D01*
X9033571Y-8722143D01*
X9071667Y-8722143D01*
X9090714Y-8731667D01*
X9100238Y-8750714D01*
X9100238Y-8769762D01*
X9005000Y-8788810D01*
X9271667Y-8855476D02*
X9271667Y-8655476D01*
X9271667Y-8845952D02*
X9252619Y-8855476D01*
X9214524Y-8855476D01*
X9195476Y-8845952D01*
X9185952Y-8836429D01*
X9176429Y-8817381D01*
X9176429Y-8760238D01*
X9185952Y-8741190D01*
X9195476Y-8731667D01*
X9214524Y-8722143D01*
X9252619Y-8722143D01*
X9271667Y-8731667D01*
X9347857Y-8931667D02*
X9357381Y-8922143D01*
X9376429Y-8893571D01*
X9385952Y-8874524D01*
X9395476Y-8845952D01*
X9405000Y-8798333D01*
X9405000Y-8760238D01*
X9395476Y-8712619D01*
X9385952Y-8684048D01*
X9376429Y-8665000D01*
X9357381Y-8636429D01*
X9347857Y-8626905D01*
M02*
