%TF.GenerationSoftware,KiCad,Pcbnew,(6.0.7-1)-1*%
%TF.CreationDate,2022-12-12T00:26:17-05:00*%
%TF.ProjectId,HVPCB,48565043-422e-46b6-9963-61645f706362,rev?*%
%TF.SameCoordinates,Original*%
%TF.FileFunction,Soldermask,Top*%
%TF.FilePolarity,Negative*%
%FSLAX46Y46*%
G04 Gerber Fmt 4.6, Leading zero omitted, Abs format (unit mm)*
G04 Created by KiCad (PCBNEW (6.0.7-1)-1) date 2022-12-12 00:26:17*
%MOMM*%
%LPD*%
G01*
G04 APERTURE LIST*
G04 Aperture macros list*
%AMRoundRect*
0 Rectangle with rounded corners*
0 $1 Rounding radius*
0 $2 $3 $4 $5 $6 $7 $8 $9 X,Y pos of 4 corners*
0 Add a 4 corners polygon primitive as box body*
4,1,4,$2,$3,$4,$5,$6,$7,$8,$9,$2,$3,0*
0 Add four circle primitives for the rounded corners*
1,1,$1+$1,$2,$3*
1,1,$1+$1,$4,$5*
1,1,$1+$1,$6,$7*
1,1,$1+$1,$8,$9*
0 Add four rect primitives between the rounded corners*
20,1,$1+$1,$2,$3,$4,$5,0*
20,1,$1+$1,$4,$5,$6,$7,0*
20,1,$1+$1,$6,$7,$8,$9,0*
20,1,$1+$1,$8,$9,$2,$3,0*%
G04 Aperture macros list end*
%ADD10R,1.300000X1.700000*%
%ADD11RoundRect,0.237500X0.300000X0.237500X-0.300000X0.237500X-0.300000X-0.237500X0.300000X-0.237500X0*%
%ADD12RoundRect,0.237500X-0.300000X-0.237500X0.300000X-0.237500X0.300000X0.237500X-0.300000X0.237500X0*%
%ADD13C,3.000000*%
%ADD14RoundRect,0.250001X-0.759999X0.499999X-0.759999X-0.499999X0.759999X-0.499999X0.759999X0.499999X0*%
%ADD15O,2.020000X1.500000*%
%ADD16C,8.400000*%
%ADD17RoundRect,0.237500X-0.250000X-0.237500X0.250000X-0.237500X0.250000X0.237500X-0.250000X0.237500X0*%
%ADD18O,1.950216X0.568402*%
%ADD19RoundRect,0.237500X0.237500X-0.250000X0.237500X0.250000X-0.237500X0.250000X-0.237500X-0.250000X0*%
%ADD20R,1.070003X0.600000*%
%ADD21C,2.000000*%
%ADD22RoundRect,0.237500X-0.237500X0.250000X-0.237500X-0.250000X0.237500X-0.250000X0.237500X0.250000X0*%
%ADD23R,1.198882X0.900000*%
%ADD24R,1.000000X2.100000*%
%ADD25R,0.800000X0.800000*%
%ADD26RoundRect,0.237500X0.250000X0.237500X-0.250000X0.237500X-0.250000X-0.237500X0.250000X-0.237500X0*%
%ADD27R,1.000000X0.600000*%
%ADD28O,0.573990X2.035509*%
G04 APERTURE END LIST*
D10*
%TO.C,D1*%
X96950000Y-100000000D03*
X100450000Y-100000000D03*
%TD*%
D11*
%TO.C,C5*%
X159100000Y-96050000D03*
X157375000Y-96050000D03*
%TD*%
%TO.C,C4*%
X159112500Y-84375000D03*
X157387500Y-84375000D03*
%TD*%
D12*
%TO.C,C3*%
X142022501Y-84167844D03*
X143747501Y-84167844D03*
%TD*%
D11*
%TO.C,C2*%
X139897501Y-84167844D03*
X138172501Y-84167844D03*
%TD*%
D13*
%TO.C,J1*%
X215820000Y-85250000D03*
X215820000Y-101950000D03*
D14*
X211500000Y-83100000D03*
D15*
X211500000Y-86100000D03*
X211500000Y-89100000D03*
X211500000Y-92100000D03*
X211500000Y-95100000D03*
X211500000Y-98100000D03*
X211500000Y-101100000D03*
X211500000Y-104100000D03*
%TD*%
D16*
%TO.C,H4*%
X157250000Y-68500000D03*
%TD*%
D17*
%TO.C,R17*%
X98969739Y-97150477D03*
X100794739Y-97150477D03*
%TD*%
D18*
%TO.C,U4*%
X104300000Y-93070003D03*
X104300000Y-91800000D03*
X104300000Y-90529998D03*
X104300000Y-89259995D03*
X98889790Y-89259995D03*
X98889790Y-90529998D03*
X98889790Y-91800000D03*
X98889790Y-93070003D03*
%TD*%
D19*
%TO.C,R4*%
X159150000Y-88275000D03*
X159150000Y-86450000D03*
%TD*%
D16*
%TO.C,H2*%
X214000000Y-68500000D03*
%TD*%
D20*
%TO.C,U5*%
X161602423Y-98062538D03*
X161602423Y-99962462D03*
X164072577Y-99012500D03*
%TD*%
D17*
%TO.C,R1*%
X155350000Y-88262500D03*
X157175000Y-88262500D03*
%TD*%
D16*
%TO.C,H5*%
X84000000Y-68500000D03*
%TD*%
D17*
%TO.C,R6*%
X155275000Y-99950000D03*
X157100000Y-99950000D03*
%TD*%
D16*
%TO.C,H3*%
X214000000Y-118500000D03*
%TD*%
D21*
%TO.C,TP2*%
X97819789Y-104050477D03*
%TD*%
D17*
%TO.C,R10*%
X138810001Y-99276593D03*
X140635001Y-99276593D03*
%TD*%
D13*
%TO.C,U14*%
X81273889Y-93825527D03*
D21*
X85504013Y-93825527D03*
X88504013Y-93825527D03*
%TD*%
D16*
%TO.C,H1*%
X84000000Y-118500000D03*
%TD*%
D22*
%TO.C,R18*%
X109119789Y-94737977D03*
X109119789Y-96562977D03*
%TD*%
D23*
%TO.C,S2*%
X118100064Y-108679743D03*
X118100064Y-111219749D03*
X124599936Y-111219749D03*
X124599936Y-108679743D03*
%TD*%
D24*
%TO.C,U3*%
X126330000Y-90200000D03*
X123790000Y-90200000D03*
X118710000Y-90200000D03*
X118710000Y-100400000D03*
X126330000Y-100400000D03*
%TD*%
D17*
%TO.C,R15*%
X107342371Y-85575159D03*
X109167371Y-85575159D03*
%TD*%
D21*
%TO.C,TP3*%
X104119789Y-99750477D03*
%TD*%
D25*
%TO.C,U8*%
X155446500Y-86162802D03*
X155446500Y-84460998D03*
%TD*%
D26*
%TO.C,R14*%
X109157289Y-87725159D03*
X107332289Y-87725159D03*
%TD*%
D22*
%TO.C,R19*%
X104095847Y-102862659D03*
X104095847Y-104687659D03*
%TD*%
D16*
%TO.C,H6*%
X157250000Y-118500000D03*
%TD*%
D22*
%TO.C,R5*%
X107238895Y-91574499D03*
X107238895Y-93399499D03*
%TD*%
D19*
%TO.C,R7*%
X159087500Y-99862500D03*
X159087500Y-98037500D03*
%TD*%
D25*
%TO.C,U9*%
X155337500Y-97826302D03*
X155337500Y-96124498D03*
%TD*%
D21*
%TO.C,TP4*%
X148950000Y-98950000D03*
%TD*%
D27*
%TO.C,U2*%
X145985103Y-96817755D03*
X145985103Y-95867793D03*
X145985103Y-94917831D03*
X143384899Y-94917831D03*
X143384899Y-96817755D03*
%TD*%
D28*
%TO.C,U1*%
X139444996Y-92317844D03*
X140714999Y-92317844D03*
X141985001Y-92317844D03*
X143255004Y-92317844D03*
X143255004Y-86782156D03*
X141985001Y-86782156D03*
X140714999Y-86782156D03*
X139444996Y-86782156D03*
%TD*%
D25*
%TO.C,U7*%
X104319545Y-96775159D03*
X106021349Y-96775159D03*
%TD*%
D17*
%TO.C,R12*%
X138860001Y-94876593D03*
X140685001Y-94876593D03*
%TD*%
D19*
%TO.C,R13*%
X109167371Y-91662977D03*
X109167371Y-89837977D03*
%TD*%
%TO.C,R20*%
X127274682Y-113173942D03*
X127274682Y-111348942D03*
%TD*%
D20*
%TO.C,U6*%
X161776923Y-86477038D03*
X161776923Y-88376962D03*
X164247077Y-87427000D03*
%TD*%
D22*
%TO.C,R16*%
X97219789Y-95337977D03*
X97219789Y-97162977D03*
%TD*%
D21*
%TO.C,TP5*%
X148900000Y-84300000D03*
%TD*%
D26*
%TO.C,R11*%
X140635001Y-97076593D03*
X138810001Y-97076593D03*
%TD*%
M02*
