%TF.GenerationSoftware,KiCad,Pcbnew,(6.0.7-1)-1*%
%TF.CreationDate,2022-12-12T00:26:17-05:00*%
%TF.ProjectId,HVPCB,48565043-422e-46b6-9963-61645f706362,rev?*%
%TF.SameCoordinates,Original*%
%TF.FileFunction,Copper,L2,Bot*%
%TF.FilePolarity,Positive*%
%FSLAX46Y46*%
G04 Gerber Fmt 4.6, Leading zero omitted, Abs format (unit mm)*
G04 Created by KiCad (PCBNEW (6.0.7-1)-1) date 2022-12-12 00:26:17*
%MOMM*%
%LPD*%
G01*
G04 APERTURE LIST*
G04 Aperture macros list*
%AMRoundRect*
0 Rectangle with rounded corners*
0 $1 Rounding radius*
0 $2 $3 $4 $5 $6 $7 $8 $9 X,Y pos of 4 corners*
0 Add a 4 corners polygon primitive as box body*
4,1,4,$2,$3,$4,$5,$6,$7,$8,$9,$2,$3,0*
0 Add four circle primitives for the rounded corners*
1,1,$1+$1,$2,$3*
1,1,$1+$1,$4,$5*
1,1,$1+$1,$6,$7*
1,1,$1+$1,$8,$9*
0 Add four rect primitives between the rounded corners*
20,1,$1+$1,$2,$3,$4,$5,0*
20,1,$1+$1,$4,$5,$6,$7,0*
20,1,$1+$1,$6,$7,$8,$9,0*
20,1,$1+$1,$8,$9,$2,$3,0*%
G04 Aperture macros list end*
%TA.AperFunction,ComponentPad*%
%ADD10RoundRect,0.250001X-0.759999X0.499999X-0.759999X-0.499999X0.759999X-0.499999X0.759999X0.499999X0*%
%TD*%
%TA.AperFunction,ComponentPad*%
%ADD11O,2.020000X1.500000*%
%TD*%
%TA.AperFunction,WasherPad*%
%ADD12C,8.400000*%
%TD*%
%TA.AperFunction,ComponentPad*%
%ADD13C,2.000000*%
%TD*%
%TA.AperFunction,ViaPad*%
%ADD14C,0.800000*%
%TD*%
G04 APERTURE END LIST*
D10*
%TO.P,J1,1,Pin_1*%
%TO.N,GND*%
X211500000Y-83100000D03*
D11*
%TO.P,J1,2,Pin_2*%
%TO.N,+5V*%
X211500000Y-86100000D03*
%TO.P,J1,3,Pin_3*%
%TO.N,GND*%
X211500000Y-89100000D03*
%TO.P,J1,4,Pin_4*%
%TO.N,R_TSAL*%
X211500000Y-92100000D03*
%TO.P,J1,5,Pin_5*%
%TO.N,G_TSAL*%
X211500000Y-95100000D03*
%TO.P,J1,6,Pin_6*%
%TO.N,GND*%
X211500000Y-98100000D03*
%TO.P,J1,7,Pin_7*%
%TO.N,HV_STATUS*%
X211500000Y-101100000D03*
%TO.P,J1,8,Pin_8*%
%TO.N,GND*%
X211500000Y-104100000D03*
%TD*%
D12*
%TO.P,H4,*%
%TO.N,*%
X157250000Y-68500000D03*
%TD*%
%TO.P,H2,*%
%TO.N,*%
X214000000Y-68500000D03*
%TD*%
%TO.P,H5,*%
%TO.N,*%
X84000000Y-68500000D03*
%TD*%
%TO.P,H3,*%
%TO.N,*%
X214000000Y-118500000D03*
%TD*%
D13*
%TO.P,TP2,1,1*%
%TO.N,/op_n{slash}i*%
X97819789Y-104050477D03*
%TD*%
%TO.P,U14,1,1*%
%TO.N,HV+*%
X85504013Y-93825527D03*
%TO.P,U14,2,2*%
%TO.N,HV-*%
X88504013Y-93825527D03*
%TD*%
D12*
%TO.P,H1,*%
%TO.N,*%
X84000000Y-118500000D03*
%TD*%
D13*
%TO.P,TP3,1,1*%
%TO.N,/op_out*%
X104119789Y-99750477D03*
%TD*%
D12*
%TO.P,H6,*%
%TO.N,*%
X157250000Y-118500000D03*
%TD*%
D13*
%TO.P,TP4,1,1*%
%TO.N,HV_STATUS*%
X148950000Y-98950000D03*
%TD*%
%TO.P,TP5,1,1*%
%TO.N,/TRIG*%
X148900000Y-84300000D03*
%TD*%
D14*
%TO.N,GND*%
X214900000Y-97000000D03*
X157500000Y-97800000D03*
X157500000Y-86200000D03*
X185000000Y-100000000D03*
X177500000Y-85000000D03*
X125000000Y-85000000D03*
X170000000Y-77500000D03*
X207500000Y-85000000D03*
X185000000Y-92500000D03*
X170000000Y-85000000D03*
X147500000Y-107500000D03*
X147500000Y-115000000D03*
X207500000Y-107500000D03*
X170000000Y-107500000D03*
X177500000Y-77500000D03*
X139700000Y-90600000D03*
X162500000Y-92500000D03*
X170000000Y-100000000D03*
X192500000Y-115000000D03*
X192500000Y-100000000D03*
X192500000Y-85000000D03*
X215000000Y-92500000D03*
X155000000Y-107500000D03*
X207500000Y-77500000D03*
X162500000Y-85000000D03*
X132500000Y-70000000D03*
X140000000Y-115000000D03*
X192500000Y-70000000D03*
X132500000Y-92500000D03*
X132500000Y-85000000D03*
X147500000Y-92500000D03*
X140000000Y-70000000D03*
X200000000Y-115000000D03*
X170000000Y-92500000D03*
X192500000Y-107500000D03*
X125000000Y-70000000D03*
X177500000Y-115000000D03*
X125000000Y-115000000D03*
X200000000Y-85000000D03*
X200000000Y-92500000D03*
X207500000Y-115000000D03*
X200000000Y-70000000D03*
X177500000Y-92500000D03*
X177500000Y-107500000D03*
X132500000Y-115000000D03*
X200000000Y-100000000D03*
X132500000Y-107500000D03*
X185000000Y-70000000D03*
X162500000Y-107500000D03*
X185000000Y-115000000D03*
X125000000Y-100000000D03*
X125000000Y-92500000D03*
X185000000Y-77500000D03*
X170000000Y-70000000D03*
X200000000Y-107500000D03*
X155000000Y-92500000D03*
X185000000Y-107500000D03*
X170000000Y-115000000D03*
X162500000Y-115000000D03*
X207500000Y-100000000D03*
X192500000Y-92500000D03*
X192500000Y-77500000D03*
X125000000Y-77500000D03*
X147500000Y-70000000D03*
X132500000Y-100000000D03*
X207500000Y-92500000D03*
X177500000Y-100000000D03*
X185000000Y-85000000D03*
X162500000Y-70000000D03*
X200000000Y-77500000D03*
X207500000Y-70000000D03*
X177500000Y-70000000D03*
%TO.N,HV-*%
X102500000Y-70000000D03*
X110000000Y-77500000D03*
X117500000Y-77500000D03*
X102900000Y-84900000D03*
X107769789Y-95200477D03*
X117500000Y-70000000D03*
X108300000Y-86700000D03*
X87500000Y-85000000D03*
X107769789Y-104000477D03*
X95000000Y-85000000D03*
X110000000Y-117500000D03*
X94900000Y-94000000D03*
X107769789Y-99000477D03*
X117500000Y-117500000D03*
X110000000Y-70000000D03*
X117500000Y-92500000D03*
X117500000Y-102500000D03*
X117500000Y-85000000D03*
X105269789Y-86500477D03*
X108400000Y-84600000D03*
%TD*%
%TA.AperFunction,Conductor*%
%TO.N,HV-*%
G36*
X108469340Y-68245955D02*
G01*
X118774653Y-68299351D01*
X118842669Y-68319705D01*
X118888883Y-68373601D01*
X118900000Y-68425349D01*
X118900000Y-119074000D01*
X118879998Y-119142121D01*
X118826342Y-119188614D01*
X118774000Y-119200000D01*
X100552190Y-119200000D01*
X100484069Y-119179998D01*
X100463095Y-119163095D01*
X85350477Y-104050477D01*
X96306624Y-104050477D01*
X96325254Y-104287188D01*
X96380684Y-104518071D01*
X96471549Y-104737440D01*
X96474135Y-104741660D01*
X96593030Y-104935679D01*
X96593034Y-104935685D01*
X96595613Y-104939893D01*
X96749820Y-105120446D01*
X96930373Y-105274653D01*
X96934581Y-105277232D01*
X96934587Y-105277236D01*
X97128606Y-105396131D01*
X97132826Y-105398717D01*
X97137396Y-105400610D01*
X97137400Y-105400612D01*
X97347622Y-105487688D01*
X97352195Y-105489582D01*
X97432398Y-105508837D01*
X97578265Y-105543857D01*
X97578271Y-105543858D01*
X97583078Y-105545012D01*
X97819789Y-105563642D01*
X98056500Y-105545012D01*
X98061307Y-105543858D01*
X98061313Y-105543857D01*
X98207180Y-105508837D01*
X98287383Y-105489582D01*
X98291956Y-105487688D01*
X98502178Y-105400612D01*
X98502182Y-105400610D01*
X98506752Y-105398717D01*
X98510972Y-105396131D01*
X98704991Y-105277236D01*
X98704997Y-105277232D01*
X98709205Y-105274653D01*
X98889758Y-105120446D01*
X99043965Y-104939893D01*
X99046544Y-104935685D01*
X99046548Y-104935679D01*
X99165443Y-104741660D01*
X99168029Y-104737440D01*
X99258894Y-104518071D01*
X99314324Y-104287188D01*
X99332954Y-104050477D01*
X99314324Y-103813766D01*
X99258894Y-103582883D01*
X99168029Y-103363514D01*
X99165443Y-103359294D01*
X99046548Y-103165275D01*
X99046544Y-103165269D01*
X99043965Y-103161061D01*
X98889758Y-102980508D01*
X98709205Y-102826301D01*
X98704997Y-102823722D01*
X98704991Y-102823718D01*
X98510972Y-102704823D01*
X98506752Y-102702237D01*
X98502182Y-102700344D01*
X98502178Y-102700342D01*
X98291956Y-102613266D01*
X98291954Y-102613265D01*
X98287383Y-102611372D01*
X98207180Y-102592117D01*
X98061313Y-102557097D01*
X98061307Y-102557096D01*
X98056500Y-102555942D01*
X97819789Y-102537312D01*
X97583078Y-102555942D01*
X97578271Y-102557096D01*
X97578265Y-102557097D01*
X97432398Y-102592117D01*
X97352195Y-102611372D01*
X97347624Y-102613265D01*
X97347622Y-102613266D01*
X97137400Y-102700342D01*
X97137396Y-102700344D01*
X97132826Y-102702237D01*
X97128606Y-102704823D01*
X96934587Y-102823718D01*
X96934581Y-102823722D01*
X96930373Y-102826301D01*
X96749820Y-102980508D01*
X96595613Y-103161061D01*
X96593034Y-103165269D01*
X96593030Y-103165275D01*
X96474135Y-103359294D01*
X96471549Y-103363514D01*
X96380684Y-103582883D01*
X96325254Y-103813766D01*
X96306624Y-104050477D01*
X85350477Y-104050477D01*
X81050477Y-99750477D01*
X102606624Y-99750477D01*
X102625254Y-99987188D01*
X102680684Y-100218071D01*
X102771549Y-100437440D01*
X102774135Y-100441660D01*
X102893030Y-100635679D01*
X102893034Y-100635685D01*
X102895613Y-100639893D01*
X103049820Y-100820446D01*
X103230373Y-100974653D01*
X103234581Y-100977232D01*
X103234587Y-100977236D01*
X103428606Y-101096131D01*
X103432826Y-101098717D01*
X103437396Y-101100610D01*
X103437400Y-101100612D01*
X103647622Y-101187688D01*
X103652195Y-101189582D01*
X103732398Y-101208837D01*
X103878265Y-101243857D01*
X103878271Y-101243858D01*
X103883078Y-101245012D01*
X104119789Y-101263642D01*
X104356500Y-101245012D01*
X104361307Y-101243858D01*
X104361313Y-101243857D01*
X104507180Y-101208837D01*
X104587383Y-101189582D01*
X104591956Y-101187688D01*
X104802178Y-101100612D01*
X104802182Y-101100610D01*
X104806752Y-101098717D01*
X104810972Y-101096131D01*
X105004991Y-100977236D01*
X105004997Y-100977232D01*
X105009205Y-100974653D01*
X105189758Y-100820446D01*
X105343965Y-100639893D01*
X105346544Y-100635685D01*
X105346548Y-100635679D01*
X105465443Y-100441660D01*
X105468029Y-100437440D01*
X105558894Y-100218071D01*
X105614324Y-99987188D01*
X105632954Y-99750477D01*
X105614324Y-99513766D01*
X105558894Y-99282883D01*
X105540054Y-99237398D01*
X105469924Y-99068088D01*
X105469922Y-99068084D01*
X105468029Y-99063514D01*
X105465443Y-99059294D01*
X105346548Y-98865275D01*
X105346544Y-98865269D01*
X105343965Y-98861061D01*
X105189758Y-98680508D01*
X105009205Y-98526301D01*
X105004997Y-98523722D01*
X105004991Y-98523718D01*
X104810972Y-98404823D01*
X104806752Y-98402237D01*
X104802182Y-98400344D01*
X104802178Y-98400342D01*
X104591956Y-98313266D01*
X104591954Y-98313265D01*
X104587383Y-98311372D01*
X104507180Y-98292117D01*
X104361313Y-98257097D01*
X104361307Y-98257096D01*
X104356500Y-98255942D01*
X104119789Y-98237312D01*
X103883078Y-98255942D01*
X103878271Y-98257096D01*
X103878265Y-98257097D01*
X103732398Y-98292117D01*
X103652195Y-98311372D01*
X103647624Y-98313265D01*
X103647622Y-98313266D01*
X103437400Y-98400342D01*
X103437396Y-98400344D01*
X103432826Y-98402237D01*
X103428606Y-98404823D01*
X103234587Y-98523718D01*
X103234581Y-98523722D01*
X103230373Y-98526301D01*
X103049820Y-98680508D01*
X102895613Y-98861061D01*
X102893034Y-98865269D01*
X102893030Y-98865275D01*
X102774135Y-99059294D01*
X102771549Y-99063514D01*
X102769656Y-99068084D01*
X102769654Y-99068088D01*
X102699524Y-99237398D01*
X102680684Y-99282883D01*
X102625254Y-99513766D01*
X102606624Y-99750477D01*
X81050477Y-99750477D01*
X80537398Y-99237398D01*
X80503372Y-99175086D01*
X80500499Y-99147114D01*
X80531433Y-95868090D01*
X80552076Y-95800161D01*
X80606168Y-95754177D01*
X80676534Y-95744736D01*
X80692157Y-95748160D01*
X80736713Y-95760936D01*
X80855279Y-95794934D01*
X80859629Y-95795545D01*
X80859632Y-95795546D01*
X80962579Y-95810014D01*
X81133441Y-95834027D01*
X81344035Y-95834027D01*
X81346221Y-95833874D01*
X81346225Y-95833874D01*
X81549716Y-95819645D01*
X81549721Y-95819644D01*
X81554101Y-95819338D01*
X81828859Y-95760936D01*
X81832988Y-95759433D01*
X81832992Y-95759432D01*
X82088670Y-95666373D01*
X82088674Y-95666371D01*
X82092815Y-95664864D01*
X82340831Y-95532991D01*
X82344392Y-95530404D01*
X82564518Y-95370474D01*
X82564521Y-95370471D01*
X82568081Y-95367885D01*
X82617202Y-95320450D01*
X82766976Y-95175814D01*
X82770141Y-95172758D01*
X82943077Y-94951409D01*
X82945273Y-94947605D01*
X82945278Y-94947598D01*
X83081324Y-94711958D01*
X83083525Y-94708146D01*
X83188751Y-94447703D01*
X83227293Y-94293121D01*
X83255642Y-94179420D01*
X83255643Y-94179415D01*
X83256706Y-94175151D01*
X83268574Y-94062238D01*
X83285608Y-93900163D01*
X83285608Y-93900160D01*
X83286067Y-93895794D01*
X83285914Y-93891400D01*
X83283614Y-93825527D01*
X83990848Y-93825527D01*
X84009478Y-94062238D01*
X84064908Y-94293121D01*
X84066801Y-94297692D01*
X84066802Y-94297694D01*
X84130629Y-94451786D01*
X84155773Y-94512490D01*
X84158359Y-94516710D01*
X84277254Y-94710729D01*
X84277258Y-94710735D01*
X84279837Y-94714943D01*
X84434044Y-94895496D01*
X84614597Y-95049703D01*
X84618805Y-95052282D01*
X84618811Y-95052286D01*
X84809746Y-95169291D01*
X84817050Y-95173767D01*
X84821620Y-95175660D01*
X84821624Y-95175662D01*
X85031846Y-95262738D01*
X85036419Y-95264632D01*
X85074811Y-95273849D01*
X85262489Y-95318907D01*
X85262495Y-95318908D01*
X85267302Y-95320062D01*
X85504013Y-95338692D01*
X85740724Y-95320062D01*
X85745531Y-95318908D01*
X85745537Y-95318907D01*
X85933215Y-95273849D01*
X85971607Y-95264632D01*
X85976180Y-95262738D01*
X86186402Y-95175662D01*
X86186406Y-95175660D01*
X86190976Y-95173767D01*
X86198280Y-95169291D01*
X86389215Y-95052286D01*
X86389221Y-95052282D01*
X86393429Y-95049703D01*
X86573982Y-94895496D01*
X86728189Y-94714943D01*
X86730768Y-94710735D01*
X86730772Y-94710729D01*
X86849667Y-94516710D01*
X86852253Y-94512490D01*
X86877398Y-94451786D01*
X86941224Y-94297694D01*
X86941225Y-94297692D01*
X86943118Y-94293121D01*
X86998548Y-94062238D01*
X87017178Y-93825527D01*
X86998548Y-93588816D01*
X86943118Y-93357933D01*
X86941224Y-93353360D01*
X86854148Y-93143138D01*
X86854146Y-93143134D01*
X86852253Y-93138564D01*
X86849667Y-93134344D01*
X86730772Y-92940325D01*
X86730768Y-92940319D01*
X86728189Y-92936111D01*
X86573982Y-92755558D01*
X86393429Y-92601351D01*
X86389221Y-92598772D01*
X86389215Y-92598768D01*
X86195196Y-92479873D01*
X86190976Y-92477287D01*
X86186406Y-92475394D01*
X86186402Y-92475392D01*
X85976180Y-92388316D01*
X85976178Y-92388315D01*
X85971607Y-92386422D01*
X85891404Y-92367167D01*
X85745537Y-92332147D01*
X85745531Y-92332146D01*
X85740724Y-92330992D01*
X85504013Y-92312362D01*
X85267302Y-92330992D01*
X85262495Y-92332146D01*
X85262489Y-92332147D01*
X85116622Y-92367167D01*
X85036419Y-92386422D01*
X85031848Y-92388315D01*
X85031846Y-92388316D01*
X84821624Y-92475392D01*
X84821620Y-92475394D01*
X84817050Y-92477287D01*
X84812830Y-92479873D01*
X84618811Y-92598768D01*
X84618805Y-92598772D01*
X84614597Y-92601351D01*
X84434044Y-92755558D01*
X84279837Y-92936111D01*
X84277258Y-92940319D01*
X84277254Y-92940325D01*
X84158359Y-93134344D01*
X84155773Y-93138564D01*
X84153880Y-93143134D01*
X84153878Y-93143138D01*
X84066802Y-93353360D01*
X84064908Y-93357933D01*
X84009478Y-93588816D01*
X83990848Y-93825527D01*
X83283614Y-93825527D01*
X83276418Y-93619466D01*
X83276417Y-93619460D01*
X83276264Y-93615069D01*
X83270787Y-93584003D01*
X83244519Y-93435033D01*
X83227487Y-93338440D01*
X83140686Y-93071292D01*
X83017549Y-92818825D01*
X83015094Y-92815186D01*
X83015091Y-92815180D01*
X82869119Y-92598768D01*
X82860474Y-92585951D01*
X82672518Y-92377205D01*
X82457339Y-92196648D01*
X82219125Y-92047796D01*
X81962514Y-91933545D01*
X81692499Y-91856120D01*
X81688149Y-91855509D01*
X81688146Y-91855508D01*
X81585199Y-91841040D01*
X81414337Y-91817027D01*
X81203743Y-91817027D01*
X81201557Y-91817180D01*
X81201553Y-91817180D01*
X80998062Y-91831409D01*
X80998057Y-91831410D01*
X80993677Y-91831716D01*
X80989383Y-91832629D01*
X80989381Y-91832629D01*
X80722332Y-91889392D01*
X80651541Y-91883990D01*
X80594908Y-91841173D01*
X80570415Y-91774535D01*
X80570142Y-91764980D01*
X80599541Y-88648667D01*
X80620184Y-88580738D01*
X80633056Y-88564278D01*
X99184407Y-68516850D01*
X99220533Y-68489733D01*
X99400000Y-68400000D01*
X99562825Y-68237175D01*
X99625137Y-68203149D01*
X99652569Y-68200272D01*
X108469340Y-68245955D01*
G37*
%TD.AperFunction*%
%TD*%
%TA.AperFunction,Conductor*%
%TO.N,GND*%
G36*
X152483954Y-68320002D02*
G01*
X152530447Y-68373658D01*
X152541826Y-68427320D01*
X152540049Y-68596957D01*
X152539342Y-68664500D01*
X152573639Y-69090762D01*
X152646427Y-69512161D01*
X152757108Y-69925229D01*
X152904771Y-70326566D01*
X152905996Y-70329146D01*
X152905999Y-70329153D01*
X153060507Y-70654544D01*
X153088201Y-70712868D01*
X153210783Y-70920142D01*
X153271705Y-71023156D01*
X153305887Y-71080955D01*
X153307549Y-71083259D01*
X153307550Y-71083261D01*
X153520211Y-71378122D01*
X153556038Y-71427798D01*
X153836595Y-71750542D01*
X153838655Y-71752517D01*
X154143192Y-72044558D01*
X154143200Y-72044565D01*
X154145248Y-72046529D01*
X154147466Y-72048299D01*
X154147471Y-72048304D01*
X154312353Y-72179927D01*
X154479457Y-72313325D01*
X154481838Y-72314895D01*
X154784768Y-72514640D01*
X154836471Y-72548732D01*
X155213351Y-72750814D01*
X155606996Y-72917906D01*
X155609705Y-72918776D01*
X155609711Y-72918778D01*
X156011438Y-73047758D01*
X156011442Y-73047759D01*
X156014164Y-73048633D01*
X156431504Y-73141920D01*
X156855582Y-73196998D01*
X157282906Y-73213414D01*
X157285768Y-73213264D01*
X157285769Y-73213264D01*
X157707104Y-73191183D01*
X157707111Y-73191182D01*
X157709960Y-73191033D01*
X157712783Y-73190626D01*
X157712785Y-73190626D01*
X158130405Y-73130446D01*
X158130412Y-73130445D01*
X158133227Y-73130039D01*
X158549225Y-73030935D01*
X158551923Y-73030027D01*
X158551930Y-73030025D01*
X158951816Y-72895448D01*
X158951822Y-72895446D01*
X158954528Y-72894535D01*
X159345801Y-72721963D01*
X159658319Y-72548732D01*
X159717321Y-72516027D01*
X159717323Y-72516026D01*
X159719823Y-72514640D01*
X160073515Y-72274271D01*
X160403967Y-72002835D01*
X160406004Y-72000826D01*
X160406012Y-72000819D01*
X160553082Y-71855787D01*
X160708457Y-71702566D01*
X160940654Y-71427798D01*
X160982634Y-71378122D01*
X160982639Y-71378116D01*
X160984480Y-71375937D01*
X161229764Y-71025635D01*
X161442290Y-70654544D01*
X161620308Y-70265719D01*
X161762353Y-69862360D01*
X161763055Y-69859586D01*
X161866553Y-69450566D01*
X161866554Y-69450562D01*
X161867256Y-69447787D01*
X161934154Y-69025412D01*
X161941109Y-68920704D01*
X161962379Y-68600464D01*
X161962379Y-68600453D01*
X161962495Y-68598713D01*
X161963529Y-68500000D01*
X161960428Y-68431715D01*
X161977319Y-68362758D01*
X162028810Y-68313879D01*
X162086298Y-68300000D01*
X209165833Y-68300000D01*
X209233954Y-68320002D01*
X209280447Y-68373658D01*
X209291826Y-68427320D01*
X209290049Y-68596957D01*
X209289342Y-68664500D01*
X209323639Y-69090762D01*
X209396427Y-69512161D01*
X209507108Y-69925229D01*
X209654771Y-70326566D01*
X209655996Y-70329146D01*
X209655999Y-70329153D01*
X209810507Y-70654544D01*
X209838201Y-70712868D01*
X209960783Y-70920143D01*
X210021705Y-71023156D01*
X210055887Y-71080955D01*
X210057549Y-71083259D01*
X210057550Y-71083261D01*
X210270211Y-71378122D01*
X210306038Y-71427798D01*
X210586595Y-71750542D01*
X210588655Y-71752517D01*
X210893192Y-72044558D01*
X210893200Y-72044565D01*
X210895248Y-72046529D01*
X210897466Y-72048299D01*
X210897471Y-72048304D01*
X211062353Y-72179927D01*
X211229457Y-72313325D01*
X211231838Y-72314895D01*
X211534768Y-72514640D01*
X211586471Y-72548732D01*
X211963351Y-72750814D01*
X212356996Y-72917906D01*
X212359705Y-72918776D01*
X212359711Y-72918778D01*
X212761438Y-73047758D01*
X212761442Y-73047759D01*
X212764164Y-73048633D01*
X213181504Y-73141920D01*
X213605582Y-73196998D01*
X214032906Y-73213414D01*
X214035768Y-73213264D01*
X214035769Y-73213264D01*
X214457104Y-73191183D01*
X214457111Y-73191182D01*
X214459960Y-73191033D01*
X214462783Y-73190626D01*
X214462785Y-73190626D01*
X214880405Y-73130446D01*
X214880412Y-73130445D01*
X214883227Y-73130039D01*
X215299225Y-73030935D01*
X215301923Y-73030027D01*
X215301930Y-73030025D01*
X215701816Y-72895448D01*
X215701822Y-72895446D01*
X215704528Y-72894535D01*
X216095801Y-72721963D01*
X216408319Y-72548732D01*
X216467321Y-72516027D01*
X216467323Y-72516026D01*
X216469823Y-72514640D01*
X216823515Y-72274271D01*
X217153967Y-72002835D01*
X217156004Y-72000826D01*
X217156012Y-72000819D01*
X217303082Y-71855787D01*
X217458457Y-71702566D01*
X217690654Y-71427798D01*
X217732634Y-71378122D01*
X217732639Y-71378116D01*
X217734480Y-71375937D01*
X217979764Y-71025635D01*
X218192290Y-70654544D01*
X218250936Y-70526450D01*
X218297480Y-70472838D01*
X218365620Y-70452901D01*
X218433722Y-70472968D01*
X218480163Y-70526668D01*
X218491500Y-70578901D01*
X218491500Y-116414583D01*
X218471498Y-116482704D01*
X218417842Y-116529197D01*
X218347568Y-116539301D01*
X218282988Y-116509807D01*
X218249863Y-116464623D01*
X218237631Y-116436356D01*
X218237627Y-116436348D01*
X218236492Y-116433725D01*
X218109311Y-116200459D01*
X218033154Y-116060777D01*
X218033150Y-116060770D01*
X218031784Y-116058265D01*
X217947809Y-115932824D01*
X217795482Y-115705280D01*
X217795474Y-115705269D01*
X217793890Y-115702903D01*
X217524768Y-115370565D01*
X217338175Y-115178686D01*
X217228623Y-115066031D01*
X217228619Y-115066027D01*
X217226633Y-115063985D01*
X217224475Y-115062135D01*
X217224465Y-115062126D01*
X216904112Y-114787551D01*
X216904107Y-114787547D01*
X216901938Y-114785688D01*
X216899607Y-114784031D01*
X216899600Y-114784026D01*
X216748658Y-114676758D01*
X216553357Y-114537965D01*
X216321696Y-114403135D01*
X216186232Y-114324293D01*
X216186227Y-114324290D01*
X216183759Y-114322854D01*
X216181173Y-114321648D01*
X216181167Y-114321645D01*
X215798782Y-114143335D01*
X215798772Y-114143331D01*
X215796186Y-114142125D01*
X215793489Y-114141154D01*
X215396518Y-113998236D01*
X215396509Y-113998233D01*
X215393828Y-113997268D01*
X215119908Y-113925917D01*
X214982767Y-113890194D01*
X214982761Y-113890193D01*
X214979998Y-113889473D01*
X214558101Y-113819628D01*
X214555258Y-113819419D01*
X214555256Y-113819419D01*
X214134455Y-113788518D01*
X214131609Y-113788309D01*
X213954108Y-113791407D01*
X213706886Y-113795722D01*
X213706881Y-113795722D01*
X213704035Y-113795772D01*
X213701202Y-113796080D01*
X213701198Y-113796080D01*
X213359564Y-113833194D01*
X213278897Y-113841957D01*
X212859694Y-113926483D01*
X212856961Y-113927298D01*
X212856956Y-113927299D01*
X212624670Y-113996547D01*
X212449878Y-114048655D01*
X212447217Y-114049719D01*
X212447215Y-114049720D01*
X212216185Y-114142125D01*
X212052820Y-114207466D01*
X212050273Y-114208764D01*
X211674334Y-114400314D01*
X211674329Y-114400317D01*
X211671791Y-114401610D01*
X211309925Y-114629489D01*
X210970202Y-114889227D01*
X210655418Y-115178686D01*
X210368163Y-115495484D01*
X210110804Y-115837012D01*
X210109305Y-115839430D01*
X210109302Y-115839434D01*
X209973621Y-116058265D01*
X209885456Y-116200459D01*
X209693977Y-116582835D01*
X209537941Y-116980991D01*
X209537149Y-116983718D01*
X209537145Y-116983729D01*
X209419431Y-117388907D01*
X209418634Y-117391651D01*
X209337036Y-117811433D01*
X209293821Y-118236884D01*
X209289342Y-118664500D01*
X209289571Y-118667345D01*
X209289571Y-118667348D01*
X209316752Y-119005164D01*
X209323639Y-119090762D01*
X209324126Y-119093580D01*
X209324126Y-119093582D01*
X209329462Y-119124472D01*
X209321347Y-119195004D01*
X209276388Y-119249951D01*
X209204941Y-119271917D01*
X178897957Y-119184806D01*
X162061066Y-119136411D01*
X161993003Y-119116214D01*
X161946664Y-119062425D01*
X161935705Y-119002062D01*
X161962379Y-118600464D01*
X161962379Y-118600453D01*
X161962495Y-118598713D01*
X161963529Y-118500000D01*
X161944130Y-118072801D01*
X161886093Y-117649118D01*
X161789895Y-117232439D01*
X161706351Y-116978337D01*
X161657223Y-116828915D01*
X161657223Y-116828914D01*
X161656328Y-116826193D01*
X161655197Y-116823579D01*
X161655193Y-116823569D01*
X161527806Y-116529197D01*
X161486492Y-116433725D01*
X161359311Y-116200459D01*
X161283154Y-116060777D01*
X161283150Y-116060770D01*
X161281784Y-116058265D01*
X161197809Y-115932824D01*
X161045482Y-115705280D01*
X161045474Y-115705269D01*
X161043890Y-115702903D01*
X160774768Y-115370565D01*
X160588175Y-115178686D01*
X160478623Y-115066031D01*
X160478619Y-115066027D01*
X160476633Y-115063985D01*
X160474475Y-115062135D01*
X160474465Y-115062126D01*
X160154112Y-114787551D01*
X160154107Y-114787547D01*
X160151938Y-114785688D01*
X160149607Y-114784031D01*
X160149600Y-114784026D01*
X159998658Y-114676758D01*
X159803357Y-114537965D01*
X159571696Y-114403135D01*
X159436232Y-114324293D01*
X159436227Y-114324290D01*
X159433759Y-114322854D01*
X159431173Y-114321648D01*
X159431167Y-114321645D01*
X159048782Y-114143335D01*
X159048772Y-114143331D01*
X159046186Y-114142125D01*
X159043489Y-114141154D01*
X158646518Y-113998236D01*
X158646509Y-113998233D01*
X158643828Y-113997268D01*
X158369908Y-113925917D01*
X158232767Y-113890194D01*
X158232761Y-113890193D01*
X158229998Y-113889473D01*
X157808101Y-113819628D01*
X157805258Y-113819419D01*
X157805256Y-113819419D01*
X157384455Y-113788518D01*
X157381609Y-113788309D01*
X157204108Y-113791407D01*
X156956886Y-113795722D01*
X156956881Y-113795722D01*
X156954035Y-113795772D01*
X156951202Y-113796080D01*
X156951198Y-113796080D01*
X156609564Y-113833194D01*
X156528897Y-113841957D01*
X156109694Y-113926483D01*
X156106961Y-113927298D01*
X156106956Y-113927299D01*
X155874670Y-113996547D01*
X155699878Y-114048655D01*
X155697217Y-114049719D01*
X155697215Y-114049720D01*
X155466185Y-114142125D01*
X155302820Y-114207466D01*
X155300273Y-114208764D01*
X154924334Y-114400314D01*
X154924329Y-114400317D01*
X154921791Y-114401610D01*
X154559925Y-114629489D01*
X154220202Y-114889227D01*
X153905418Y-115178686D01*
X153618163Y-115495484D01*
X153360804Y-115837012D01*
X153359305Y-115839430D01*
X153359302Y-115839434D01*
X153223621Y-116058265D01*
X153135456Y-116200459D01*
X152943977Y-116582835D01*
X152787941Y-116980991D01*
X152787149Y-116983718D01*
X152787145Y-116983729D01*
X152669431Y-117388907D01*
X152668634Y-117391651D01*
X152587036Y-117811433D01*
X152543821Y-118236884D01*
X152539342Y-118664500D01*
X152539571Y-118667345D01*
X152539571Y-118667348D01*
X152564136Y-118972649D01*
X152549662Y-119042154D01*
X152499908Y-119092800D01*
X152438183Y-119108752D01*
X127127611Y-119036002D01*
X123425638Y-119025361D01*
X123357575Y-119005164D01*
X123311236Y-118951375D01*
X123300000Y-118899362D01*
X123300000Y-101139690D01*
X209977037Y-101139690D01*
X210004025Y-101362715D01*
X210070082Y-101577435D01*
X210072652Y-101582415D01*
X210072654Y-101582419D01*
X210153751Y-101739542D01*
X210173118Y-101777064D01*
X210309877Y-101955292D01*
X210476036Y-102106485D01*
X210480783Y-102109463D01*
X210480786Y-102109465D01*
X210609229Y-102190036D01*
X210666344Y-102225864D01*
X210874783Y-102309656D01*
X211094767Y-102355213D01*
X211099378Y-102355479D01*
X211099379Y-102355479D01*
X211149952Y-102358395D01*
X211149956Y-102358395D01*
X211151775Y-102358500D01*
X211816999Y-102358500D01*
X211819786Y-102358251D01*
X211819792Y-102358251D01*
X211889929Y-102351991D01*
X211983762Y-102343617D01*
X211989176Y-102342136D01*
X211989181Y-102342135D01*
X212128967Y-102303893D01*
X212200451Y-102284337D01*
X212205509Y-102281925D01*
X212205513Y-102281923D01*
X212323042Y-102225864D01*
X212403218Y-102187622D01*
X212585654Y-102056529D01*
X212741992Y-101895201D01*
X212752386Y-101879733D01*
X213807822Y-101879733D01*
X213807975Y-101884121D01*
X213807975Y-101884127D01*
X213813996Y-102056529D01*
X213817625Y-102160458D01*
X213818387Y-102164781D01*
X213818388Y-102164788D01*
X213844133Y-102310795D01*
X213866402Y-102437087D01*
X213953203Y-102704235D01*
X214076340Y-102956702D01*
X214078795Y-102960341D01*
X214078798Y-102960347D01*
X214151890Y-103068710D01*
X214233415Y-103189576D01*
X214421371Y-103398322D01*
X214636550Y-103578879D01*
X214874764Y-103727731D01*
X215131375Y-103841982D01*
X215401390Y-103919407D01*
X215405740Y-103920018D01*
X215405743Y-103920019D01*
X215508690Y-103934487D01*
X215679552Y-103958500D01*
X215890146Y-103958500D01*
X215892332Y-103958347D01*
X215892336Y-103958347D01*
X216095827Y-103944118D01*
X216095832Y-103944117D01*
X216100212Y-103943811D01*
X216374970Y-103885409D01*
X216379099Y-103883906D01*
X216379103Y-103883905D01*
X216634781Y-103790846D01*
X216634785Y-103790844D01*
X216638926Y-103789337D01*
X216886942Y-103657464D01*
X216991896Y-103581211D01*
X217110629Y-103494947D01*
X217110632Y-103494944D01*
X217114192Y-103492358D01*
X217316252Y-103297231D01*
X217489188Y-103075882D01*
X217491384Y-103072078D01*
X217491389Y-103072071D01*
X217627435Y-102836431D01*
X217629636Y-102832619D01*
X217734862Y-102572176D01*
X217768544Y-102437087D01*
X217801753Y-102303893D01*
X217801754Y-102303888D01*
X217802817Y-102299624D01*
X217804269Y-102285817D01*
X217831719Y-102024636D01*
X217831719Y-102024633D01*
X217832178Y-102020267D01*
X217829754Y-101950847D01*
X217822529Y-101743939D01*
X217822528Y-101743933D01*
X217822375Y-101739542D01*
X217816944Y-101708738D01*
X217774360Y-101467236D01*
X217773598Y-101462913D01*
X217686797Y-101195765D01*
X217659448Y-101139690D01*
X217618010Y-101054732D01*
X217563660Y-100943298D01*
X217561205Y-100939659D01*
X217561202Y-100939653D01*
X217480935Y-100820653D01*
X217406585Y-100710424D01*
X217218629Y-100501678D01*
X217003450Y-100321121D01*
X216765236Y-100172269D01*
X216508625Y-100058018D01*
X216238610Y-99980593D01*
X216234260Y-99979982D01*
X216234257Y-99979981D01*
X216131310Y-99965513D01*
X215960448Y-99941500D01*
X215749854Y-99941500D01*
X215747668Y-99941653D01*
X215747664Y-99941653D01*
X215544173Y-99955882D01*
X215544168Y-99955883D01*
X215539788Y-99956189D01*
X215265030Y-100014591D01*
X215260901Y-100016094D01*
X215260897Y-100016095D01*
X215005219Y-100109154D01*
X215005215Y-100109156D01*
X215001074Y-100110663D01*
X214753058Y-100242536D01*
X214749499Y-100245122D01*
X214749497Y-100245123D01*
X214644895Y-100321121D01*
X214525808Y-100407642D01*
X214522644Y-100410698D01*
X214522641Y-100410700D01*
X214488800Y-100443380D01*
X214323748Y-100602769D01*
X214150812Y-100824118D01*
X214148616Y-100827922D01*
X214148611Y-100827929D01*
X214034794Y-101025067D01*
X214010364Y-101067381D01*
X213905138Y-101327824D01*
X213904073Y-101332097D01*
X213904072Y-101332099D01*
X213842903Y-101577435D01*
X213837183Y-101600376D01*
X213836724Y-101604744D01*
X213836723Y-101604749D01*
X213818145Y-101781512D01*
X213807822Y-101879733D01*
X212752386Y-101879733D01*
X212867290Y-101708738D01*
X212957588Y-101503033D01*
X213000633Y-101323741D01*
X213008722Y-101290046D01*
X213008722Y-101290045D01*
X213010032Y-101284589D01*
X213022320Y-101071461D01*
X213022640Y-101065917D01*
X213022640Y-101065914D01*
X213022963Y-101060310D01*
X212995975Y-100837285D01*
X212929918Y-100622565D01*
X212918124Y-100599713D01*
X212829454Y-100427919D01*
X212829454Y-100427918D01*
X212826882Y-100422936D01*
X212690123Y-100244708D01*
X212523964Y-100093515D01*
X212519217Y-100090537D01*
X212519214Y-100090535D01*
X212338405Y-99977115D01*
X212333656Y-99974136D01*
X212125217Y-99890344D01*
X211905233Y-99844787D01*
X211900622Y-99844521D01*
X211900621Y-99844521D01*
X211850048Y-99841605D01*
X211850044Y-99841605D01*
X211848225Y-99841500D01*
X211183001Y-99841500D01*
X211180214Y-99841749D01*
X211180208Y-99841749D01*
X211110071Y-99848009D01*
X211016238Y-99856383D01*
X211010824Y-99857864D01*
X211010819Y-99857865D01*
X210896262Y-99889205D01*
X210799549Y-99915663D01*
X210794491Y-99918075D01*
X210794487Y-99918077D01*
X210712670Y-99957102D01*
X210596782Y-100012378D01*
X210414346Y-100143471D01*
X210386439Y-100172269D01*
X210262528Y-100300135D01*
X210258008Y-100304799D01*
X210132710Y-100491262D01*
X210042412Y-100696967D01*
X210041103Y-100702418D01*
X210041102Y-100702422D01*
X210010012Y-100831923D01*
X209989968Y-100915411D01*
X209977037Y-101139690D01*
X123300000Y-101139690D01*
X123300000Y-98950000D01*
X147436835Y-98950000D01*
X147455465Y-99186711D01*
X147510895Y-99417594D01*
X147601760Y-99636963D01*
X147604346Y-99641183D01*
X147723241Y-99835202D01*
X147723245Y-99835208D01*
X147725824Y-99839416D01*
X147880031Y-100019969D01*
X148060584Y-100174176D01*
X148064792Y-100176755D01*
X148064798Y-100176759D01*
X148258817Y-100295654D01*
X148263037Y-100298240D01*
X148267607Y-100300133D01*
X148267611Y-100300135D01*
X148325104Y-100323949D01*
X148482406Y-100389105D01*
X148559618Y-100407642D01*
X148708476Y-100443380D01*
X148708482Y-100443381D01*
X148713289Y-100444535D01*
X148950000Y-100463165D01*
X149186711Y-100444535D01*
X149191518Y-100443381D01*
X149191524Y-100443380D01*
X149340382Y-100407642D01*
X149417594Y-100389105D01*
X149574896Y-100323949D01*
X149632389Y-100300135D01*
X149632393Y-100300133D01*
X149636963Y-100298240D01*
X149641183Y-100295654D01*
X149835202Y-100176759D01*
X149835208Y-100176755D01*
X149839416Y-100174176D01*
X150019969Y-100019969D01*
X150174176Y-99839416D01*
X150176755Y-99835208D01*
X150176759Y-99835202D01*
X150295654Y-99641183D01*
X150298240Y-99636963D01*
X150389105Y-99417594D01*
X150444535Y-99186711D01*
X150463165Y-98950000D01*
X150444535Y-98713289D01*
X150389105Y-98482406D01*
X150298240Y-98263037D01*
X150295654Y-98258817D01*
X150176759Y-98064798D01*
X150176755Y-98064792D01*
X150174176Y-98060584D01*
X150019969Y-97880031D01*
X149839416Y-97725824D01*
X149835208Y-97723245D01*
X149835202Y-97723241D01*
X149641183Y-97604346D01*
X149636963Y-97601760D01*
X149632393Y-97599867D01*
X149632389Y-97599865D01*
X149422167Y-97512789D01*
X149422165Y-97512788D01*
X149417594Y-97510895D01*
X149337391Y-97491640D01*
X149191524Y-97456620D01*
X149191518Y-97456619D01*
X149186711Y-97455465D01*
X148950000Y-97436835D01*
X148713289Y-97455465D01*
X148708482Y-97456619D01*
X148708476Y-97456620D01*
X148562609Y-97491640D01*
X148482406Y-97510895D01*
X148477835Y-97512788D01*
X148477833Y-97512789D01*
X148267611Y-97599865D01*
X148267607Y-97599867D01*
X148263037Y-97601760D01*
X148258817Y-97604346D01*
X148064798Y-97723241D01*
X148064792Y-97723245D01*
X148060584Y-97725824D01*
X147880031Y-97880031D01*
X147725824Y-98060584D01*
X147723245Y-98064792D01*
X147723241Y-98064798D01*
X147604346Y-98258817D01*
X147601760Y-98263037D01*
X147510895Y-98482406D01*
X147455465Y-98713289D01*
X147436835Y-98950000D01*
X123300000Y-98950000D01*
X123300000Y-95139690D01*
X209977037Y-95139690D01*
X210004025Y-95362715D01*
X210070082Y-95577435D01*
X210072652Y-95582415D01*
X210072654Y-95582419D01*
X210137852Y-95708738D01*
X210173118Y-95777064D01*
X210309877Y-95955292D01*
X210476036Y-96106485D01*
X210480783Y-96109463D01*
X210480786Y-96109465D01*
X210609229Y-96190036D01*
X210666344Y-96225864D01*
X210874783Y-96309656D01*
X211094767Y-96355213D01*
X211099378Y-96355479D01*
X211099379Y-96355479D01*
X211149952Y-96358395D01*
X211149956Y-96358395D01*
X211151775Y-96358500D01*
X211816999Y-96358500D01*
X211819786Y-96358251D01*
X211819792Y-96358251D01*
X211889929Y-96351991D01*
X211983762Y-96343617D01*
X211989176Y-96342136D01*
X211989181Y-96342135D01*
X212116912Y-96307191D01*
X212200451Y-96284337D01*
X212205509Y-96281925D01*
X212205513Y-96281923D01*
X212323042Y-96225864D01*
X212403218Y-96187622D01*
X212585654Y-96056529D01*
X212741992Y-95895201D01*
X212867290Y-95708738D01*
X212957588Y-95503033D01*
X213010032Y-95284589D01*
X213022963Y-95060310D01*
X212995975Y-94837285D01*
X212929918Y-94622565D01*
X212864798Y-94496396D01*
X212829454Y-94427919D01*
X212829454Y-94427918D01*
X212826882Y-94422936D01*
X212690123Y-94244708D01*
X212523964Y-94093515D01*
X212519217Y-94090537D01*
X212519214Y-94090535D01*
X212338405Y-93977115D01*
X212333656Y-93974136D01*
X212125217Y-93890344D01*
X211905233Y-93844787D01*
X211900622Y-93844521D01*
X211900621Y-93844521D01*
X211850048Y-93841605D01*
X211850044Y-93841605D01*
X211848225Y-93841500D01*
X211183001Y-93841500D01*
X211180214Y-93841749D01*
X211180208Y-93841749D01*
X211110071Y-93848009D01*
X211016238Y-93856383D01*
X211010824Y-93857864D01*
X211010819Y-93857865D01*
X210896262Y-93889205D01*
X210799549Y-93915663D01*
X210794491Y-93918075D01*
X210794487Y-93918077D01*
X210698166Y-93964020D01*
X210596782Y-94012378D01*
X210414346Y-94143471D01*
X210258008Y-94304799D01*
X210132710Y-94491262D01*
X210042412Y-94696967D01*
X209989968Y-94915411D01*
X209977037Y-95139690D01*
X123300000Y-95139690D01*
X123300000Y-92139690D01*
X209977037Y-92139690D01*
X210004025Y-92362715D01*
X210070082Y-92577435D01*
X210072652Y-92582415D01*
X210072654Y-92582419D01*
X210137852Y-92708738D01*
X210173118Y-92777064D01*
X210309877Y-92955292D01*
X210476036Y-93106485D01*
X210480783Y-93109463D01*
X210480786Y-93109465D01*
X210609229Y-93190036D01*
X210666344Y-93225864D01*
X210874783Y-93309656D01*
X211094767Y-93355213D01*
X211099378Y-93355479D01*
X211099379Y-93355479D01*
X211149952Y-93358395D01*
X211149956Y-93358395D01*
X211151775Y-93358500D01*
X211816999Y-93358500D01*
X211819786Y-93358251D01*
X211819792Y-93358251D01*
X211889929Y-93351991D01*
X211983762Y-93343617D01*
X211989176Y-93342136D01*
X211989181Y-93342135D01*
X212116912Y-93307191D01*
X212200451Y-93284337D01*
X212205509Y-93281925D01*
X212205513Y-93281923D01*
X212323042Y-93225864D01*
X212403218Y-93187622D01*
X212585654Y-93056529D01*
X212741992Y-92895201D01*
X212867290Y-92708738D01*
X212957588Y-92503033D01*
X213010032Y-92284589D01*
X213022963Y-92060310D01*
X212995975Y-91837285D01*
X212929918Y-91622565D01*
X212864798Y-91496396D01*
X212829454Y-91427919D01*
X212829454Y-91427918D01*
X212826882Y-91422936D01*
X212690123Y-91244708D01*
X212523964Y-91093515D01*
X212519217Y-91090537D01*
X212519214Y-91090535D01*
X212338405Y-90977115D01*
X212333656Y-90974136D01*
X212125217Y-90890344D01*
X211905233Y-90844787D01*
X211900622Y-90844521D01*
X211900621Y-90844521D01*
X211850048Y-90841605D01*
X211850044Y-90841605D01*
X211848225Y-90841500D01*
X211183001Y-90841500D01*
X211180214Y-90841749D01*
X211180208Y-90841749D01*
X211110071Y-90848009D01*
X211016238Y-90856383D01*
X211010824Y-90857864D01*
X211010819Y-90857865D01*
X210896262Y-90889205D01*
X210799549Y-90915663D01*
X210794491Y-90918075D01*
X210794487Y-90918077D01*
X210698165Y-90964021D01*
X210596782Y-91012378D01*
X210414346Y-91143471D01*
X210258008Y-91304799D01*
X210132710Y-91491262D01*
X210042412Y-91696967D01*
X209989968Y-91915411D01*
X209977037Y-92139690D01*
X123300000Y-92139690D01*
X123300000Y-86139690D01*
X209977037Y-86139690D01*
X210004025Y-86362715D01*
X210070082Y-86577435D01*
X210072652Y-86582415D01*
X210072654Y-86582419D01*
X210137852Y-86708738D01*
X210173118Y-86777064D01*
X210309877Y-86955292D01*
X210476036Y-87106485D01*
X210480783Y-87109463D01*
X210480786Y-87109465D01*
X210609229Y-87190036D01*
X210666344Y-87225864D01*
X210874783Y-87309656D01*
X211094767Y-87355213D01*
X211099378Y-87355479D01*
X211099379Y-87355479D01*
X211149952Y-87358395D01*
X211149956Y-87358395D01*
X211151775Y-87358500D01*
X211816999Y-87358500D01*
X211819786Y-87358251D01*
X211819792Y-87358251D01*
X211889929Y-87351991D01*
X211983762Y-87343617D01*
X211989176Y-87342136D01*
X211989181Y-87342135D01*
X212116912Y-87307191D01*
X212200451Y-87284337D01*
X212205509Y-87281925D01*
X212205513Y-87281923D01*
X212323042Y-87225864D01*
X212403218Y-87187622D01*
X212585654Y-87056529D01*
X212741992Y-86895201D01*
X212867290Y-86708738D01*
X212957588Y-86503033D01*
X212960034Y-86492848D01*
X213008722Y-86290046D01*
X213008722Y-86290045D01*
X213010032Y-86284589D01*
X213022963Y-86060310D01*
X212995975Y-85837285D01*
X212929918Y-85622565D01*
X212918078Y-85599624D01*
X212829454Y-85427919D01*
X212829454Y-85427918D01*
X212826882Y-85422936D01*
X212690123Y-85244708D01*
X212618716Y-85179733D01*
X213807822Y-85179733D01*
X213807975Y-85184121D01*
X213807975Y-85184127D01*
X213816489Y-85427919D01*
X213817625Y-85460458D01*
X213818387Y-85464781D01*
X213818388Y-85464788D01*
X213842164Y-85599624D01*
X213866402Y-85737087D01*
X213953203Y-86004235D01*
X213955131Y-86008188D01*
X213955133Y-86008193D01*
X213983287Y-86065917D01*
X214076340Y-86256702D01*
X214078795Y-86260341D01*
X214078798Y-86260347D01*
X214144088Y-86357143D01*
X214233415Y-86489576D01*
X214421371Y-86698322D01*
X214636550Y-86878879D01*
X214874764Y-87027731D01*
X215131375Y-87141982D01*
X215401390Y-87219407D01*
X215405740Y-87220018D01*
X215405743Y-87220019D01*
X215508690Y-87234487D01*
X215679552Y-87258500D01*
X215890146Y-87258500D01*
X215892332Y-87258347D01*
X215892336Y-87258347D01*
X216095827Y-87244118D01*
X216095832Y-87244117D01*
X216100212Y-87243811D01*
X216374970Y-87185409D01*
X216379099Y-87183906D01*
X216379103Y-87183905D01*
X216634781Y-87090846D01*
X216634785Y-87090844D01*
X216638926Y-87089337D01*
X216886942Y-86957464D01*
X216991896Y-86881211D01*
X217110629Y-86794947D01*
X217110632Y-86794944D01*
X217114192Y-86792358D01*
X217125424Y-86781512D01*
X217313087Y-86600287D01*
X217316252Y-86597231D01*
X217489188Y-86375882D01*
X217491384Y-86372078D01*
X217491389Y-86372071D01*
X217622333Y-86145268D01*
X217629636Y-86132619D01*
X217734862Y-85872176D01*
X217749672Y-85812777D01*
X217801753Y-85603893D01*
X217801754Y-85603888D01*
X217802817Y-85599624D01*
X217810476Y-85526759D01*
X217831719Y-85324636D01*
X217831719Y-85324633D01*
X217832178Y-85320267D01*
X217832025Y-85315873D01*
X217822529Y-85043939D01*
X217822528Y-85043933D01*
X217822375Y-85039542D01*
X217818163Y-85015650D01*
X217787455Y-84841500D01*
X217773598Y-84762913D01*
X217686797Y-84495765D01*
X217563660Y-84243298D01*
X217561205Y-84239659D01*
X217561202Y-84239653D01*
X217480935Y-84120653D01*
X217406585Y-84010424D01*
X217218629Y-83801678D01*
X217003450Y-83621121D01*
X216765236Y-83472269D01*
X216508625Y-83358018D01*
X216238610Y-83280593D01*
X216234260Y-83279982D01*
X216234257Y-83279981D01*
X216131310Y-83265513D01*
X215960448Y-83241500D01*
X215749854Y-83241500D01*
X215747668Y-83241653D01*
X215747664Y-83241653D01*
X215544173Y-83255882D01*
X215544168Y-83255883D01*
X215539788Y-83256189D01*
X215265030Y-83314591D01*
X215260901Y-83316094D01*
X215260897Y-83316095D01*
X215005219Y-83409154D01*
X215005215Y-83409156D01*
X215001074Y-83410663D01*
X214753058Y-83542536D01*
X214749499Y-83545122D01*
X214749497Y-83545123D01*
X214644895Y-83621121D01*
X214525808Y-83707642D01*
X214323748Y-83902769D01*
X214150812Y-84124118D01*
X214148616Y-84127922D01*
X214148611Y-84127929D01*
X214052113Y-84295070D01*
X214010364Y-84367381D01*
X213905138Y-84627824D01*
X213904073Y-84632097D01*
X213904072Y-84632099D01*
X213839162Y-84892440D01*
X213837183Y-84900376D01*
X213836724Y-84904744D01*
X213836723Y-84904749D01*
X213811633Y-85143471D01*
X213807822Y-85179733D01*
X212618716Y-85179733D01*
X212523964Y-85093515D01*
X212519217Y-85090537D01*
X212519214Y-85090535D01*
X212338405Y-84977115D01*
X212333656Y-84974136D01*
X212125217Y-84890344D01*
X211905233Y-84844787D01*
X211900622Y-84844521D01*
X211900621Y-84844521D01*
X211850048Y-84841605D01*
X211850044Y-84841605D01*
X211848225Y-84841500D01*
X211183001Y-84841500D01*
X211180214Y-84841749D01*
X211180208Y-84841749D01*
X211110071Y-84848009D01*
X211016238Y-84856383D01*
X211010824Y-84857864D01*
X211010819Y-84857865D01*
X210896262Y-84889205D01*
X210799549Y-84915663D01*
X210794491Y-84918075D01*
X210794487Y-84918077D01*
X210698166Y-84964020D01*
X210596782Y-85012378D01*
X210414346Y-85143471D01*
X210258008Y-85304799D01*
X210132710Y-85491262D01*
X210042412Y-85696967D01*
X210041103Y-85702418D01*
X210041102Y-85702422D01*
X209991278Y-85909954D01*
X209989968Y-85915411D01*
X209989645Y-85921016D01*
X209977445Y-86132619D01*
X209977037Y-86139690D01*
X123300000Y-86139690D01*
X123300000Y-84300000D01*
X147386835Y-84300000D01*
X147405465Y-84536711D01*
X147406619Y-84541518D01*
X147406620Y-84541524D01*
X147441640Y-84687391D01*
X147460895Y-84767594D01*
X147462788Y-84772165D01*
X147462789Y-84772167D01*
X147547681Y-84977115D01*
X147551760Y-84986963D01*
X147554346Y-84991183D01*
X147673241Y-85185202D01*
X147673245Y-85185208D01*
X147675824Y-85189416D01*
X147830031Y-85369969D01*
X148010584Y-85524176D01*
X148014792Y-85526755D01*
X148014798Y-85526759D01*
X148163006Y-85617581D01*
X148213037Y-85648240D01*
X148217607Y-85650133D01*
X148217611Y-85650135D01*
X148417097Y-85732764D01*
X148432406Y-85739105D01*
X148512609Y-85758360D01*
X148658476Y-85793380D01*
X148658482Y-85793381D01*
X148663289Y-85794535D01*
X148900000Y-85813165D01*
X149136711Y-85794535D01*
X149141518Y-85793381D01*
X149141524Y-85793380D01*
X149287391Y-85758360D01*
X149367594Y-85739105D01*
X149382903Y-85732764D01*
X149582389Y-85650135D01*
X149582393Y-85650133D01*
X149586963Y-85648240D01*
X149636994Y-85617581D01*
X149785202Y-85526759D01*
X149785208Y-85526755D01*
X149789416Y-85524176D01*
X149969969Y-85369969D01*
X150124176Y-85189416D01*
X150126755Y-85185208D01*
X150126759Y-85185202D01*
X150245654Y-84991183D01*
X150248240Y-84986963D01*
X150252320Y-84977115D01*
X150337211Y-84772167D01*
X150337212Y-84772165D01*
X150339105Y-84767594D01*
X150358360Y-84687391D01*
X150393380Y-84541524D01*
X150393381Y-84541518D01*
X150394535Y-84536711D01*
X150413165Y-84300000D01*
X150394535Y-84063289D01*
X150381844Y-84010424D01*
X150340260Y-83837218D01*
X150339105Y-83832406D01*
X150288693Y-83710700D01*
X150250135Y-83617611D01*
X150250133Y-83617607D01*
X150248240Y-83613037D01*
X150160883Y-83470484D01*
X150126759Y-83414798D01*
X150126755Y-83414792D01*
X150124176Y-83410584D01*
X149979895Y-83241653D01*
X149973177Y-83233787D01*
X149969969Y-83230031D01*
X149789416Y-83075824D01*
X149785208Y-83073245D01*
X149785202Y-83073241D01*
X149591183Y-82954346D01*
X149586963Y-82951760D01*
X149582393Y-82949867D01*
X149582389Y-82949865D01*
X149372167Y-82862789D01*
X149372165Y-82862788D01*
X149367594Y-82860895D01*
X149287391Y-82841640D01*
X149141524Y-82806620D01*
X149141518Y-82806619D01*
X149136711Y-82805465D01*
X148900000Y-82786835D01*
X148663289Y-82805465D01*
X148658482Y-82806619D01*
X148658476Y-82806620D01*
X148512609Y-82841640D01*
X148432406Y-82860895D01*
X148427835Y-82862788D01*
X148427833Y-82862789D01*
X148217611Y-82949865D01*
X148217607Y-82949867D01*
X148213037Y-82951760D01*
X148208817Y-82954346D01*
X148014798Y-83073241D01*
X148014792Y-83073245D01*
X148010584Y-83075824D01*
X147830031Y-83230031D01*
X147826823Y-83233787D01*
X147820105Y-83241653D01*
X147675824Y-83410584D01*
X147673245Y-83414792D01*
X147673241Y-83414798D01*
X147639117Y-83470484D01*
X147551760Y-83613037D01*
X147549867Y-83617607D01*
X147549865Y-83617611D01*
X147511307Y-83710700D01*
X147460895Y-83832406D01*
X147459740Y-83837218D01*
X147418157Y-84010424D01*
X147405465Y-84063289D01*
X147386835Y-84300000D01*
X123300000Y-84300000D01*
X123300000Y-68426000D01*
X123320002Y-68357879D01*
X123373658Y-68311386D01*
X123426000Y-68300000D01*
X152415833Y-68300000D01*
X152483954Y-68320002D01*
G37*
%TD.AperFunction*%
%TD*%
M02*
