%TF.GenerationSoftware,KiCad,Pcbnew,(6.0.7-1)-1*%
%TF.CreationDate,2022-12-12T00:26:17-05:00*%
%TF.ProjectId,HVPCB,48565043-422e-46b6-9963-61645f706362,rev?*%
%TF.SameCoordinates,Original*%
%TF.FileFunction,Legend,Top*%
%TF.FilePolarity,Positive*%
%FSLAX46Y46*%
G04 Gerber Fmt 4.6, Leading zero omitted, Abs format (unit mm)*
G04 Created by KiCad (PCBNEW (6.0.7-1)-1) date 2022-12-12 00:26:17*
%MOMM*%
%LPD*%
G01*
G04 APERTURE LIST*
%ADD10C,0.300000*%
%ADD11C,0.150000*%
%ADD12C,0.200000*%
%ADD13C,0.250000*%
%ADD14C,0.120000*%
%ADD15C,0.254001*%
%ADD16C,0.059995*%
%ADD17C,0.152400*%
%ADD18C,0.202997*%
G04 APERTURE END LIST*
D10*
X197385714Y-98778571D02*
X198242857Y-98778571D01*
X197814285Y-100278571D02*
X197814285Y-98778571D01*
X198671428Y-100207142D02*
X198885714Y-100278571D01*
X199242857Y-100278571D01*
X199385714Y-100207142D01*
X199457142Y-100135714D01*
X199528571Y-99992857D01*
X199528571Y-99850000D01*
X199457142Y-99707142D01*
X199385714Y-99635714D01*
X199242857Y-99564285D01*
X198957142Y-99492857D01*
X198814285Y-99421428D01*
X198742857Y-99350000D01*
X198671428Y-99207142D01*
X198671428Y-99064285D01*
X198742857Y-98921428D01*
X198814285Y-98850000D01*
X198957142Y-98778571D01*
X199314285Y-98778571D01*
X199528571Y-98850000D01*
X199814285Y-100421428D02*
X200957142Y-100421428D01*
X201242857Y-100207142D02*
X201457142Y-100278571D01*
X201814285Y-100278571D01*
X201957142Y-100207142D01*
X202028571Y-100135714D01*
X202100000Y-99992857D01*
X202100000Y-99850000D01*
X202028571Y-99707142D01*
X201957142Y-99635714D01*
X201814285Y-99564285D01*
X201528571Y-99492857D01*
X201385714Y-99421428D01*
X201314285Y-99350000D01*
X201242857Y-99207142D01*
X201242857Y-99064285D01*
X201314285Y-98921428D01*
X201385714Y-98850000D01*
X201528571Y-98778571D01*
X201885714Y-98778571D01*
X202100000Y-98850000D01*
X202528571Y-98778571D02*
X203385714Y-98778571D01*
X202957142Y-100278571D02*
X202957142Y-98778571D01*
X203814285Y-99850000D02*
X204528571Y-99850000D01*
X203671428Y-100278571D02*
X204171428Y-98778571D01*
X204671428Y-100278571D01*
X204957142Y-98778571D02*
X205814285Y-98778571D01*
X205385714Y-100278571D02*
X205385714Y-98778571D01*
X206314285Y-98778571D02*
X206314285Y-99992857D01*
X206385714Y-100135714D01*
X206457142Y-100207142D01*
X206600000Y-100278571D01*
X206885714Y-100278571D01*
X207028571Y-100207142D01*
X207100000Y-100135714D01*
X207171428Y-99992857D01*
X207171428Y-98778571D01*
X207814285Y-100207142D02*
X208028571Y-100278571D01*
X208385714Y-100278571D01*
X208528571Y-100207142D01*
X208600000Y-100135714D01*
X208671428Y-99992857D01*
X208671428Y-99850000D01*
X208600000Y-99707142D01*
X208528571Y-99635714D01*
X208385714Y-99564285D01*
X208100000Y-99492857D01*
X207957142Y-99421428D01*
X207885714Y-99350000D01*
X207814285Y-99207142D01*
X207814285Y-99064285D01*
X207885714Y-98921428D01*
X207957142Y-98850000D01*
X208100000Y-98778571D01*
X208457142Y-98778571D01*
X208671428Y-98850000D01*
X202385714Y-93750000D02*
X202242857Y-93678571D01*
X202028571Y-93678571D01*
X201814285Y-93750000D01*
X201671428Y-93892857D01*
X201600000Y-94035714D01*
X201528571Y-94321428D01*
X201528571Y-94535714D01*
X201600000Y-94821428D01*
X201671428Y-94964285D01*
X201814285Y-95107142D01*
X202028571Y-95178571D01*
X202171428Y-95178571D01*
X202385714Y-95107142D01*
X202457142Y-95035714D01*
X202457142Y-94535714D01*
X202171428Y-94535714D01*
X202742857Y-95321428D02*
X203885714Y-95321428D01*
X204028571Y-93678571D02*
X204885714Y-93678571D01*
X204457142Y-95178571D02*
X204457142Y-93678571D01*
X205314285Y-95107142D02*
X205528571Y-95178571D01*
X205885714Y-95178571D01*
X206028571Y-95107142D01*
X206100000Y-95035714D01*
X206171428Y-94892857D01*
X206171428Y-94750000D01*
X206100000Y-94607142D01*
X206028571Y-94535714D01*
X205885714Y-94464285D01*
X205600000Y-94392857D01*
X205457142Y-94321428D01*
X205385714Y-94250000D01*
X205314285Y-94107142D01*
X205314285Y-93964285D01*
X205385714Y-93821428D01*
X205457142Y-93750000D01*
X205600000Y-93678571D01*
X205957142Y-93678571D01*
X206171428Y-93750000D01*
X206742857Y-94750000D02*
X207457142Y-94750000D01*
X206600000Y-95178571D02*
X207100000Y-93678571D01*
X207600000Y-95178571D01*
X208814285Y-95178571D02*
X208100000Y-95178571D01*
X208100000Y-93678571D01*
X202557142Y-89878571D02*
X202057142Y-89164285D01*
X201700000Y-89878571D02*
X201700000Y-88378571D01*
X202271428Y-88378571D01*
X202414285Y-88450000D01*
X202485714Y-88521428D01*
X202557142Y-88664285D01*
X202557142Y-88878571D01*
X202485714Y-89021428D01*
X202414285Y-89092857D01*
X202271428Y-89164285D01*
X201700000Y-89164285D01*
X202842857Y-90021428D02*
X203985714Y-90021428D01*
X204128571Y-88378571D02*
X204985714Y-88378571D01*
X204557142Y-89878571D02*
X204557142Y-88378571D01*
X205414285Y-89807142D02*
X205628571Y-89878571D01*
X205985714Y-89878571D01*
X206128571Y-89807142D01*
X206200000Y-89735714D01*
X206271428Y-89592857D01*
X206271428Y-89450000D01*
X206200000Y-89307142D01*
X206128571Y-89235714D01*
X205985714Y-89164285D01*
X205700000Y-89092857D01*
X205557142Y-89021428D01*
X205485714Y-88950000D01*
X205414285Y-88807142D01*
X205414285Y-88664285D01*
X205485714Y-88521428D01*
X205557142Y-88450000D01*
X205700000Y-88378571D01*
X206057142Y-88378571D01*
X206271428Y-88450000D01*
X206842857Y-89450000D02*
X207557142Y-89450000D01*
X206700000Y-89878571D02*
X207200000Y-88378571D01*
X207700000Y-89878571D01*
X208914285Y-89878571D02*
X208200000Y-89878571D01*
X208200000Y-88378571D01*
X207014285Y-83878571D02*
X206300000Y-83878571D01*
X206228571Y-84592857D01*
X206300000Y-84521428D01*
X206442857Y-84450000D01*
X206800000Y-84450000D01*
X206942857Y-84521428D01*
X207014285Y-84592857D01*
X207085714Y-84735714D01*
X207085714Y-85092857D01*
X207014285Y-85235714D01*
X206942857Y-85307142D01*
X206800000Y-85378571D01*
X206442857Y-85378571D01*
X206300000Y-85307142D01*
X206228571Y-85235714D01*
X207514285Y-83878571D02*
X208014285Y-85378571D01*
X208514285Y-83878571D01*
X81057142Y-88778571D02*
X81057142Y-87278571D01*
X81057142Y-87992857D02*
X81914285Y-87992857D01*
X81914285Y-88778571D02*
X81914285Y-87278571D01*
X82414285Y-87278571D02*
X82914285Y-88778571D01*
X83414285Y-87278571D01*
X83914285Y-88207142D02*
X85057142Y-88207142D01*
X84485714Y-88778571D02*
X84485714Y-87635714D01*
X86842857Y-87207142D02*
X85557142Y-89135714D01*
X87342857Y-88778571D02*
X87342857Y-87278571D01*
X87342857Y-87992857D02*
X88200000Y-87992857D01*
X88200000Y-88778571D02*
X88200000Y-87278571D01*
X88700000Y-87278571D02*
X89200000Y-88778571D01*
X89700000Y-87278571D01*
X90200000Y-88207142D02*
X91342857Y-88207142D01*
D11*
X125323809Y-70852380D02*
X124847619Y-70852380D01*
X124847619Y-69852380D01*
X125514285Y-69852380D02*
X125847619Y-70852380D01*
X126180952Y-69852380D01*
X127180952Y-69852380D02*
X127847619Y-69852380D01*
X127180952Y-70852380D01*
X127847619Y-70852380D01*
X128419047Y-69852380D02*
X128609523Y-69852380D01*
X128704761Y-69900000D01*
X128800000Y-69995238D01*
X128847619Y-70185714D01*
X128847619Y-70519047D01*
X128800000Y-70709523D01*
X128704761Y-70804761D01*
X128609523Y-70852380D01*
X128419047Y-70852380D01*
X128323809Y-70804761D01*
X128228571Y-70709523D01*
X128180952Y-70519047D01*
X128180952Y-70185714D01*
X128228571Y-69995238D01*
X128323809Y-69900000D01*
X128419047Y-69852380D01*
X129276190Y-70852380D02*
X129276190Y-69852380D01*
X129847619Y-70852380D01*
X129847619Y-69852380D01*
X130323809Y-70328571D02*
X130657142Y-70328571D01*
X130800000Y-70852380D02*
X130323809Y-70852380D01*
X130323809Y-69852380D01*
X130800000Y-69852380D01*
D12*
X82223809Y-75352380D02*
X82223809Y-74685714D01*
X82223809Y-74876190D02*
X82271428Y-74780952D01*
X82319047Y-74733333D01*
X82414285Y-74685714D01*
X82509523Y-74685714D01*
X83223809Y-75304761D02*
X83128571Y-75352380D01*
X82938095Y-75352380D01*
X82842857Y-75304761D01*
X82795238Y-75209523D01*
X82795238Y-74828571D01*
X82842857Y-74733333D01*
X82938095Y-74685714D01*
X83128571Y-74685714D01*
X83223809Y-74733333D01*
X83271428Y-74828571D01*
X83271428Y-74923809D01*
X82795238Y-75019047D01*
X83604761Y-74685714D02*
X83842857Y-75352380D01*
X84080952Y-74685714D01*
X84461904Y-75257142D02*
X84509523Y-75304761D01*
X84461904Y-75352380D01*
X84414285Y-75304761D01*
X84461904Y-75257142D01*
X84461904Y-75352380D01*
X86223809Y-75352380D02*
X85652380Y-75352380D01*
X85938095Y-75352380D02*
X85938095Y-74352380D01*
X85842857Y-74495238D01*
X85747619Y-74590476D01*
X85652380Y-74638095D01*
D10*
X97423809Y-122104761D02*
X96471428Y-122104761D01*
X96471428Y-120104761D01*
X98090476Y-122104761D02*
X98090476Y-120104761D01*
X98090476Y-121057142D02*
X99233333Y-121057142D01*
X99233333Y-122104761D02*
X99233333Y-120104761D01*
X101328571Y-122104761D02*
X100661904Y-121152380D01*
X100185714Y-122104761D02*
X100185714Y-120104761D01*
X100947619Y-120104761D01*
X101138095Y-120200000D01*
X101233333Y-120295238D01*
X101328571Y-120485714D01*
X101328571Y-120771428D01*
X101233333Y-120961904D01*
X101138095Y-121057142D01*
X100947619Y-121152380D01*
X100185714Y-121152380D01*
X102185714Y-121057142D02*
X102852380Y-121057142D01*
X103138095Y-122104761D02*
X102185714Y-122104761D01*
X102185714Y-120104761D01*
X103138095Y-120104761D01*
X105519047Y-121342857D02*
X107042857Y-121342857D01*
X109519047Y-122104761D02*
X109519047Y-120104761D01*
X109519047Y-121057142D02*
X110661904Y-121057142D01*
X110661904Y-122104761D02*
X110661904Y-120104761D01*
X111328571Y-120104761D02*
X111995238Y-122104761D01*
X112661904Y-120104761D01*
X113328571Y-122104761D02*
X113328571Y-120104761D01*
X114090476Y-120104761D01*
X114280952Y-120200000D01*
X114376190Y-120295238D01*
X114471428Y-120485714D01*
X114471428Y-120771428D01*
X114376190Y-120961904D01*
X114280952Y-121057142D01*
X114090476Y-121152380D01*
X113328571Y-121152380D01*
X116471428Y-121914285D02*
X116376190Y-122009523D01*
X116090476Y-122104761D01*
X115900000Y-122104761D01*
X115614285Y-122009523D01*
X115423809Y-121819047D01*
X115328571Y-121628571D01*
X115233333Y-121247619D01*
X115233333Y-120961904D01*
X115328571Y-120580952D01*
X115423809Y-120390476D01*
X115614285Y-120200000D01*
X115900000Y-120104761D01*
X116090476Y-120104761D01*
X116376190Y-120200000D01*
X116471428Y-120295238D01*
X117995238Y-121057142D02*
X118280952Y-121152380D01*
X118376190Y-121247619D01*
X118471428Y-121438095D01*
X118471428Y-121723809D01*
X118376190Y-121914285D01*
X118280952Y-122009523D01*
X118090476Y-122104761D01*
X117328571Y-122104761D01*
X117328571Y-120104761D01*
X117995238Y-120104761D01*
X118185714Y-120200000D01*
X118280952Y-120295238D01*
X118376190Y-120485714D01*
X118376190Y-120676190D01*
X118280952Y-120866666D01*
X118185714Y-120961904D01*
X117995238Y-121057142D01*
X117328571Y-121057142D01*
X120852380Y-121342857D02*
X122376190Y-121342857D01*
X125899999Y-122104761D02*
X124757142Y-122104761D01*
X125328571Y-122104761D02*
X125328571Y-120104761D01*
X125138095Y-120390476D01*
X124947619Y-120580952D01*
X124757142Y-120676190D01*
X126661904Y-120295238D02*
X126757142Y-120200000D01*
X126947619Y-120104761D01*
X127423809Y-120104761D01*
X127614285Y-120200000D01*
X127709523Y-120295238D01*
X127804761Y-120485714D01*
X127804761Y-120676190D01*
X127709523Y-120961904D01*
X126566666Y-122104761D01*
X127804761Y-122104761D01*
X130090476Y-120009523D02*
X128376190Y-122580952D01*
X131804761Y-122104761D02*
X130661904Y-122104761D01*
X131233333Y-122104761D02*
X131233333Y-120104761D01*
X131042857Y-120390476D01*
X130852380Y-120580952D01*
X130661904Y-120676190D01*
X133042857Y-120104761D02*
X133233333Y-120104761D01*
X133423809Y-120200000D01*
X133519047Y-120295238D01*
X133614285Y-120485714D01*
X133709523Y-120866666D01*
X133709523Y-121342857D01*
X133614285Y-121723809D01*
X133519047Y-121914285D01*
X133423809Y-122009523D01*
X133233333Y-122104761D01*
X133042857Y-122104761D01*
X132852380Y-122009523D01*
X132757142Y-121914285D01*
X132661904Y-121723809D01*
X132566666Y-121342857D01*
X132566666Y-120866666D01*
X132661904Y-120485714D01*
X132757142Y-120295238D01*
X132852380Y-120200000D01*
X133042857Y-120104761D01*
X135995238Y-120009523D02*
X134280952Y-122580952D01*
X136566666Y-120295238D02*
X136661904Y-120200000D01*
X136852380Y-120104761D01*
X137328571Y-120104761D01*
X137519047Y-120200000D01*
X137614285Y-120295238D01*
X137709523Y-120485714D01*
X137709523Y-120676190D01*
X137614285Y-120961904D01*
X136471428Y-122104761D01*
X137709523Y-122104761D01*
X138947619Y-120104761D02*
X139138095Y-120104761D01*
X139328571Y-120200000D01*
X139423809Y-120295238D01*
X139519047Y-120485714D01*
X139614285Y-120866666D01*
X139614285Y-121342857D01*
X139519047Y-121723809D01*
X139423809Y-121914285D01*
X139328571Y-122009523D01*
X139138095Y-122104761D01*
X138947619Y-122104761D01*
X138757142Y-122009523D01*
X138661904Y-121914285D01*
X138566666Y-121723809D01*
X138471428Y-121342857D01*
X138471428Y-120866666D01*
X138566666Y-120485714D01*
X138661904Y-120295238D01*
X138757142Y-120200000D01*
X138947619Y-120104761D01*
X140376190Y-120295238D02*
X140471428Y-120200000D01*
X140661904Y-120104761D01*
X141138095Y-120104761D01*
X141328571Y-120200000D01*
X141423809Y-120295238D01*
X141519047Y-120485714D01*
X141519047Y-120676190D01*
X141423809Y-120961904D01*
X140280952Y-122104761D01*
X141519047Y-122104761D01*
X142280952Y-120295238D02*
X142376190Y-120200000D01*
X142566666Y-120104761D01*
X143042857Y-120104761D01*
X143233333Y-120200000D01*
X143328571Y-120295238D01*
X143423809Y-120485714D01*
X143423809Y-120676190D01*
X143328571Y-120961904D01*
X142185714Y-122104761D01*
X143423809Y-122104761D01*
D13*
X100657142Y-106704761D02*
X101800000Y-106704761D01*
X101228571Y-108704761D02*
X101228571Y-106704761D01*
X102371428Y-108609523D02*
X102657142Y-108704761D01*
X103133333Y-108704761D01*
X103323809Y-108609523D01*
X103419047Y-108514285D01*
X103514285Y-108323809D01*
X103514285Y-108133333D01*
X103419047Y-107942857D01*
X103323809Y-107847619D01*
X103133333Y-107752380D01*
X102752380Y-107657142D01*
X102561904Y-107561904D01*
X102466666Y-107466666D01*
X102371428Y-107276190D01*
X102371428Y-107085714D01*
X102466666Y-106895238D01*
X102561904Y-106800000D01*
X102752380Y-106704761D01*
X103228571Y-106704761D01*
X103514285Y-106800000D01*
X104085714Y-106704761D02*
X104752380Y-108704761D01*
X105419047Y-106704761D01*
X107609523Y-108704761D02*
X107609523Y-106704761D01*
X108561904Y-108704761D02*
X108561904Y-106704761D01*
X109704761Y-108704761D01*
X109704761Y-106704761D01*
X110657142Y-108704761D02*
X110657142Y-106704761D01*
X111133333Y-106704761D01*
X111419047Y-106800000D01*
X111609523Y-106990476D01*
X111704761Y-107180952D01*
X111800000Y-107561904D01*
X111800000Y-107847619D01*
X111704761Y-108228571D01*
X111609523Y-108419047D01*
X111419047Y-108609523D01*
X111133333Y-108704761D01*
X110657142Y-108704761D01*
X112657142Y-108514285D02*
X112752380Y-108609523D01*
X112657142Y-108704761D01*
X112561904Y-108609523D01*
X112657142Y-108514285D01*
X112657142Y-108704761D01*
X155085714Y-102790000D02*
X154895238Y-102694761D01*
X154609523Y-102694761D01*
X154323809Y-102790000D01*
X154133333Y-102980476D01*
X154038095Y-103170952D01*
X153942857Y-103551904D01*
X153942857Y-103837619D01*
X154038095Y-104218571D01*
X154133333Y-104409047D01*
X154323809Y-104599523D01*
X154609523Y-104694761D01*
X154800000Y-104694761D01*
X155085714Y-104599523D01*
X155180952Y-104504285D01*
X155180952Y-103837619D01*
X154800000Y-103837619D01*
X155561904Y-104885238D02*
X157085714Y-104885238D01*
X157276190Y-102694761D02*
X158419047Y-102694761D01*
X157847619Y-104694761D02*
X157847619Y-102694761D01*
X158990476Y-104599523D02*
X159276190Y-104694761D01*
X159752380Y-104694761D01*
X159942857Y-104599523D01*
X160038095Y-104504285D01*
X160133333Y-104313809D01*
X160133333Y-104123333D01*
X160038095Y-103932857D01*
X159942857Y-103837619D01*
X159752380Y-103742380D01*
X159371428Y-103647142D01*
X159180952Y-103551904D01*
X159085714Y-103456666D01*
X158990476Y-103266190D01*
X158990476Y-103075714D01*
X159085714Y-102885238D01*
X159180952Y-102790000D01*
X159371428Y-102694761D01*
X159847619Y-102694761D01*
X160133333Y-102790000D01*
X160895238Y-104123333D02*
X161847619Y-104123333D01*
X160704761Y-104694761D02*
X161371428Y-102694761D01*
X162038095Y-104694761D01*
X163657142Y-104694761D02*
X162704761Y-104694761D01*
X162704761Y-102694761D01*
X166419047Y-105456666D02*
X166323809Y-105361428D01*
X166133333Y-105075714D01*
X166038095Y-104885238D01*
X165942857Y-104599523D01*
X165847619Y-104123333D01*
X165847619Y-103742380D01*
X165942857Y-103266190D01*
X166038095Y-102980476D01*
X166133333Y-102790000D01*
X166323809Y-102504285D01*
X166419047Y-102409047D01*
X168704761Y-103361428D02*
X167180952Y-103932857D01*
X168704761Y-104504285D01*
X170514285Y-102694761D02*
X170133333Y-102694761D01*
X169942857Y-102790000D01*
X169847619Y-102885238D01*
X169657142Y-103170952D01*
X169561904Y-103551904D01*
X169561904Y-104313809D01*
X169657142Y-104504285D01*
X169752380Y-104599523D01*
X169942857Y-104694761D01*
X170323809Y-104694761D01*
X170514285Y-104599523D01*
X170609523Y-104504285D01*
X170704761Y-104313809D01*
X170704761Y-103837619D01*
X170609523Y-103647142D01*
X170514285Y-103551904D01*
X170323809Y-103456666D01*
X169942857Y-103456666D01*
X169752380Y-103551904D01*
X169657142Y-103647142D01*
X169561904Y-103837619D01*
X171942857Y-102694761D02*
X172133333Y-102694761D01*
X172323809Y-102790000D01*
X172419047Y-102885238D01*
X172514285Y-103075714D01*
X172609523Y-103456666D01*
X172609523Y-103932857D01*
X172514285Y-104313809D01*
X172419047Y-104504285D01*
X172323809Y-104599523D01*
X172133333Y-104694761D01*
X171942857Y-104694761D01*
X171752380Y-104599523D01*
X171657142Y-104504285D01*
X171561904Y-104313809D01*
X171466666Y-103932857D01*
X171466666Y-103456666D01*
X171561904Y-103075714D01*
X171657142Y-102885238D01*
X171752380Y-102790000D01*
X171942857Y-102694761D01*
X173180952Y-102694761D02*
X173847619Y-104694761D01*
X174514285Y-102694761D01*
X174990476Y-105456666D02*
X175085714Y-105361428D01*
X175276190Y-105075714D01*
X175371428Y-104885238D01*
X175466666Y-104599523D01*
X175561904Y-104123333D01*
X175561904Y-103742380D01*
X175466666Y-103266190D01*
X175371428Y-102980476D01*
X175276190Y-102790000D01*
X175085714Y-102504285D01*
X174990476Y-102409047D01*
X154680952Y-80194761D02*
X154014285Y-79242380D01*
X153538095Y-80194761D02*
X153538095Y-78194761D01*
X154300000Y-78194761D01*
X154490476Y-78290000D01*
X154585714Y-78385238D01*
X154680952Y-78575714D01*
X154680952Y-78861428D01*
X154585714Y-79051904D01*
X154490476Y-79147142D01*
X154300000Y-79242380D01*
X153538095Y-79242380D01*
X155061904Y-80385238D02*
X156585714Y-80385238D01*
X156776190Y-78194761D02*
X157919047Y-78194761D01*
X157347619Y-80194761D02*
X157347619Y-78194761D01*
X158490476Y-80099523D02*
X158776190Y-80194761D01*
X159252380Y-80194761D01*
X159442857Y-80099523D01*
X159538095Y-80004285D01*
X159633333Y-79813809D01*
X159633333Y-79623333D01*
X159538095Y-79432857D01*
X159442857Y-79337619D01*
X159252380Y-79242380D01*
X158871428Y-79147142D01*
X158680952Y-79051904D01*
X158585714Y-78956666D01*
X158490476Y-78766190D01*
X158490476Y-78575714D01*
X158585714Y-78385238D01*
X158680952Y-78290000D01*
X158871428Y-78194761D01*
X159347619Y-78194761D01*
X159633333Y-78290000D01*
X160395238Y-79623333D02*
X161347619Y-79623333D01*
X160204761Y-80194761D02*
X160871428Y-78194761D01*
X161538095Y-80194761D01*
X163157142Y-80194761D02*
X162204761Y-80194761D01*
X162204761Y-78194761D01*
X165919047Y-80956666D02*
X165823809Y-80861428D01*
X165633333Y-80575714D01*
X165538095Y-80385238D01*
X165442857Y-80099523D01*
X165347619Y-79623333D01*
X165347619Y-79242380D01*
X165442857Y-78766190D01*
X165538095Y-78480476D01*
X165633333Y-78290000D01*
X165823809Y-78004285D01*
X165919047Y-77909047D01*
X166680952Y-78861428D02*
X168204761Y-79432857D01*
X166680952Y-80004285D01*
X170014285Y-78194761D02*
X169633333Y-78194761D01*
X169442857Y-78290000D01*
X169347619Y-78385238D01*
X169157142Y-78670952D01*
X169061904Y-79051904D01*
X169061904Y-79813809D01*
X169157142Y-80004285D01*
X169252380Y-80099523D01*
X169442857Y-80194761D01*
X169823809Y-80194761D01*
X170014285Y-80099523D01*
X170109523Y-80004285D01*
X170204761Y-79813809D01*
X170204761Y-79337619D01*
X170109523Y-79147142D01*
X170014285Y-79051904D01*
X169823809Y-78956666D01*
X169442857Y-78956666D01*
X169252380Y-79051904D01*
X169157142Y-79147142D01*
X169061904Y-79337619D01*
X171442857Y-78194761D02*
X171633333Y-78194761D01*
X171823809Y-78290000D01*
X171919047Y-78385238D01*
X172014285Y-78575714D01*
X172109523Y-78956666D01*
X172109523Y-79432857D01*
X172014285Y-79813809D01*
X171919047Y-80004285D01*
X171823809Y-80099523D01*
X171633333Y-80194761D01*
X171442857Y-80194761D01*
X171252380Y-80099523D01*
X171157142Y-80004285D01*
X171061904Y-79813809D01*
X170966666Y-79432857D01*
X170966666Y-78956666D01*
X171061904Y-78575714D01*
X171157142Y-78385238D01*
X171252380Y-78290000D01*
X171442857Y-78194761D01*
X172680952Y-78194761D02*
X173347619Y-80194761D01*
X174014285Y-78194761D01*
X174490476Y-80956666D02*
X174585714Y-80861428D01*
X174776190Y-80575714D01*
X174871428Y-80385238D01*
X174966666Y-80099523D01*
X175061904Y-79623333D01*
X175061904Y-79242380D01*
X174966666Y-78766190D01*
X174871428Y-78480476D01*
X174776190Y-78290000D01*
X174585714Y-78004285D01*
X174490476Y-77909047D01*
D11*
X123500000Y-68500000D02*
X219135400Y-68500000D01*
X219135400Y-68500000D02*
X219135400Y-118822600D01*
X219135400Y-118822600D02*
X123500000Y-118822600D01*
X123500000Y-118822600D02*
X123500000Y-68500000D01*
%TO.C,D1*%
X97961904Y-98452380D02*
X97961904Y-97452380D01*
X98200000Y-97452380D01*
X98342857Y-97500000D01*
X98438095Y-97595238D01*
X98485714Y-97690476D01*
X98533333Y-97880952D01*
X98533333Y-98023809D01*
X98485714Y-98214285D01*
X98438095Y-98309523D01*
X98342857Y-98404761D01*
X98200000Y-98452380D01*
X97961904Y-98452380D01*
X99485714Y-98452380D02*
X98914285Y-98452380D01*
X99200000Y-98452380D02*
X99200000Y-97452380D01*
X99104761Y-97595238D01*
X99009523Y-97690476D01*
X98914285Y-97738095D01*
%TO.C,C5*%
X158070833Y-94757142D02*
X158023214Y-94804761D01*
X157880357Y-94852380D01*
X157785119Y-94852380D01*
X157642261Y-94804761D01*
X157547023Y-94709523D01*
X157499404Y-94614285D01*
X157451785Y-94423809D01*
X157451785Y-94280952D01*
X157499404Y-94090476D01*
X157547023Y-93995238D01*
X157642261Y-93900000D01*
X157785119Y-93852380D01*
X157880357Y-93852380D01*
X158023214Y-93900000D01*
X158070833Y-93947619D01*
X158975595Y-93852380D02*
X158499404Y-93852380D01*
X158451785Y-94328571D01*
X158499404Y-94280952D01*
X158594642Y-94233333D01*
X158832738Y-94233333D01*
X158927976Y-94280952D01*
X158975595Y-94328571D01*
X159023214Y-94423809D01*
X159023214Y-94661904D01*
X158975595Y-94757142D01*
X158927976Y-94804761D01*
X158832738Y-94852380D01*
X158594642Y-94852380D01*
X158499404Y-94804761D01*
X158451785Y-94757142D01*
%TO.C,C4*%
X158083333Y-83057142D02*
X158035714Y-83104761D01*
X157892857Y-83152380D01*
X157797619Y-83152380D01*
X157654761Y-83104761D01*
X157559523Y-83009523D01*
X157511904Y-82914285D01*
X157464285Y-82723809D01*
X157464285Y-82580952D01*
X157511904Y-82390476D01*
X157559523Y-82295238D01*
X157654761Y-82200000D01*
X157797619Y-82152380D01*
X157892857Y-82152380D01*
X158035714Y-82200000D01*
X158083333Y-82247619D01*
X158940476Y-82485714D02*
X158940476Y-83152380D01*
X158702380Y-82104761D02*
X158464285Y-82819047D01*
X159083333Y-82819047D01*
%TO.C,C3*%
X142718334Y-83094986D02*
X142670715Y-83142605D01*
X142527858Y-83190224D01*
X142432620Y-83190224D01*
X142289762Y-83142605D01*
X142194524Y-83047367D01*
X142146905Y-82952129D01*
X142099286Y-82761653D01*
X142099286Y-82618796D01*
X142146905Y-82428320D01*
X142194524Y-82333082D01*
X142289762Y-82237844D01*
X142432620Y-82190224D01*
X142527858Y-82190224D01*
X142670715Y-82237844D01*
X142718334Y-82285463D01*
X143051667Y-82190224D02*
X143670715Y-82190224D01*
X143337381Y-82571177D01*
X143480239Y-82571177D01*
X143575477Y-82618796D01*
X143623096Y-82666415D01*
X143670715Y-82761653D01*
X143670715Y-82999748D01*
X143623096Y-83094986D01*
X143575477Y-83142605D01*
X143480239Y-83190224D01*
X143194524Y-83190224D01*
X143099286Y-83142605D01*
X143051667Y-83094986D01*
%TO.C,C2*%
X138868334Y-85954986D02*
X138820715Y-86002605D01*
X138677858Y-86050224D01*
X138582620Y-86050224D01*
X138439762Y-86002605D01*
X138344524Y-85907367D01*
X138296905Y-85812129D01*
X138249286Y-85621653D01*
X138249286Y-85478796D01*
X138296905Y-85288320D01*
X138344524Y-85193082D01*
X138439762Y-85097844D01*
X138582620Y-85050224D01*
X138677858Y-85050224D01*
X138820715Y-85097844D01*
X138868334Y-85145463D01*
X139249286Y-85145463D02*
X139296905Y-85097844D01*
X139392143Y-85050224D01*
X139630239Y-85050224D01*
X139725477Y-85097844D01*
X139773096Y-85145463D01*
X139820715Y-85240701D01*
X139820715Y-85335939D01*
X139773096Y-85478796D01*
X139201667Y-86050224D01*
X139820715Y-86050224D01*
%TO.C,J1*%
X217052380Y-93994633D02*
X217766666Y-93994633D01*
X217909523Y-94042252D01*
X218004761Y-94137490D01*
X218052380Y-94280347D01*
X218052380Y-94375585D01*
X218052380Y-92994633D02*
X218052380Y-93566061D01*
X218052380Y-93280347D02*
X217052380Y-93280347D01*
X217195238Y-93375585D01*
X217290476Y-93470823D01*
X217338095Y-93566061D01*
%TO.C,R17*%
X99239381Y-96172857D02*
X98906048Y-95696667D01*
X98667953Y-96172857D02*
X98667953Y-95172857D01*
X99048905Y-95172857D01*
X99144143Y-95220477D01*
X99191762Y-95268096D01*
X99239381Y-95363334D01*
X99239381Y-95506191D01*
X99191762Y-95601429D01*
X99144143Y-95649048D01*
X99048905Y-95696667D01*
X98667953Y-95696667D01*
X100191762Y-96172857D02*
X99620334Y-96172857D01*
X99906048Y-96172857D02*
X99906048Y-95172857D01*
X99810810Y-95315715D01*
X99715572Y-95410953D01*
X99620334Y-95458572D01*
X100525096Y-95172857D02*
X101191762Y-95172857D01*
X100763191Y-96172857D01*
%TO.C,U4*%
X96342170Y-91926903D02*
X97151694Y-91926903D01*
X97246932Y-91879284D01*
X97294551Y-91831665D01*
X97342170Y-91736427D01*
X97342170Y-91545951D01*
X97294551Y-91450713D01*
X97246932Y-91403094D01*
X97151694Y-91355475D01*
X96342170Y-91355475D01*
X96675504Y-90450713D02*
X97342170Y-90450713D01*
X96294551Y-90688808D02*
X97008837Y-90926903D01*
X97008837Y-90307856D01*
%TO.C,R4*%
X158172380Y-86666666D02*
X157696190Y-87000000D01*
X158172380Y-87238095D02*
X157172380Y-87238095D01*
X157172380Y-86857142D01*
X157220000Y-86761904D01*
X157267619Y-86714285D01*
X157362857Y-86666666D01*
X157505714Y-86666666D01*
X157600952Y-86714285D01*
X157648571Y-86761904D01*
X157696190Y-86857142D01*
X157696190Y-87238095D01*
X157505714Y-85809523D02*
X158172380Y-85809523D01*
X157124761Y-86047619D02*
X157839047Y-86285714D01*
X157839047Y-85666666D01*
%TO.C,U5*%
X162075595Y-100952380D02*
X162075595Y-101761904D01*
X162123214Y-101857142D01*
X162170833Y-101904761D01*
X162266071Y-101952380D01*
X162456547Y-101952380D01*
X162551785Y-101904761D01*
X162599404Y-101857142D01*
X162647023Y-101761904D01*
X162647023Y-100952380D01*
X163599404Y-100952380D02*
X163123214Y-100952380D01*
X163075595Y-101428571D01*
X163123214Y-101380952D01*
X163218452Y-101333333D01*
X163456547Y-101333333D01*
X163551785Y-101380952D01*
X163599404Y-101428571D01*
X163647023Y-101523809D01*
X163647023Y-101761904D01*
X163599404Y-101857142D01*
X163551785Y-101904761D01*
X163456547Y-101952380D01*
X163218452Y-101952380D01*
X163123214Y-101904761D01*
X163075595Y-101857142D01*
%TO.C,R1*%
X157833333Y-90452380D02*
X157500000Y-89976190D01*
X157261904Y-90452380D02*
X157261904Y-89452380D01*
X157642857Y-89452380D01*
X157738095Y-89500000D01*
X157785714Y-89547619D01*
X157833333Y-89642857D01*
X157833333Y-89785714D01*
X157785714Y-89880952D01*
X157738095Y-89928571D01*
X157642857Y-89976190D01*
X157261904Y-89976190D01*
X158785714Y-90452380D02*
X158214285Y-90452380D01*
X158500000Y-90452380D02*
X158500000Y-89452380D01*
X158404761Y-89595238D01*
X158309523Y-89690476D01*
X158214285Y-89738095D01*
%TO.C,R6*%
X157333333Y-101952380D02*
X157000000Y-101476190D01*
X156761904Y-101952380D02*
X156761904Y-100952380D01*
X157142857Y-100952380D01*
X157238095Y-101000000D01*
X157285714Y-101047619D01*
X157333333Y-101142857D01*
X157333333Y-101285714D01*
X157285714Y-101380952D01*
X157238095Y-101428571D01*
X157142857Y-101476190D01*
X156761904Y-101476190D01*
X158190476Y-100952380D02*
X158000000Y-100952380D01*
X157904761Y-101000000D01*
X157857142Y-101047619D01*
X157761904Y-101190476D01*
X157714285Y-101380952D01*
X157714285Y-101761904D01*
X157761904Y-101857142D01*
X157809523Y-101904761D01*
X157904761Y-101952380D01*
X158095238Y-101952380D01*
X158190476Y-101904761D01*
X158238095Y-101857142D01*
X158285714Y-101761904D01*
X158285714Y-101523809D01*
X158238095Y-101428571D01*
X158190476Y-101380952D01*
X158095238Y-101333333D01*
X157904761Y-101333333D01*
X157809523Y-101380952D01*
X157761904Y-101428571D01*
X157714285Y-101523809D01*
D13*
%TO.C,TP2*%
X91407142Y-103478571D02*
X92264285Y-103478571D01*
X91835714Y-104978571D02*
X91835714Y-103478571D01*
X92764285Y-104978571D02*
X92764285Y-103478571D01*
X93335714Y-103478571D01*
X93478571Y-103550000D01*
X93550000Y-103621428D01*
X93621428Y-103764285D01*
X93621428Y-103978571D01*
X93550000Y-104121428D01*
X93478571Y-104192857D01*
X93335714Y-104264285D01*
X92764285Y-104264285D01*
X94192857Y-103621428D02*
X94264285Y-103550000D01*
X94407142Y-103478571D01*
X94764285Y-103478571D01*
X94907142Y-103550000D01*
X94978571Y-103621428D01*
X95050000Y-103764285D01*
X95050000Y-103907142D01*
X94978571Y-104121428D01*
X94121428Y-104978571D01*
X95050000Y-104978571D01*
D11*
%TO.C,R10*%
X139079643Y-98298973D02*
X138746310Y-97822783D01*
X138508215Y-98298973D02*
X138508215Y-97298973D01*
X138889167Y-97298973D01*
X138984405Y-97346593D01*
X139032024Y-97394212D01*
X139079643Y-97489450D01*
X139079643Y-97632307D01*
X139032024Y-97727545D01*
X138984405Y-97775164D01*
X138889167Y-97822783D01*
X138508215Y-97822783D01*
X140032024Y-98298973D02*
X139460596Y-98298973D01*
X139746310Y-98298973D02*
X139746310Y-97298973D01*
X139651072Y-97441831D01*
X139555834Y-97537069D01*
X139460596Y-97584688D01*
X140651072Y-97298973D02*
X140746310Y-97298973D01*
X140841548Y-97346593D01*
X140889167Y-97394212D01*
X140936786Y-97489450D01*
X140984405Y-97679926D01*
X140984405Y-97918021D01*
X140936786Y-98108497D01*
X140889167Y-98203735D01*
X140841548Y-98251354D01*
X140746310Y-98298973D01*
X140651072Y-98298973D01*
X140555834Y-98251354D01*
X140508215Y-98203735D01*
X140460596Y-98108497D01*
X140412977Y-97918021D01*
X140412977Y-97679926D01*
X140460596Y-97489450D01*
X140508215Y-97394212D01*
X140555834Y-97346593D01*
X140651072Y-97298973D01*
%TO.C,U14*%
X90665880Y-95038095D02*
X91475404Y-95038095D01*
X91570642Y-94990476D01*
X91618261Y-94942857D01*
X91665880Y-94847619D01*
X91665880Y-94657142D01*
X91618261Y-94561904D01*
X91570642Y-94514285D01*
X91475404Y-94466666D01*
X90665880Y-94466666D01*
X91665880Y-93466666D02*
X91665880Y-94038095D01*
X91665880Y-93752380D02*
X90665880Y-93752380D01*
X90808738Y-93847619D01*
X90903976Y-93942857D01*
X90951595Y-94038095D01*
X90999214Y-92609523D02*
X91665880Y-92609523D01*
X90618261Y-92847619D02*
X91332547Y-93085714D01*
X91332547Y-92466666D01*
%TO.C,R18*%
X111222169Y-96293334D02*
X110745979Y-96626667D01*
X111222169Y-96864762D02*
X110222169Y-96864762D01*
X110222169Y-96483810D01*
X110269789Y-96388572D01*
X110317408Y-96340953D01*
X110412646Y-96293334D01*
X110555503Y-96293334D01*
X110650741Y-96340953D01*
X110698360Y-96388572D01*
X110745979Y-96483810D01*
X110745979Y-96864762D01*
X111222169Y-95340953D02*
X111222169Y-95912381D01*
X111222169Y-95626667D02*
X110222169Y-95626667D01*
X110365027Y-95721905D01*
X110460265Y-95817143D01*
X110507884Y-95912381D01*
X110650741Y-94769524D02*
X110603122Y-94864762D01*
X110555503Y-94912381D01*
X110460265Y-94960000D01*
X110412646Y-94960000D01*
X110317408Y-94912381D01*
X110269789Y-94864762D01*
X110222169Y-94769524D01*
X110222169Y-94579048D01*
X110269789Y-94483810D01*
X110317408Y-94436191D01*
X110412646Y-94388572D01*
X110460265Y-94388572D01*
X110555503Y-94436191D01*
X110603122Y-94483810D01*
X110650741Y-94579048D01*
X110650741Y-94769524D01*
X110698360Y-94864762D01*
X110745979Y-94912381D01*
X110841217Y-94960000D01*
X111031693Y-94960000D01*
X111126931Y-94912381D01*
X111174550Y-94864762D01*
X111222169Y-94769524D01*
X111222169Y-94579048D01*
X111174550Y-94483810D01*
X111126931Y-94436191D01*
X111031693Y-94388572D01*
X110841217Y-94388572D01*
X110745979Y-94436191D01*
X110698360Y-94483810D01*
X110650741Y-94579048D01*
%TO.C,S2*%
X120588095Y-114304723D02*
X120730952Y-114352342D01*
X120969047Y-114352342D01*
X121064285Y-114304723D01*
X121111904Y-114257104D01*
X121159523Y-114161866D01*
X121159523Y-114066628D01*
X121111904Y-113971390D01*
X121064285Y-113923771D01*
X120969047Y-113876152D01*
X120778571Y-113828533D01*
X120683333Y-113780914D01*
X120635714Y-113733295D01*
X120588095Y-113638057D01*
X120588095Y-113542819D01*
X120635714Y-113447581D01*
X120683333Y-113399962D01*
X120778571Y-113352342D01*
X121016666Y-113352342D01*
X121159523Y-113399962D01*
X121540476Y-113447581D02*
X121588095Y-113399962D01*
X121683333Y-113352342D01*
X121921428Y-113352342D01*
X122016666Y-113399962D01*
X122064285Y-113447581D01*
X122111904Y-113542819D01*
X122111904Y-113638057D01*
X122064285Y-113780914D01*
X121492857Y-114352342D01*
X122111904Y-114352342D01*
%TO.C,U3*%
X129738095Y-94452380D02*
X129738095Y-95261904D01*
X129785714Y-95357142D01*
X129833333Y-95404761D01*
X129928571Y-95452380D01*
X130119047Y-95452380D01*
X130214285Y-95404761D01*
X130261904Y-95357142D01*
X130309523Y-95261904D01*
X130309523Y-94452380D01*
X130690476Y-94452380D02*
X131309523Y-94452380D01*
X130976190Y-94833333D01*
X131119047Y-94833333D01*
X131214285Y-94880952D01*
X131261904Y-94928571D01*
X131309523Y-95023809D01*
X131309523Y-95261904D01*
X131261904Y-95357142D01*
X131214285Y-95404761D01*
X131119047Y-95452380D01*
X130833333Y-95452380D01*
X130738095Y-95404761D01*
X130690476Y-95357142D01*
%TO.C,R15*%
X111126931Y-85952857D02*
X110793598Y-85476667D01*
X110555503Y-85952857D02*
X110555503Y-84952857D01*
X110936455Y-84952857D01*
X111031693Y-85000477D01*
X111079312Y-85048096D01*
X111126931Y-85143334D01*
X111126931Y-85286191D01*
X111079312Y-85381429D01*
X111031693Y-85429048D01*
X110936455Y-85476667D01*
X110555503Y-85476667D01*
X112079312Y-85952857D02*
X111507884Y-85952857D01*
X111793598Y-85952857D02*
X111793598Y-84952857D01*
X111698360Y-85095715D01*
X111603122Y-85190953D01*
X111507884Y-85238572D01*
X112984074Y-84952857D02*
X112507884Y-84952857D01*
X112460265Y-85429048D01*
X112507884Y-85381429D01*
X112603122Y-85333810D01*
X112841217Y-85333810D01*
X112936455Y-85381429D01*
X112984074Y-85429048D01*
X113031693Y-85524286D01*
X113031693Y-85762381D01*
X112984074Y-85857619D01*
X112936455Y-85905238D01*
X112841217Y-85952857D01*
X112603122Y-85952857D01*
X112507884Y-85905238D01*
X112460265Y-85857619D01*
D13*
%TO.C,TP3*%
X105907142Y-99578571D02*
X106764285Y-99578571D01*
X106335714Y-101078571D02*
X106335714Y-99578571D01*
X107264285Y-101078571D02*
X107264285Y-99578571D01*
X107835714Y-99578571D01*
X107978571Y-99650000D01*
X108050000Y-99721428D01*
X108121428Y-99864285D01*
X108121428Y-100078571D01*
X108050000Y-100221428D01*
X107978571Y-100292857D01*
X107835714Y-100364285D01*
X107264285Y-100364285D01*
X108621428Y-99578571D02*
X109550000Y-99578571D01*
X109050000Y-100150000D01*
X109264285Y-100150000D01*
X109407142Y-100221428D01*
X109478571Y-100292857D01*
X109550000Y-100435714D01*
X109550000Y-100792857D01*
X109478571Y-100935714D01*
X109407142Y-101007142D01*
X109264285Y-101078571D01*
X108835714Y-101078571D01*
X108692857Y-101007142D01*
X108621428Y-100935714D01*
D11*
%TO.C,U8*%
X152952380Y-85761904D02*
X153761904Y-85761904D01*
X153857142Y-85714285D01*
X153904761Y-85666666D01*
X153952380Y-85571428D01*
X153952380Y-85380952D01*
X153904761Y-85285714D01*
X153857142Y-85238095D01*
X153761904Y-85190476D01*
X152952380Y-85190476D01*
X153380952Y-84571428D02*
X153333333Y-84666666D01*
X153285714Y-84714285D01*
X153190476Y-84761904D01*
X153142857Y-84761904D01*
X153047619Y-84714285D01*
X153000000Y-84666666D01*
X152952380Y-84571428D01*
X152952380Y-84380952D01*
X153000000Y-84285714D01*
X153047619Y-84238095D01*
X153142857Y-84190476D01*
X153190476Y-84190476D01*
X153285714Y-84238095D01*
X153333333Y-84285714D01*
X153380952Y-84380952D01*
X153380952Y-84571428D01*
X153428571Y-84666666D01*
X153476190Y-84714285D01*
X153571428Y-84761904D01*
X153761904Y-84761904D01*
X153857142Y-84714285D01*
X153904761Y-84666666D01*
X153952380Y-84571428D01*
X153952380Y-84380952D01*
X153904761Y-84285714D01*
X153857142Y-84238095D01*
X153761904Y-84190476D01*
X153571428Y-84190476D01*
X153476190Y-84238095D01*
X153428571Y-84285714D01*
X153380952Y-84380952D01*
%TO.C,R14*%
X111126931Y-87952857D02*
X110793598Y-87476667D01*
X110555503Y-87952857D02*
X110555503Y-86952857D01*
X110936455Y-86952857D01*
X111031693Y-87000477D01*
X111079312Y-87048096D01*
X111126931Y-87143334D01*
X111126931Y-87286191D01*
X111079312Y-87381429D01*
X111031693Y-87429048D01*
X110936455Y-87476667D01*
X110555503Y-87476667D01*
X112079312Y-87952857D02*
X111507884Y-87952857D01*
X111793598Y-87952857D02*
X111793598Y-86952857D01*
X111698360Y-87095715D01*
X111603122Y-87190953D01*
X111507884Y-87238572D01*
X112936455Y-87286191D02*
X112936455Y-87952857D01*
X112698360Y-86905238D02*
X112460265Y-87619524D01*
X113079312Y-87619524D01*
%TO.C,R19*%
X105978227Y-104418016D02*
X105502037Y-104751349D01*
X105978227Y-104989444D02*
X104978227Y-104989444D01*
X104978227Y-104608492D01*
X105025847Y-104513254D01*
X105073466Y-104465635D01*
X105168704Y-104418016D01*
X105311561Y-104418016D01*
X105406799Y-104465635D01*
X105454418Y-104513254D01*
X105502037Y-104608492D01*
X105502037Y-104989444D01*
X105978227Y-103465635D02*
X105978227Y-104037063D01*
X105978227Y-103751349D02*
X104978227Y-103751349D01*
X105121085Y-103846587D01*
X105216323Y-103941825D01*
X105263942Y-104037063D01*
X105978227Y-102989444D02*
X105978227Y-102798968D01*
X105930608Y-102703730D01*
X105882989Y-102656111D01*
X105740132Y-102560873D01*
X105549656Y-102513254D01*
X105168704Y-102513254D01*
X105073466Y-102560873D01*
X105025847Y-102608492D01*
X104978227Y-102703730D01*
X104978227Y-102894206D01*
X105025847Y-102989444D01*
X105073466Y-103037063D01*
X105168704Y-103084682D01*
X105406799Y-103084682D01*
X105502037Y-103037063D01*
X105549656Y-102989444D01*
X105597275Y-102894206D01*
X105597275Y-102703730D01*
X105549656Y-102608492D01*
X105502037Y-102560873D01*
X105406799Y-102513254D01*
%TO.C,R5*%
X106722169Y-90167143D02*
X106245979Y-90500477D01*
X106722169Y-90738572D02*
X105722169Y-90738572D01*
X105722169Y-90357619D01*
X105769789Y-90262381D01*
X105817408Y-90214762D01*
X105912646Y-90167143D01*
X106055503Y-90167143D01*
X106150741Y-90214762D01*
X106198360Y-90262381D01*
X106245979Y-90357619D01*
X106245979Y-90738572D01*
X105722169Y-89262381D02*
X105722169Y-89738572D01*
X106198360Y-89786191D01*
X106150741Y-89738572D01*
X106103122Y-89643334D01*
X106103122Y-89405238D01*
X106150741Y-89310000D01*
X106198360Y-89262381D01*
X106293598Y-89214762D01*
X106531693Y-89214762D01*
X106626931Y-89262381D01*
X106674550Y-89310000D01*
X106722169Y-89405238D01*
X106722169Y-89643334D01*
X106674550Y-89738572D01*
X106626931Y-89786191D01*
%TO.C,R7*%
X158109880Y-98166666D02*
X157633690Y-98500000D01*
X158109880Y-98738095D02*
X157109880Y-98738095D01*
X157109880Y-98357142D01*
X157157500Y-98261904D01*
X157205119Y-98214285D01*
X157300357Y-98166666D01*
X157443214Y-98166666D01*
X157538452Y-98214285D01*
X157586071Y-98261904D01*
X157633690Y-98357142D01*
X157633690Y-98738095D01*
X157109880Y-97833333D02*
X157109880Y-97166666D01*
X158109880Y-97595238D01*
%TO.C,U9*%
X152952380Y-97761904D02*
X153761904Y-97761904D01*
X153857142Y-97714285D01*
X153904761Y-97666666D01*
X153952380Y-97571428D01*
X153952380Y-97380952D01*
X153904761Y-97285714D01*
X153857142Y-97238095D01*
X153761904Y-97190476D01*
X152952380Y-97190476D01*
X153952380Y-96666666D02*
X153952380Y-96476190D01*
X153904761Y-96380952D01*
X153857142Y-96333333D01*
X153714285Y-96238095D01*
X153523809Y-96190476D01*
X153142857Y-96190476D01*
X153047619Y-96238095D01*
X153000000Y-96285714D01*
X152952380Y-96380952D01*
X152952380Y-96571428D01*
X153000000Y-96666666D01*
X153047619Y-96714285D01*
X153142857Y-96761904D01*
X153380952Y-96761904D01*
X153476190Y-96714285D01*
X153523809Y-96666666D01*
X153571428Y-96571428D01*
X153571428Y-96380952D01*
X153523809Y-96285714D01*
X153476190Y-96238095D01*
X153380952Y-96190476D01*
D13*
%TO.C,TP4*%
X147007142Y-101578571D02*
X147864285Y-101578571D01*
X147435714Y-103078571D02*
X147435714Y-101578571D01*
X148364285Y-103078571D02*
X148364285Y-101578571D01*
X148935714Y-101578571D01*
X149078571Y-101650000D01*
X149150000Y-101721428D01*
X149221428Y-101864285D01*
X149221428Y-102078571D01*
X149150000Y-102221428D01*
X149078571Y-102292857D01*
X148935714Y-102364285D01*
X148364285Y-102364285D01*
X150507142Y-102078571D02*
X150507142Y-103078571D01*
X150150000Y-101507142D02*
X149792857Y-102578571D01*
X150721428Y-102578571D01*
D11*
%TO.C,U2*%
X143923096Y-91770211D02*
X143923096Y-92579735D01*
X143970715Y-92674973D01*
X144018334Y-92722592D01*
X144113572Y-92770211D01*
X144304048Y-92770211D01*
X144399286Y-92722592D01*
X144446905Y-92674973D01*
X144494524Y-92579735D01*
X144494524Y-91770211D01*
X144923096Y-91865450D02*
X144970715Y-91817831D01*
X145065953Y-91770211D01*
X145304048Y-91770211D01*
X145399286Y-91817831D01*
X145446905Y-91865450D01*
X145494524Y-91960688D01*
X145494524Y-92055926D01*
X145446905Y-92198783D01*
X144875477Y-92770211D01*
X145494524Y-92770211D01*
%TO.C,U1*%
X144738095Y-88952380D02*
X144738095Y-89761904D01*
X144785714Y-89857142D01*
X144833333Y-89904761D01*
X144928571Y-89952380D01*
X145119047Y-89952380D01*
X145214285Y-89904761D01*
X145261904Y-89857142D01*
X145309523Y-89761904D01*
X145309523Y-88952380D01*
X146309523Y-89952380D02*
X145738095Y-89952380D01*
X146023809Y-89952380D02*
X146023809Y-88952380D01*
X145928571Y-89095238D01*
X145833333Y-89190476D01*
X145738095Y-89238095D01*
%TO.C,U7*%
X105297544Y-94452857D02*
X105297544Y-95262381D01*
X105345163Y-95357619D01*
X105392782Y-95405238D01*
X105488020Y-95452857D01*
X105678496Y-95452857D01*
X105773734Y-95405238D01*
X105821353Y-95357619D01*
X105868972Y-95262381D01*
X105868972Y-94452857D01*
X106249925Y-94452857D02*
X106916591Y-94452857D01*
X106488020Y-95452857D01*
%TO.C,R12*%
X139129643Y-93898973D02*
X138796310Y-93422783D01*
X138558215Y-93898973D02*
X138558215Y-92898973D01*
X138939167Y-92898973D01*
X139034405Y-92946593D01*
X139082024Y-92994212D01*
X139129643Y-93089450D01*
X139129643Y-93232307D01*
X139082024Y-93327545D01*
X139034405Y-93375164D01*
X138939167Y-93422783D01*
X138558215Y-93422783D01*
X140082024Y-93898973D02*
X139510596Y-93898973D01*
X139796310Y-93898973D02*
X139796310Y-92898973D01*
X139701072Y-93041831D01*
X139605834Y-93137069D01*
X139510596Y-93184688D01*
X140462977Y-92994212D02*
X140510596Y-92946593D01*
X140605834Y-92898973D01*
X140843929Y-92898973D01*
X140939167Y-92946593D01*
X140986786Y-92994212D01*
X141034405Y-93089450D01*
X141034405Y-93184688D01*
X140986786Y-93327545D01*
X140415358Y-93898973D01*
X141034405Y-93898973D01*
%TO.C,R13*%
X111222169Y-91393334D02*
X110745979Y-91726667D01*
X111222169Y-91964762D02*
X110222169Y-91964762D01*
X110222169Y-91583810D01*
X110269789Y-91488572D01*
X110317408Y-91440953D01*
X110412646Y-91393334D01*
X110555503Y-91393334D01*
X110650741Y-91440953D01*
X110698360Y-91488572D01*
X110745979Y-91583810D01*
X110745979Y-91964762D01*
X111222169Y-90440953D02*
X111222169Y-91012381D01*
X111222169Y-90726667D02*
X110222169Y-90726667D01*
X110365027Y-90821905D01*
X110460265Y-90917143D01*
X110507884Y-91012381D01*
X110222169Y-90107619D02*
X110222169Y-89488572D01*
X110603122Y-89821905D01*
X110603122Y-89679048D01*
X110650741Y-89583810D01*
X110698360Y-89536191D01*
X110793598Y-89488572D01*
X111031693Y-89488572D01*
X111126931Y-89536191D01*
X111174550Y-89583810D01*
X111222169Y-89679048D01*
X111222169Y-89964762D01*
X111174550Y-90060000D01*
X111126931Y-90107619D01*
%TO.C,R20*%
X126297062Y-112904299D02*
X125820872Y-113237632D01*
X126297062Y-113475727D02*
X125297062Y-113475727D01*
X125297062Y-113094775D01*
X125344682Y-112999537D01*
X125392301Y-112951918D01*
X125487539Y-112904299D01*
X125630396Y-112904299D01*
X125725634Y-112951918D01*
X125773253Y-112999537D01*
X125820872Y-113094775D01*
X125820872Y-113475727D01*
X125392301Y-112523346D02*
X125344682Y-112475727D01*
X125297062Y-112380489D01*
X125297062Y-112142394D01*
X125344682Y-112047156D01*
X125392301Y-111999537D01*
X125487539Y-111951918D01*
X125582777Y-111951918D01*
X125725634Y-111999537D01*
X126297062Y-112570965D01*
X126297062Y-111951918D01*
X125297062Y-111332870D02*
X125297062Y-111237632D01*
X125344682Y-111142394D01*
X125392301Y-111094775D01*
X125487539Y-111047156D01*
X125678015Y-110999537D01*
X125916110Y-110999537D01*
X126106586Y-111047156D01*
X126201824Y-111094775D01*
X126249443Y-111142394D01*
X126297062Y-111237632D01*
X126297062Y-111332870D01*
X126249443Y-111428108D01*
X126201824Y-111475727D01*
X126106586Y-111523346D01*
X125916110Y-111570965D01*
X125678015Y-111570965D01*
X125487539Y-111523346D01*
X125392301Y-111475727D01*
X125344682Y-111428108D01*
X125297062Y-111332870D01*
%TO.C,U6*%
X162250095Y-89452380D02*
X162250095Y-90261904D01*
X162297714Y-90357142D01*
X162345333Y-90404761D01*
X162440571Y-90452380D01*
X162631047Y-90452380D01*
X162726285Y-90404761D01*
X162773904Y-90357142D01*
X162821523Y-90261904D01*
X162821523Y-89452380D01*
X163726285Y-89452380D02*
X163535809Y-89452380D01*
X163440571Y-89500000D01*
X163392952Y-89547619D01*
X163297714Y-89690476D01*
X163250095Y-89880952D01*
X163250095Y-90261904D01*
X163297714Y-90357142D01*
X163345333Y-90404761D01*
X163440571Y-90452380D01*
X163631047Y-90452380D01*
X163726285Y-90404761D01*
X163773904Y-90357142D01*
X163821523Y-90261904D01*
X163821523Y-90023809D01*
X163773904Y-89928571D01*
X163726285Y-89880952D01*
X163631047Y-89833333D01*
X163440571Y-89833333D01*
X163345333Y-89880952D01*
X163297714Y-89928571D01*
X163250095Y-90023809D01*
%TO.C,R16*%
X96222169Y-96893334D02*
X95745979Y-97226667D01*
X96222169Y-97464762D02*
X95222169Y-97464762D01*
X95222169Y-97083810D01*
X95269789Y-96988572D01*
X95317408Y-96940953D01*
X95412646Y-96893334D01*
X95555503Y-96893334D01*
X95650741Y-96940953D01*
X95698360Y-96988572D01*
X95745979Y-97083810D01*
X95745979Y-97464762D01*
X96222169Y-95940953D02*
X96222169Y-96512381D01*
X96222169Y-96226667D02*
X95222169Y-96226667D01*
X95365027Y-96321905D01*
X95460265Y-96417143D01*
X95507884Y-96512381D01*
X95222169Y-95083810D02*
X95222169Y-95274286D01*
X95269789Y-95369524D01*
X95317408Y-95417143D01*
X95460265Y-95512381D01*
X95650741Y-95560000D01*
X96031693Y-95560000D01*
X96126931Y-95512381D01*
X96174550Y-95464762D01*
X96222169Y-95369524D01*
X96222169Y-95179048D01*
X96174550Y-95083810D01*
X96126931Y-95036191D01*
X96031693Y-94988572D01*
X95793598Y-94988572D01*
X95698360Y-95036191D01*
X95650741Y-95083810D01*
X95603122Y-95179048D01*
X95603122Y-95369524D01*
X95650741Y-95464762D01*
X95698360Y-95512381D01*
X95793598Y-95560000D01*
D13*
%TO.C,TP5*%
X147107142Y-86378571D02*
X147964285Y-86378571D01*
X147535714Y-87878571D02*
X147535714Y-86378571D01*
X148464285Y-87878571D02*
X148464285Y-86378571D01*
X149035714Y-86378571D01*
X149178571Y-86450000D01*
X149250000Y-86521428D01*
X149321428Y-86664285D01*
X149321428Y-86878571D01*
X149250000Y-87021428D01*
X149178571Y-87092857D01*
X149035714Y-87164285D01*
X148464285Y-87164285D01*
X150678571Y-86378571D02*
X149964285Y-86378571D01*
X149892857Y-87092857D01*
X149964285Y-87021428D01*
X150107142Y-86950000D01*
X150464285Y-86950000D01*
X150607142Y-87021428D01*
X150678571Y-87092857D01*
X150750000Y-87235714D01*
X150750000Y-87592857D01*
X150678571Y-87735714D01*
X150607142Y-87807142D01*
X150464285Y-87878571D01*
X150107142Y-87878571D01*
X149964285Y-87807142D01*
X149892857Y-87735714D01*
D11*
%TO.C,R11*%
X139079643Y-98958973D02*
X138746310Y-98482783D01*
X138508215Y-98958973D02*
X138508215Y-97958973D01*
X138889167Y-97958973D01*
X138984405Y-98006593D01*
X139032024Y-98054212D01*
X139079643Y-98149450D01*
X139079643Y-98292307D01*
X139032024Y-98387545D01*
X138984405Y-98435164D01*
X138889167Y-98482783D01*
X138508215Y-98482783D01*
X140032024Y-98958973D02*
X139460596Y-98958973D01*
X139746310Y-98958973D02*
X139746310Y-97958973D01*
X139651072Y-98101831D01*
X139555834Y-98197069D01*
X139460596Y-98244688D01*
X140984405Y-98958973D02*
X140412977Y-98958973D01*
X140698691Y-98958973D02*
X140698691Y-97958973D01*
X140603453Y-98101831D01*
X140508215Y-98197069D01*
X140412977Y-98244688D01*
D14*
%TO.C,D1*%
X100450000Y-99000000D02*
X96150000Y-99000000D01*
X96150000Y-101000000D02*
X100450000Y-101000000D01*
X96150000Y-99000000D02*
X96150000Y-101000000D01*
%TO.C,C5*%
X158383767Y-96560000D02*
X158091233Y-96560000D01*
X158383767Y-95540000D02*
X158091233Y-95540000D01*
%TO.C,C4*%
X158396267Y-84885000D02*
X158103733Y-84885000D01*
X158396267Y-83865000D02*
X158103733Y-83865000D01*
%TO.C,C3*%
X142738734Y-83657844D02*
X143031268Y-83657844D01*
X142738734Y-84677844D02*
X143031268Y-84677844D01*
%TO.C,C2*%
X139181268Y-84677844D02*
X138888734Y-84677844D01*
X139181268Y-83657844D02*
X138888734Y-83657844D01*
%TO.C,J1*%
X210410000Y-98751767D02*
X210410000Y-100448233D01*
X210410000Y-89751767D02*
X210410000Y-91448233D01*
X210410000Y-107535000D02*
X210410000Y-104751767D01*
X210410000Y-86751767D02*
X210410000Y-88448233D01*
X220530000Y-106535000D02*
X219530000Y-107535000D01*
X210410000Y-92751767D02*
X210410000Y-94448233D01*
X220530000Y-80665000D02*
X220530000Y-106535000D01*
X219530000Y-107535000D02*
X210410000Y-107535000D01*
X210410000Y-95751767D02*
X210410000Y-97448233D01*
X210410000Y-84110000D02*
X210410000Y-85448233D01*
X210410000Y-79665000D02*
X210410000Y-82090000D01*
X210410000Y-79665000D02*
X219530000Y-79665000D01*
X219530000Y-79665000D02*
X220530000Y-80665000D01*
X210410000Y-101751767D02*
X210410000Y-103448233D01*
%TO.C,R17*%
X99627515Y-96627977D02*
X100136963Y-96627977D01*
X99627515Y-97672977D02*
X100136963Y-97672977D01*
D15*
%TO.C,U4*%
X100094895Y-93664999D02*
X99689891Y-93664999D01*
X99689891Y-93664999D02*
X99689891Y-93573584D01*
X99689891Y-88664999D02*
X99689891Y-88756414D01*
X103499899Y-93664999D02*
X103499899Y-93573584D01*
X103094895Y-88664999D02*
X103499899Y-88664999D01*
X100094895Y-88664999D02*
X103094895Y-88664999D01*
X103499899Y-88664999D02*
X103499899Y-88756414D01*
X103094895Y-93664999D02*
X103499899Y-93664999D01*
X100094895Y-93664999D02*
X100868606Y-93664999D01*
X100094895Y-88664999D02*
X99689891Y-88664999D01*
X103094895Y-93664999D02*
X102321463Y-93664999D01*
X100868606Y-93660096D02*
G75*
G03*
X102321463Y-93664999I726441J1219D01*
G01*
D16*
X104624867Y-93585116D02*
G75*
G03*
X104624867Y-93585116I-29972J0D01*
G01*
D10*
X104412014Y-93705004D02*
G75*
G03*
X104412014Y-93705004I-150114J0D01*
G01*
D14*
%TO.C,R4*%
X158627500Y-87617224D02*
X158627500Y-87107776D01*
X159672500Y-87617224D02*
X159672500Y-87107776D01*
D17*
%TO.C,U5*%
X163713827Y-100548695D02*
X163713827Y-99507090D01*
X163713827Y-97476305D02*
X163713827Y-98517910D01*
X161961427Y-99467898D02*
X161961427Y-98557102D01*
X161961427Y-100548695D02*
X163713827Y-100548695D01*
X161961427Y-97476305D02*
X163713827Y-97476305D01*
D16*
X161467624Y-97552505D02*
G75*
G03*
X161467624Y-97552505I-29997J0D01*
G01*
D14*
%TO.C,R1*%
X156007776Y-87740000D02*
X156517224Y-87740000D01*
X156007776Y-88785000D02*
X156517224Y-88785000D01*
%TO.C,R6*%
X155932776Y-100472500D02*
X156442224Y-100472500D01*
X155932776Y-99427500D02*
X156442224Y-99427500D01*
%TO.C,TP2*%
X99019789Y-104050477D02*
G75*
G03*
X99019789Y-104050477I-1200000J0D01*
G01*
%TO.C,R10*%
X139467777Y-99799093D02*
X139977225Y-99799093D01*
X139467777Y-98754093D02*
X139977225Y-98754093D01*
D15*
%TO.C,U14*%
X79022936Y-93075464D02*
X76473025Y-93075464D01*
X76422987Y-91425476D02*
X76422987Y-96175540D01*
X77425019Y-90424460D02*
X76475057Y-91374422D01*
X86583845Y-97175540D02*
X77923952Y-97175540D01*
X77674955Y-90424460D02*
X77425019Y-90424460D01*
X86583845Y-97155474D02*
X86583845Y-90495580D01*
X79022936Y-93075464D02*
X79022936Y-94625629D01*
X77925984Y-90424460D02*
X86583845Y-90424460D01*
X79022936Y-94625629D02*
X76473025Y-94625629D01*
X77423749Y-97172746D02*
X76473787Y-96223038D01*
X77673685Y-97172746D02*
X77423749Y-97172746D01*
X78322911Y-93125502D02*
X78322911Y-94575591D01*
D16*
X76703911Y-97150648D02*
G75*
G03*
X76703911Y-97150648I-29972J0D01*
G01*
D14*
%TO.C,R18*%
X108597289Y-95395753D02*
X108597289Y-95905201D01*
X109642289Y-95395753D02*
X109642289Y-95905201D01*
D15*
%TO.C,S2*%
X123549898Y-111899962D02*
X119150102Y-111899962D01*
X119099555Y-108000038D02*
X120750000Y-108000038D01*
X119099555Y-111899962D02*
X119099555Y-108000038D01*
X123600445Y-108000038D02*
X121950000Y-108000038D01*
X123600445Y-108000038D02*
X123600445Y-111899962D01*
X120750559Y-107999276D02*
G75*
G03*
X121950000Y-108000038I600483J1200205D01*
G01*
X118277103Y-107849924D02*
G75*
G03*
X118277103Y-107849924I-127001J0D01*
G01*
D16*
X117909994Y-108029756D02*
G75*
G03*
X117909994Y-108029756I-29997J0D01*
G01*
D15*
X119677000Y-108549746D02*
G75*
G03*
X119677000Y-108549746I-127000J0D01*
G01*
D14*
%TO.C,U3*%
X128870000Y-91300000D02*
X115630000Y-91300000D01*
X115630000Y-91300000D02*
X115630000Y-99300000D01*
X115630000Y-99300000D02*
X128870000Y-99300000D01*
X128870000Y-99300000D02*
X128870000Y-91300000D01*
X128870000Y-94241134D02*
G75*
G03*
X128830000Y-96349570I492J-1054607D01*
G01*
%TO.C,R15*%
X108000147Y-86097659D02*
X108509595Y-86097659D01*
X108000147Y-85052659D02*
X108509595Y-85052659D01*
%TO.C,TP3*%
X105319789Y-99750477D02*
G75*
G03*
X105319789Y-99750477I-1200000J0D01*
G01*
D15*
%TO.C,U8*%
X154582898Y-87077204D02*
X154582898Y-85604001D01*
X156310102Y-87077204D02*
X156310102Y-85604001D01*
D18*
X155040099Y-85388100D02*
X155827501Y-85388100D01*
D15*
X154582898Y-87077204D02*
X156310102Y-87077204D01*
X154582898Y-84994399D02*
X154582898Y-83851397D01*
D18*
X155438550Y-85388100D02*
X155438550Y-85212738D01*
D15*
X154582898Y-83851397D02*
X154938499Y-83495796D01*
X155954501Y-83495796D02*
X156310102Y-83851397D01*
X156310102Y-85019799D02*
X156310102Y-83851397D01*
X154938499Y-83495796D02*
X155954501Y-83495796D01*
D16*
X155076421Y-86112002D02*
G75*
G03*
X155076421Y-86112002I-29972J0D01*
G01*
D14*
%TO.C,R14*%
X108499513Y-87202659D02*
X107990065Y-87202659D01*
X108499513Y-88247659D02*
X107990065Y-88247659D01*
%TO.C,R19*%
X104618347Y-103520435D02*
X104618347Y-104029883D01*
X103573347Y-103520435D02*
X103573347Y-104029883D01*
%TO.C,R5*%
X106716395Y-92232275D02*
X106716395Y-92741723D01*
X107761395Y-92232275D02*
X107761395Y-92741723D01*
%TO.C,R7*%
X159610000Y-99204724D02*
X159610000Y-98695276D01*
X158565000Y-99204724D02*
X158565000Y-98695276D01*
D15*
%TO.C,U9*%
X154829499Y-95159296D02*
X155845501Y-95159296D01*
X154473898Y-96657899D02*
X154473898Y-95514897D01*
X154473898Y-98740704D02*
X156201102Y-98740704D01*
X156201102Y-96683299D02*
X156201102Y-95514897D01*
D18*
X155329550Y-97051600D02*
X155329550Y-96876238D01*
D15*
X155845501Y-95159296D02*
X156201102Y-95514897D01*
D18*
X154931099Y-97051600D02*
X155718501Y-97051600D01*
D15*
X154473898Y-98740704D02*
X154473898Y-97267501D01*
X154473898Y-95514897D02*
X154829499Y-95159296D01*
X156201102Y-98740704D02*
X156201102Y-97267501D01*
D16*
X154967421Y-97775502D02*
G75*
G03*
X154967421Y-97775502I-29972J0D01*
G01*
D14*
%TO.C,TP4*%
X150150000Y-98950000D02*
G75*
G03*
X150150000Y-98950000I-1200000J0D01*
G01*
D15*
%TO.C,U2*%
X143784950Y-96267869D02*
X143784950Y-95467844D01*
X143784950Y-94317831D02*
X145584976Y-94317831D01*
X143784950Y-97417857D02*
X145584976Y-97417857D01*
X146335877Y-97518797D02*
G75*
G03*
X146335877Y-97518797I-127000J0D01*
G01*
D16*
X146114998Y-97317882D02*
G75*
G03*
X146114998Y-97317882I-29997J0D01*
G01*
D17*
%TO.C,U1*%
X138823787Y-91071412D02*
X138823787Y-88028588D01*
X138823787Y-88028588D02*
X143876213Y-88028588D01*
X143876213Y-91071412D02*
X138823787Y-91071412D01*
X143876213Y-88028588D02*
X143876213Y-91071412D01*
D10*
X139595110Y-90319114D02*
G75*
G03*
X139595110Y-90319114I-150114J0D01*
G01*
D16*
X138929985Y-92547511D02*
G75*
G03*
X138929985Y-92547511I-29998J0D01*
G01*
D10*
X138855715Y-92317844D02*
G75*
G03*
X138855715Y-92317844I-150114J0D01*
G01*
D15*
%TO.C,U7*%
X106630950Y-95911557D02*
X106986551Y-96267158D01*
D18*
X105094247Y-96368758D02*
X105094247Y-97156160D01*
D15*
X106986551Y-97283160D02*
X106630950Y-97638761D01*
X105487948Y-95911557D02*
X106630950Y-95911557D01*
X105462548Y-97638761D02*
X106630950Y-97638761D01*
X103405143Y-95911557D02*
X104878346Y-95911557D01*
X103405143Y-95911557D02*
X103405143Y-97638761D01*
X106986551Y-96267158D02*
X106986551Y-97283160D01*
D18*
X105094247Y-96767209D02*
X105269609Y-96767209D01*
D15*
X103405143Y-97638761D02*
X104878346Y-97638761D01*
D16*
X104400317Y-96375108D02*
G75*
G03*
X104400317Y-96375108I-29972J0D01*
G01*
D14*
%TO.C,R12*%
X139517777Y-95399093D02*
X140027225Y-95399093D01*
X139517777Y-94354093D02*
X140027225Y-94354093D01*
%TO.C,R13*%
X109689871Y-91005201D02*
X109689871Y-90495753D01*
X108644871Y-91005201D02*
X108644871Y-90495753D01*
%TO.C,R20*%
X126752182Y-112516166D02*
X126752182Y-112006718D01*
X127797182Y-112516166D02*
X127797182Y-112006718D01*
D17*
%TO.C,U6*%
X162135927Y-87882398D02*
X162135927Y-86971602D01*
X163888327Y-88963195D02*
X163888327Y-87921590D01*
X163888327Y-85890805D02*
X163888327Y-86932410D01*
X162135927Y-88963195D02*
X163888327Y-88963195D01*
X162135927Y-85890805D02*
X163888327Y-85890805D01*
D16*
X161642124Y-85967005D02*
G75*
G03*
X161642124Y-85967005I-29997J0D01*
G01*
D14*
%TO.C,R16*%
X96697289Y-95995753D02*
X96697289Y-96505201D01*
X97742289Y-95995753D02*
X97742289Y-96505201D01*
%TO.C,TP5*%
X150100000Y-84300000D02*
G75*
G03*
X150100000Y-84300000I-1200000J0D01*
G01*
%TO.C,R11*%
X139977225Y-97599093D02*
X139467777Y-97599093D01*
X139977225Y-96554093D02*
X139467777Y-96554093D01*
%TD*%
M02*
